999
dxfrw 0.6.3
  0
SECTION
  2
HEADER
  9
$ACADVER
  1
AC1021
  9
$DWGCODEPAGE
  3
ANSI_1252
  9
$INSBASE
 10
0
 20
0
 30
0
  9
$EXTMIN
 10
-25.125
 20
-16.3339013002323
 30
0
  9
$EXTMAX
 10
312.9839602048008
 20
61.33338835089643
 30
0
  9
$LIMMIN
 10
0
 20
0
  9
$LIMMAX
 10
420
 20
297
  9
$ORTHOMODE
 70
    0
  9
$REGENMODE
 70
    1
  9
$FILLMODE
 70
    1
  9
$QTEXTMODE
 70
    0
  9
$MIRRTEXT
 70
    0
  9
$LTSCALE
 40
1
  9
$ATTMODE
 70
    0
  9
$TEXTSIZE
 40
2.5
  9
$TRACEWID
 40
15.68
  9
$TEXTSTYLE
  7
STANDARD
  9
$CLAYER
  8
dimensioning
  9
$CELTYPE
  6
BYLAYER
  9
$CECOLOR
 62
  256
  9
$CELTSCALE
 40
1
  9
$DISPSILH
 70
    0
  9
$DIMSCALE
 40
1
  9
$DIMASZ
 40
2.5
  9
$DIMEXO
 40
0.625
  9
$DIMDLI
 40
3.75
  9
$DIMRND
 40
0
  9
$DIMDLE
 40
0
  9
$DIMEXE
 40
1.25
  9
$DIMTP
 40
0
  9
$DIMTM
 40
0
  9
$DIMTXT
 40
2.5
  9
$DIMCEN
 40
2.5
  9
$DIMTSZ
 40
0
  9
$DIMTOL
 70
    0
  9
$DIMLIM
 70
    0
  9
$DIMTIH
 70
    0
  9
$DIMTOH
 70
    0
  9
$DIMSE1
 70
    0
  9
$DIMSE2
 70
    0
  9
$DIMTAD
 70
    1
  9
$DIMZIN
 70
    1
  9
$DIMBLK
  1

  9
$DIMASO
 70
    1
  9
$DIMSHO
 70
    1
  9
$DIMPOST
  1

  9
$DIMAPOST
  1

  9
$DIMALT
 70
    0
  9
$DIMALTD
 70
    3
  9
$DIMALTF
 40
0.03937
  9
$DIMLFAC
 40
1
  9
$DIMTOFL
 70
    1
  9
$DIMTVP
 40
0
  9
$DIMTIX
 70
    0
  9
$DIMSOXD
 70
    0
  9
$DIMSAH
 70
    0
  9
$DIMBLK1
  1

  9
$DIMBLK2
  1

  9
$DIMSTYLE
  2
Standard
  9
$DIMCLRD
 70
    0
  9
$DIMCLRE
 70
    0
  9
$DIMCLRT
 70
    0
  9
$DIMTFAC
 40
1
  9
$DIMGAP
 40
0.625
  9
$DIMJUST
 70
    0
  9
$DIMSD1
 70
    0
  9
$DIMSD2
 70
    0
  9
$DIMTOLJ
 70
    0
  9
$DIMTZIN
 70
    8
  9
$DIMALTZ
 70
    0
  9
$DIMALTTZ
 70
    0
  9
$DIMUPT
 70
    0
  9
$DIMDEC
 70
    1
  9
$DIMTDEC
 70
    2
  9
$DIMALTU
 70
    2
  9
$DIMALTTD
 70
    3
  9
$DIMTXSTY
  7
standard
  9
$DIMAUNIT
 70
    0
  9
$DIMADEC
 70
    1
  9
$DIMALTRND
 40
0
  9
$DIMAZIN
 70
    0
  9
$DIMDSEP
 70
    0
  9
$DIMATFIT
 70
    3
  9
$DIMFRAC
 70
    0
  9
$DIMLDRBLK
  1
STANDARD
  9
$DIMLUNIT
 70
    2
  9
$DIMLWD
 70
   -2
  9
$DIMLWE
 70
   -2
  9
$DIMTMOVE
 70
    0
  9
$DIMFXL
 40
1
  9
$DIMFXLON
 70
    0
  9
$DIMJOGANG
 40
0.7854
  9
$DIMTFILL
 70
    0
  9
$DIMTFILLCLR
 70
    0
  9
$DIMARCSYM
 70
    0
  9
$DIMLTYPE
  6

  9
$DIMLTEX1
  6

  9
$DIMLTEX2
  6

  9
$LUNITS
 70
    2
  9
$LUPREC
 70
    4
  9
$SKETCHINC
 40
1
  9
$FILLETRAD
 40
0
  9
$AUNITS
 70
    0
  9
$AUPREC
 70
    2
  9
$MENU
  1
.
  9
$ELEVATION
 40
0
  9
$PELEVATION
 40
0
  9
$THICKNESS
 40
0
  9
$LIMCHECK
 70
    0
  9
$CHAMFERA
 40
0
  9
$CHAMFERB
 40
0
  9
$CHAMFERC
 40
0
  9
$CHAMFERD
 40
0
  9
$SKPOLY
 70
    0
  9
$USRTIMER
 70
    1
  9
$ANGBASE
 50
0
  9
$ANGDIR
 70
    0
  9
$PDMODE
 70
   34
  9
$PDSIZE
 40
0
  9
$PLINEWID
 40
0
  9
$SPLFRAME
 70
    0
  9
$SPLINETYPE
 70
    2
  9
$SPLINESEGS
 70
    8
  9
$HANDSEED
  5
20000
  9
$SURFTAB1
 70
    6
  9
$SURFTAB2
 70
    6
  9
$SURFTYPE
 70
    6
  9
$SURFU
 70
    6
  9
$SURFV
 70
    6
  9
$UCSBASE
  2

  9
$UCSNAME
  2

  9
$UCSORG
 10
0
 20
0
 30
0
  9
$UCSXDIR
 10
1
 20
0
 30
0
  9
$UCSYDIR
 10
0
 20
1
 30
0
  9
$UCSORTHOREF
  2

  9
$UCSORTHOVIEW
 70
    0
  9
$UCSORGTOP
 10
0
 20
0
 30
0
  9
$UCSORGBOTTOM
 10
0
 20
0
 30
0
  9
$UCSORGLEFT
 10
0
 20
0
 30
0
  9
$UCSORGRIGHT
 10
0
 20
0
 30
0
  9
$UCSORGFRONT
 10
0
 20
0
 30
0
  9
$UCSORGBACK
 10
0
 20
0
 30
0
  9
$PUCSBASE
  2

  9
$PUCSNAME
  2

  9
$PUCSORG
 10
0
 20
0
 30
0
  9
$PUCSXDIR
 10
1
 20
0
 30
0
  9
$PUCSYDIR
 10
0
 20
1
 30
0
  9
$PUCSORTHOREF
  2

  9
$PUCSORTHOVIEW
 70
    0
  9
$PUCSORGTOP
 10
0
 20
0
 30
0
  9
$PUCSORGBOTTOM
 10
0
 20
0
 30
0
  9
$PUCSORGLEFT
 10
0
 20
0
 30
0
  9
$PUCSORGRIGHT
 10
0
 20
0
 30
0
  9
$PUCSORGFRONT
 10
0
 20
0
 30
0
  9
$PUCSORGBACK
 10
0
 20
0
 30
0
  9
$USERI1
 70
    0
  9
$USERI2
 70
    0
  9
$USERI3
 70
    0
  9
$USERI4
 70
    0
  9
$USERI5
 70
    0
  9
$USERR1
 40
0
  9
$USERR2
 40
0
  9
$USERR3
 40
0
  9
$USERR4
 40
0
  9
$USERR5
 40
0
  9
$WORLDVIEW
 70
    1
  9
$SHADEDGE
 70
    3
  9
$SHADEDIF
 70
   70
  9
$TILEMODE
 70
    1
  9
$MAXACTVP
 70
   64
  9
$PINSBASE
 10
0
 20
0
 30
0
  9
$PLIMCHECK
 70
    0
  9
$PEXTMIN
 10
0
 20
0
 30
0
  9
$PEXTMAX
 10
0
 20
0
 30
0
  9
$GRIDMODE
 70
    1
  9
$SNAPSTYLE
 70
    0
  9
$GRIDUNIT
 10
0
 20
0
  9
$PLIMMIN
 10
0
 20
0
  9
$PLIMMAX
 10
210
 20
297
  9
$UNITMODE
 70
    0
  9
$VISRETAIN
 70
    1
  9
$PLINEGEN
 70
    0
  9
$PSLTSCALE
 70
    1
  9
$TREEDEPTH
 70
 3020
  9
$CMLSTYLE
  2
Standard
  9
$CMLJUST
 70
    0
  9
$CMLSCALE
 40
20
  9
$PROXYGRAPHICS
 70
    1
  9
$MEASUREMENT
 70
    1
  9
$CELWEIGHT
370
   -1
  9
$ENDCAPS
280
    0
  9
$JOINSTYLE
280
    0
  9
$LWDISPLAY
290
    0
  9
$INSUNITS
 70
    4
  9
$HYPERLINKBASE
  1

  9
$STYLESHEET
  1

  9
$XEDIT
290
    1
  9
$CEPSNTYPE
380
    0
  9
$PSTYLEMODE
290
    1
  9
$EXTNAMES
290
    1
  9
$PSVPSCALE
 40
1
  9
$OLESTARTUP
290
    0
  9
$SORTENTS
280
  127
  9
$INDEXCTL
280
    0
  9
$HIDETEXT
280
    1
  9
$XCLIPFRAME
290
    0
  9
$HALOGAP
280
    0
  9
$OBSCOLOR
 70
  257
  9
$OBSLTYPE
280
    0
  9
$INTERSECTIONDISPLAY
280
    0
  9
$INTERSECTIONCOLOR
 70
  257
  9
$DIMASSOC
280
    1
  9
$PROJECTNAME
  1

  9
$CAMERADISPLAY
290
    0
  9
$LENSLENGTH
 40
50
  9
$CAMERAHEIGHT
 40
0
  9
$STEPSPERSEC
 40
2
  9
$STEPSIZE
 40
50
  9
$3DDWFPREC
 40
2
  9
$PSOLWIDTH
 40
5
  9
$PSOLHEIGHT
 40
80
  9
$LOFTANG1
 40
1.570796326794897
  9
$LOFTANG2
 40
1.570796326794897
  9
$LOFTMAG1
 40
0
  9
$LOFTMAG2
 40
0
  9
$LOFTPARAM
 70
    7
  9
$LOFTNORMALS
280
    1
  9
$LATITUDE
 40
1
  9
$LONGITUDE
 40
1
  9
$NORTHDIRECTION
 40
0
  9
$TIMEZONE
 70
-8000
  9
$LIGHTGLYPHDISPLAY
280
    1
  9
$TILEMODELIGHTSYNCH
280
    1
  9
$SOLIDHIST
280
    1
  9
$SHOWHIST
280
    1
  9
$DWFFRAME
280
    2
  9
$DGNFRAME
280
    0
  9
$REALWORLDSCALE
290
    1
  9
$INTERFERECOLOR
 62
    1
  9
$CSHADOW
280
    0
  9
$SHADOWPLANELOCATION
 40
0
  0
ENDSEC
  0
SECTION
  2
CLASSES
  0
ENDSEC
  0
SECTION
  2
TABLES
  0
TABLE
  2
VPORT
  5
8
330
0
100
AcDbSymbolTable
 70
    1
  0
VPORT
  5
31
330
2
100
AcDbSymbolTableRecord
100
AcDbViewportTableRecord
  2
*ACTIVE
 70
    0
 10
0
 20
0
 11
1
 21
1
 12
200.8226250000181
 22
69.21487500000622
 13
0
 23
0
 14
10
 24
10
 15
10
 25
10
 16
0
 26
0
 36
1
 17
0
 27
0
 37
0
 40
241.0440000000217
 41
1.889150943396226
 42
50
 43
0
 44
0
 50
0
 51
0
 71
    0
 72
  100
 73
    1
 74
    3
 75
    0
 76
    1
 77
    0
 78
    0
281
    0
 65
    1
110
0
120
0
130
0
111
1
121
0
131
0
112
0
122
1
132
0
 79
    0
146
0
348
10020
 60
    7
 61
    5
292
1
282
    1
141
0
142
0
 63
  250
421
3358443
  0
ENDTAB
  0
TABLE
  2
LTYPE
  5
5
330
0
100
AcDbSymbolTable
 70
    4
  0
LTYPE
  5
14
330
5
100
AcDbSymbolTableRecord
100
AcDbLinetypeTableRecord
  2
ByBlock
 70
    0
  3

 72
   65
 73
    0
 40
0
  0
LTYPE
  5
15
330
5
100
AcDbSymbolTableRecord
100
AcDbLinetypeTableRecord
  2
ByLayer
 70
    0
  3

 72
   65
 73
    0
 40
0
  0
LTYPE
  5
16
330
5
100
AcDbSymbolTableRecord
100
AcDbLinetypeTableRecord
  2
Continuous
 70
    0
  3
Solid line
 72
   65
 73
    0
 40
0
  0
LTYPE
  5
32
330
5
100
AcDbSymbolTableRecord
100
AcDbLinetypeTableRecord
  2
DOT
 70
    0
  3
Dot . . . . . . . . . . . . . . . . . . . . . .
 72
   65
 73
    2
 40
6.35
 49
0
 74
    0
 49
-6.35
 74
    0
  0
LTYPE
  5
33
330
5
100
AcDbSymbolTableRecord
100
AcDbLinetypeTableRecord
  2
DOTTINY
 70
    0
  3
Dot (.15x) .....................................
 72
   65
 73
    2
 40
0.9525
 49
0
 74
    0
 49
-0.9525
 74
    0
  0
LTYPE
  5
34
330
5
100
AcDbSymbolTableRecord
100
AcDbLinetypeTableRecord
  2
DOT2
 70
    0
  3
Dot (.5x) .....................................
 72
   65
 73
    2
 40
3.175
 49
0
 74
    0
 49
-3.175
 74
    0
  0
LTYPE
  5
35
330
5
100
AcDbSymbolTableRecord
100
AcDbLinetypeTableRecord
  2
DOTX2
 70
    0
  3
Dot (2x) .  .  .  .  .  .  .  .  .  .  .  .  .
 72
   65
 73
    2
 40
12.7
 49
0
 74
    0
 49
-12.7
 74
    0
  0
LTYPE
  5
36
330
5
100
AcDbSymbolTableRecord
100
AcDbLinetypeTableRecord
  2
DASHED
 70
    0
  3
Dashed _ _ _ _ _ _ _ _ _ _ _ _ _ _ _ _ _
 72
   65
 73
    2
 40
19.05
 49
12.7
 74
    0
 49
-6.35
 74
    0
  0
LTYPE
  5
37
330
5
100
AcDbSymbolTableRecord
100
AcDbLinetypeTableRecord
  2
DASHEDTINY
 70
    0
  3
Dashed (.15x) _ _ _ _ _ _ _ _ _ _ _ _ _ _ _ _ _
 72
   65
 73
    2
 40
2.8575
 49
1.905
 74
    0
 49
-0.9525
 74
    0
  0
LTYPE
  5
38
330
5
100
AcDbSymbolTableRecord
100
AcDbLinetypeTableRecord
  2
DASHED2
 70
    0
  3
Dashed (.5x) _ _ _ _ _ _ _ _ _ _ _ _ _ _ _ _ _
 72
   65
 73
    2
 40
9.524999999999999
 49
6.35
 74
    0
 49
-3.175
 74
    0
  0
LTYPE
  5
39
330
5
100
AcDbSymbolTableRecord
100
AcDbLinetypeTableRecord
  2
DASHEDX2
 70
    0
  3
Dashed (2x) ____  ____  ____  ____  ____  ___
 72
   65
 73
    2
 40
38.09999999999999
 49
25.4
 74
    0
 49
-12.7
 74
    0
  0
LTYPE
  5
3A
330
5
100
AcDbSymbolTableRecord
100
AcDbLinetypeTableRecord
  2
DASHDOT
 70
    0
  3
Dash dot __ . __ . __ . __ . __ . __ . __ . __
 72
   65
 73
    4
 40
25.4
 49
12.7
 74
    0
 49
-6.35
 74
    0
 49
0
 74
    0
 49
-6.35
 74
    0
  0
LTYPE
  5
3B
330
5
100
AcDbSymbolTableRecord
100
AcDbLinetypeTableRecord
  2
DASHDOTTINY
 70
    0
  3
Dash dot (.15x) _._._._._._._._._._._._._._._.
 72
   65
 73
    4
 40
3.81
 49
1.905
 74
    0
 49
-0.9525
 74
    0
 49
0
 74
    0
 49
-0.9525
 74
    0
  0
LTYPE
  5
3C
330
5
100
AcDbSymbolTableRecord
100
AcDbLinetypeTableRecord
  2
DASHDOT2
 70
    0
  3
Dash dot (.5x) _._._._._._._._._._._._._._._.
 72
   65
 73
    4
 40
12.7
 49
6.35
 74
    0
 49
-3.175
 74
    0
 49
0
 74
    0
 49
-3.175
 74
    0
  0
LTYPE
  5
3D
330
5
100
AcDbSymbolTableRecord
100
AcDbLinetypeTableRecord
  2
DASHDOTX2
 70
    0
  3
Dash dot (2x) ____  .  ____  .  ____  .  ___
 72
   65
 73
    4
 40
50.8
 49
25.4
 74
    0
 49
-12.7
 74
    0
 49
0
 74
    0
 49
-12.7
 74
    0
  0
LTYPE
  5
3E
330
5
100
AcDbSymbolTableRecord
100
AcDbLinetypeTableRecord
  2
DIVIDE
 70
    0
  3
Divide ____ . . ____ . . ____ . . ____ . . ____
 72
   65
 73
    6
 40
31.75
 49
12.7
 74
    0
 49
-6.35
 74
    0
 49
0
 74
    0
 49
-6.35
 74
    0
 49
0
 74
    0
 49
-6.35
 74
    0
  0
LTYPE
  5
3F
330
5
100
AcDbSymbolTableRecord
100
AcDbLinetypeTableRecord
  2
DIVIDETINY
 70
    0
  3
Divide (.15x) __..__..__..__..__..__..__..__.._
 72
   65
 73
    6
 40
4.7625
 49
1.905
 74
    0
 49
-0.9525
 74
    0
 49
0
 74
    0
 49
-0.9525
 74
    0
 49
0
 74
    0
 49
-0.9525
 74
    0
  0
LTYPE
  5
40
330
5
100
AcDbSymbolTableRecord
100
AcDbLinetypeTableRecord
  2
DIVIDE2
 70
    0
  3
Divide (.5x) __..__..__..__..__..__..__..__.._
 72
   65
 73
    6
 40
15.875
 49
6.35
 74
    0
 49
-3.175
 74
    0
 49
0
 74
    0
 49
-3.175
 74
    0
 49
0
 74
    0
 49
-3.175
 74
    0
  0
LTYPE
  5
41
330
5
100
AcDbSymbolTableRecord
100
AcDbLinetypeTableRecord
  2
DIVIDEX2
 70
    0
  3
Divide (2x) ________  .  .  ________  .  .  _
 72
   65
 73
    6
 40
63.5
 49
25.4
 74
    0
 49
-12.7
 74
    0
 49
0
 74
    0
 49
-12.7
 74
    0
 49
0
 74
    0
 49
-12.7
 74
    0
  0
LTYPE
  5
42
330
5
100
AcDbSymbolTableRecord
100
AcDbLinetypeTableRecord
  2
BORDER
 70
    0
  3
Border __ __ . __ __ . __ __ . __ __ . __ __ .
 72
   65
 73
    6
 40
44.45
 49
12.7
 74
    0
 49
-6.35
 74
    0
 49
12.7
 74
    0
 49
-6.35
 74
    0
 49
0
 74
    0
 49
-6.35
 74
    0
  0
LTYPE
  5
43
330
5
100
AcDbSymbolTableRecord
100
AcDbLinetypeTableRecord
  2
BORDERTINY
 70
    0
  3
Border (.15x) __.__.__.__.__.__.__.__.__.__.__.
 72
   65
 73
    6
 40
6.6675
 49
1.905
 74
    0
 49
-0.9525
 74
    0
 49
1.905
 74
    0
 49
-0.9525
 74
    0
 49
0
 74
    0
 49
-0.9525
 74
    0
  0
LTYPE
  5
44
330
5
100
AcDbSymbolTableRecord
100
AcDbLinetypeTableRecord
  2
BORDER2
 70
    0
  3
Border (.5x) __.__.__.__.__.__.__.__.__.__.__.
 72
   65
 73
    6
 40
22.225
 49
6.35
 74
    0
 49
-3.175
 74
    0
 49
6.35
 74
    0
 49
-3.175
 74
    0
 49
0
 74
    0
 49
-3.175
 74
    0
  0
LTYPE
  5
45
330
5
100
AcDbSymbolTableRecord
100
AcDbLinetypeTableRecord
  2
BORDERX2
 70
    0
  3
Border (2x) ____  ____  .  ____  ____  .  ___
 72
   65
 73
    6
 40
88.89999999999999
 49
25.4
 74
    0
 49
-12.7
 74
    0
 49
25.4
 74
    0
 49
-12.7
 74
    0
 49
0
 74
    0
 49
-12.7
 74
    0
  0
LTYPE
  5
46
330
5
100
AcDbSymbolTableRecord
100
AcDbLinetypeTableRecord
  2
CENTER
 70
    0
  3
Center ____ _ ____ _ ____ _ ____ _ ____ _ ____
 72
   65
 73
    4
 40
50.8
 49
31.75
 74
    0
 49
-6.35
 74
    0
 49
6.35
 74
    0
 49
-6.35
 74
    0
  0
LTYPE
  5
47
330
5
100
AcDbSymbolTableRecord
100
AcDbLinetypeTableRecord
  2
CENTERTINY
 70
    0
  3
Center (.15x) ___ _ ___ _ ___ _ ___ _ ___ _ ___
 72
   65
 73
    4
 40
7.62
 49
4.7625
 74
    0
 49
-0.9525
 74
    0
 49
0.9525
 74
    0
 49
-0.9525
 74
    0
  0
LTYPE
  5
48
330
5
100
AcDbSymbolTableRecord
100
AcDbLinetypeTableRecord
  2
CENTER2
 70
    0
  3
Center (.5x) ___ _ ___ _ ___ _ ___ _ ___ _ ___
 72
   65
 73
    4
 40
28.575
 49
19.05
 74
    0
 49
-3.175
 74
    0
 49
3.175
 74
    0
 49
-3.175
 74
    0
  0
LTYPE
  5
49
330
5
100
AcDbSymbolTableRecord
100
AcDbLinetypeTableRecord
  2
CENTERX2
 70
    0
  3
Center (2x) ________  __  ________  __  _____
 72
   65
 73
    4
 40
101.6
 49
63.5
 74
    0
 49
-12.7
 74
    0
 49
12.7
 74
    0
 49
-12.7
 74
    0
  0
ENDTAB
  0
TABLE
  2
LAYER
  5
2
330
0
100
AcDbSymbolTable
 70
    1
  0
LAYER
  5
10
330
2
100
AcDbSymbolTableRecord
100
AcDbLayerTableRecord
  2
0
 70
    4
 62
    7
  6
CONTINUOUS
370
   35
390
F
  0
LAYER
  5
4A
330
2
100
AcDbSymbolTableRecord
100
AcDbLayerTableRecord
  2
dimensioning
 70
    0
 62
    5
  6
CONTINUOUS
370
   25
390
F
  0
ENDTAB
  0
TABLE
  2
STYLE
  5
3
330
0
100
AcDbSymbolTable
 70
    3
  0
STYLE
  5
4B
330
2
100
AcDbSymbolTableRecord
100
AcDbTextStyleTableRecord
  2
Standard
 70
    0
 40
0
 41
1
 50
0
 71
    0
 42
1
  3
txt
  4

  0
ENDTAB
  0
TABLE
  2
VIEW
  5
6
330
0
100
AcDbSymbolTable
 70
    0
  0
ENDTAB
  0
TABLE
  2
UCS
  5
7
330
0
100
AcDbSymbolTable
 70
    0
  0
ENDTAB
  0
TABLE
  2
APPID
  5
9
330
0
100
AcDbSymbolTable
 70
    1
  0
APPID
  5
12
330
9
100
AcDbSymbolTableRecord
100
AcDbRegAppTableRecord
  2
ACAD
 70
    0
  0
APPID
  5
4C
330
9
100
AcDbSymbolTableRecord
100
AcDbRegAppTableRecord
  2
LibreCad
 70
    0
  0
ENDTAB
  0
TABLE
  2
DIMSTYLE
  5
A
330
0
100
AcDbSymbolTable
 70
    1
100
AcDbDimStyleTable
 71
    1
  0
DIMSTYLE
105
4D
330
A
100
AcDbSymbolTableRecord
100
AcDbDimStyleTableRecord
  2
Standard
 70
    0
 40
1
 41
2.5
 42
0.625
 43
0.38
 44
1.25
 45
0
 46
0
 47
0
 48
0
 49
1
140
2.5
141
0.09
142
0
143
25.4
144
1
145
0
146
1
147
0.625
148
0
 71
    0
 72
    0
 73
    0
 74
    1
 75
    0
 76
    0
 77
    0
 78
    1
 79
    0
170
    0
171
    2
172
    0
173
    0
174
    0
175
    0
176
    0
177
    0
178
    0
179
    1
271
    1
272
    4
273
    2
274
    2
275
    0
276
    0
277
    2
278
    0
279
    0
280
    0
281
    0
282
    0
283
    1
284
    0
285
    0
286
    0
288
    0
289
    3
340
standard
341

371
   -2
372
   -2
  0
ENDTAB
  0
TABLE
  2
BLOCK_RECORD
  5
1
330
0
100
AcDbSymbolTable
 70
    2
  0
BLOCK_RECORD
  5
1F
330
1
100
AcDbSymbolTableRecord
100
AcDbBlockTableRecord
  2
*Model_Space
 70
    0
280
    1
281
    0
  0
BLOCK_RECORD
  5
1E
330
1
100
AcDbSymbolTableRecord
100
AcDbBlockTableRecord
  2
*Paper_Space
 70
    0
280
    1
281
    0
  0
BLOCK_RECORD
  5
4E
330
1
100
AcDbSymbolTableRecord
100
AcDbBlockTableRecord
  2
*D8
 70
    0
280
    1
281
    0
  0
BLOCK_RECORD
  5
51
330
1
100
AcDbSymbolTableRecord
100
AcDbBlockTableRecord
  2
*D4
 70
    0
280
    1
281
    0
  0
BLOCK_RECORD
  5
54
330
1
100
AcDbSymbolTableRecord
100
AcDbBlockTableRecord
  2
*D9
 70
    0
280
    1
281
    0
  0
BLOCK_RECORD
  5
57
330
1
100
AcDbSymbolTableRecord
100
AcDbBlockTableRecord
  2
*D6
 70
    0
280
    1
281
    0
  0
BLOCK_RECORD
  5
5A
330
1
100
AcDbSymbolTableRecord
100
AcDbBlockTableRecord
  2
*D13
 70
    0
280
    1
281
    0
  0
BLOCK_RECORD
  5
5D
330
1
100
AcDbSymbolTableRecord
100
AcDbBlockTableRecord
  2
*D2
 70
    0
280
    1
281
    0
  0
BLOCK_RECORD
  5
60
330
1
100
AcDbSymbolTableRecord
100
AcDbBlockTableRecord
  2
*D12
 70
    0
280
    1
281
    0
  0
BLOCK_RECORD
  5
63
330
1
100
AcDbSymbolTableRecord
100
AcDbBlockTableRecord
  2
*D1
 70
    0
280
    1
281
    0
  0
BLOCK_RECORD
  5
66
330
1
100
AcDbSymbolTableRecord
100
AcDbBlockTableRecord
  2
*D5
 70
    0
280
    1
281
    0
  0
BLOCK_RECORD
  5
69
330
1
100
AcDbSymbolTableRecord
100
AcDbBlockTableRecord
  2
*D7
 70
    0
280
    1
281
    0
  0
BLOCK_RECORD
  5
6C
330
1
100
AcDbSymbolTableRecord
100
AcDbBlockTableRecord
  2
*D11
 70
    0
280
    1
281
    0
  0
BLOCK_RECORD
  5
6F
330
1
100
AcDbSymbolTableRecord
100
AcDbBlockTableRecord
  2
*D17
 70
    0
280
    1
281
    0
  0
BLOCK_RECORD
  5
72
330
1
100
AcDbSymbolTableRecord
100
AcDbBlockTableRecord
  2
*D10
 70
    0
280
    1
281
    0
  0
BLOCK_RECORD
  5
75
330
1
100
AcDbSymbolTableRecord
100
AcDbBlockTableRecord
  2
*D15
 70
    0
280
    1
281
    0
  0
BLOCK_RECORD
  5
78
330
1
100
AcDbSymbolTableRecord
100
AcDbBlockTableRecord
  2
*D16
 70
    0
280
    1
281
    0
  0
BLOCK_RECORD
  5
7B
330
1
100
AcDbSymbolTableRecord
100
AcDbBlockTableRecord
  2
*D14
 70
    0
280
    1
281
    0
  0
BLOCK_RECORD
  5
7E
330
1
100
AcDbSymbolTableRecord
100
AcDbBlockTableRecord
  2
*D3
 70
    0
280
    1
281
    0
  0
ENDTAB
  0
ENDSEC
  0
SECTION
  2
BLOCKS
  0
BLOCK
  5
20
330
1F
100
AcDbEntity
  8
0
100
AcDbBlockBegin
  2
*Model_Space
 70
    0
 10
0
 20
0
 30
0
  3
*Model_Space
  1

  0
ENDBLK
  5
21
330
1F
100
AcDbEntity
  8
0
100
AcDbBlockEnd
  0
BLOCK
  5
1C
330
1B
100
AcDbEntity
  8
0
100
AcDbBlockBegin
  2
*Paper_Space
 70
    0
 10
0
 20
0
 30
0
  3
*Paper_Space
  1

  0
ENDBLK
  5
1D
330
1F
100
AcDbEntity
  8
0
100
AcDbBlockEnd
  0
BLOCK
  5
4F
330
4E
100
AcDbEntity
  8
0
100
AcDbBlockBegin
  2
*D8
 70
    1
 10
0
 20
0
  3
*D8
  1

  0
LINE
  5
81
100
AcDbEntity
  8
dimensioning
  6
ByBlock
 62
    0
370
   -2
100
AcDbLine
 10
15
 20
-14
 11
138
 21
-14
  0
SOLID
  5
82
100
AcDbEntity
  8
dimensioning
  6
ByBlock
 62
    0
370
   -2
100
AcDbTrace
 10
15
 20
-14
 30
0
 11
17.5
 21
-13.58371534222716
 31
0
 12
17.5
 22
-14.41628465777284
 32
0
 13
17.5
 23
-14.41628465777284
 33
0
  0
SOLID
  5
83
100
AcDbEntity
  8
dimensioning
  6
ByBlock
 62
    0
370
   -2
100
AcDbTrace
 10
138
 20
-14
 30
0
 11
135.5
 21
-14.41628465777284
 31
0
 12
135.5
 22
-13.58371534222716
 32
0
 13
135.5
 23
-13.58371534222716
 33
0
  0
MTEXT
  5
84
100
AcDbEntity
  8
dimensioning
  6
CONTINUOUS
 62
    0
370
   -2
100
AcDbMText
 10
76.5
 20
-12.125
 30
0
 40
2.5
 41
7.222222222222378
 71
    5
 72
    1
  1
123.0
  7
standard
210
0
220
0
230
1
 50
0
 73
    2
 44
1
  0
LINE
  5
85
100
AcDbEntity
  8
dimensioning
  6
ByBlock
 62
    0
370
   -2
100
AcDbLine
 10
15
 20
10.875
 11
15
 21
-15.25
  0
LINE
  5
86
100
AcDbEntity
  8
dimensioning
  6
ByBlock
 62
    0
370
   -2
100
AcDbLine
 10
138
 20
10.975
 11
138
 21
-15.25
  0
ENDBLK
  5
50
330
4E
100
AcDbEntity
  8
0
100
AcDbBlockEnd
  0
BLOCK
  5
52
330
51
100
AcDbEntity
  8
0
100
AcDbBlockBegin
  2
*D4
 70
    1
 10
0
 20
0
  3
*D4
  1

  0
LINE
  5
87
100
AcDbEntity
  8
dimensioning
  6
ByBlock
 62
    0
370
   -2
100
AcDbLine
 10
311.7339602048008
 20
36.53204590741867
 11
311.7339602048008
 21
48.03204590741867
  0
SOLID
  5
88
100
AcDbEntity
  8
dimensioning
  6
ByBlock
 62
    0
370
   -2
100
AcDbTrace
 10
311.7339602048008
 20
41.53204590741867
 30
0
 11
312.1502448625736
 21
39.03204590741867
 31
0
 12
311.3176755470279
 22
39.03204590741867
 32
0
 13
311.3176755470279
 23
39.03204590741867
 33
0
  0
SOLID
  5
89
100
AcDbEntity
  8
dimensioning
  6
ByBlock
 62
    0
370
   -2
100
AcDbTrace
 10
311.7339602048008
 20
43.03204590741867
 30
0
 11
311.3176755470279
 21
45.53204590741867
 31
0
 12
312.1502448625736
 22
45.53204590741867
 32
0
 13
312.1502448625736
 23
45.53204590741867
 33
0
  0
MTEXT
  5
8A
100
AcDbEntity
  8
dimensioning
  6
CONTINUOUS
 62
    0
370
   -2
100
AcDbMText
 10
309.8589602048008
 20
45.32371257408541
 30
0
 40
2.5
 41
3.333333333333488
 71
    5
 72
    1
  1
1.5
  7
standard
210
0
220
0
230
1
 50
90
 73
    2
 44
1
  0
LINE
  5
8B
100
AcDbEntity
  8
dimensioning
  6
ByBlock
 62
    0
370
   -2
100
AcDbLine
 10
293.0929540925814
 20
41.53204590741867
 11
312.9839602048008
 21
41.53204590741867
  0
LINE
  5
8C
100
AcDbEntity
  8
dimensioning
  6
ByBlock
 62
    0
370
   -2
100
AcDbLine
 10
293.0929540925814
 20
43.03204590741867
 11
312.9839602048008
 21
43.03204590741867
  0
ENDBLK
  5
53
330
51
100
AcDbEntity
  8
0
100
AcDbBlockEnd
  0
BLOCK
  5
55
330
54
100
AcDbEntity
  8
0
100
AcDbBlockBegin
  2
*D9
 70
    1
 10
0
 20
0
  3
*D9
  1

  0
LINE
  5
8D
100
AcDbEntity
  8
dimensioning
  6
ByBlock
 62
    0
370
   -2
100
AcDbLine
 10
210
 20
-14
 11
200
 21
-14
  0
SOLID
  5
8E
100
AcDbEntity
  8
dimensioning
  6
ByBlock
 62
    0
370
   -2
100
AcDbTrace
 10
210
 20
-14
 30
0
 11
207.5
 21
-14.41628465777284
 31
0
 12
207.5
 22
-13.58371534222716
 32
0
 13
207.5
 23
-13.58371534222716
 33
0
  0
SOLID
  5
8F
100
AcDbEntity
  8
dimensioning
  6
ByBlock
 62
    0
370
   -2
100
AcDbTrace
 10
200
 20
-14
 30
0
 11
202.5
 21
-13.58371534222716
 31
0
 12
202.5
 22
-14.41628465777284
 32
0
 13
202.5
 23
-14.41628465777284
 33
0
  0
MTEXT
  5
90
100
AcDbEntity
  8
dimensioning
  6
CONTINUOUS
 62
    0
370
   -2
100
AcDbMText
 10
205
 20
-12.125
 30
0
 40
2.5
 41
5.277777777777778
 71
    5
 72
    1
  1
10.0
  7
standard
210
0
220
0
230
1
 50
360
 73
    2
 44
1
  0
LINE
  5
91
100
AcDbEntity
  8
dimensioning
  6
ByBlock
 62
    0
370
   -2
100
AcDbLine
 10
210
 20
9.375
 11
210
 21
-15.25
  0
LINE
  5
92
100
AcDbEntity
  8
dimensioning
  6
ByBlock
 62
    0
370
   -2
100
AcDbLine
 10
200
 20
9.375
 11
200
 21
-15.25
  0
ENDBLK
  5
56
330
54
100
AcDbEntity
  8
0
100
AcDbBlockEnd
  0
BLOCK
  5
58
330
57
100
AcDbEntity
  8
0
100
AcDbBlockBegin
  2
*D6
 70
    1
 10
0
 20
0
  3
*D6
  1

  0
LINE
  5
93
100
AcDbEntity
  8
dimensioning
  6
ByBlock
 62
    0
370
   -2
100
AcDbLine
 10
146.5
 20
37.79556890803399
 11
159.5
 21
37.79556890803399
  0
SOLID
  5
94
100
AcDbEntity
  8
dimensioning
  6
ByBlock
 62
    0
370
   -2
100
AcDbTrace
 10
151.5
 20
37.79556890803399
 30
0
 11
149
 21
37.37928425026115
 31
0
 12
149
 22
38.21185356580683
 32
0
 13
149
 23
38.21185356580683
 33
0
  0
SOLID
  5
95
100
AcDbEntity
  8
dimensioning
  6
ByBlock
 62
    0
370
   -2
100
AcDbTrace
 10
154.5
 20
37.79556890803399
 30
0
 11
157
 21
38.21185356580683
 31
0
 12
157
 22
37.37928425026115
 32
0
 13
157
 23
37.37928425026115
 33
0
  0
MTEXT
  5
96
100
AcDbEntity
  8
dimensioning
  6
CONTINUOUS
 62
    0
370
   -2
100
AcDbMText
 10
157.0694444444445
 20
39.67056890803399
 30
0
 40
2.5
 41
3.888888888889044
 71
    5
 72
    1
  1
3.0
  7
standard
210
0
220
0
230
1
 50
0
 73
    2
 44
1
  0
LINE
  5
97
100
AcDbEntity
  8
dimensioning
  6
ByBlock
 62
    0
370
   -2
100
AcDbLine
 10
151.5
 20
33.625
 11
151.5
 21
39.04556890803399
  0
LINE
  5
98
100
AcDbEntity
  8
dimensioning
  6
ByBlock
 62
    0
370
   -2
100
AcDbLine
 10
154.5
 20
33.625
 11
154.5
 21
39.04556890803399
  0
ENDBLK
  5
59
330
57
100
AcDbEntity
  8
0
100
AcDbBlockEnd
  0
BLOCK
  5
5B
330
5A
100
AcDbEntity
  8
0
100
AcDbBlockBegin
  2
*D13
 70
    1
 10
0
 20
0
  3
*D13
  1

  0
LINE
  5
99
100
AcDbEntity
  8
dimensioning
  6
ByBlock
 62
    0
370
   -2
100
AcDbLine
 10
-22
 20
0
 11
-22
 21
43
  0
SOLID
  5
9A
100
AcDbEntity
  8
dimensioning
  6
ByBlock
 62
    0
370
   -2
100
AcDbTrace
 10
-22
 20
0
 30
0
 11
-22.41628465777285
 21
2.5
 31
0
 12
-21.58371534222716
 22
2.5
 32
0
 13
-21.58371534222716
 23
2.5
 33
0
  0
SOLID
  5
9B
100
AcDbEntity
  8
dimensioning
  6
ByBlock
 62
    0
370
   -2
100
AcDbTrace
 10
-22
 20
43
 30
0
 11
-21.58371534222716
 21
40.5
 31
0
 12
-22.41628465777284
 22
40.5
 32
0
 13
-22.41628465777284
 23
40.5
 33
0
  0
MTEXT
  5
9C
100
AcDbEntity
  8
dimensioning
  6
CONTINUOUS
 62
    0
370
   -2
100
AcDbMText
 10
-23.875
 20
21.5
 30
0
 40
2.5
 41
6.111111111111267
 71
    5
 72
    1
  1
43.0
  7
standard
210
0
220
0
230
1
 50
90
 73
    2
 44
1
  0
LINE
  5
9D
100
AcDbEntity
  8
dimensioning
  6
ByBlock
 62
    0
370
   -2
100
AcDbLine
 10
-0.625
 20
7.653789711389858e-017
 11
-23.25
 21
1.530757942277972e-016
  0
LINE
  5
9E
100
AcDbEntity
  8
dimensioning
  6
ByBlock
 62
    0
370
   -2
100
AcDbLine
 10
-0.625
 20
43
 11
-23.25
 21
43
  0
ENDBLK
  5
5C
330
5A
100
AcDbEntity
  8
0
100
AcDbBlockEnd
  0
BLOCK
  5
5E
330
5D
100
AcDbEntity
  8
0
100
AcDbBlockBegin
  2
*D2
 70
    1
 10
0
 20
0
  3
*D2
  1

  0
LINE
  5
9F
100
AcDbEntity
  8
dimensioning
  6
ByBlock
 62
    0
370
   -2
100
AcDbLine
 10
269.9679540925814
 20
58.20838835089643
 11
292.4679540925814
 21
58.20838835089643
  0
SOLID
  5
A0
100
AcDbEntity
  8
dimensioning
  6
ByBlock
 62
    0
370
   -2
100
AcDbTrace
 10
269.9679540925814
 20
58.20838835089643
 30
0
 11
272.4679540925814
 21
58.62467300866927
 31
0
 12
272.4679540925814
 22
57.79210369312359
 32
0
 13
272.4679540925814
 23
57.79210369312359
 33
0
  0
SOLID
  5
A1
100
AcDbEntity
  8
dimensioning
  6
ByBlock
 62
    0
370
   -2
100
AcDbTrace
 10
292.4679540925814
 20
58.20838835089643
 30
0
 11
289.9679540925814
 21
57.79210369312359
 31
0
 12
289.9679540925814
 22
58.62467300866927
 32
0
 13
289.9679540925814
 23
58.62467300866927
 33
0
  0
MTEXT
  5
A2
100
AcDbEntity
  8
dimensioning
  6
CONTINUOUS
 62
    0
370
   -2
100
AcDbMText
 10
281.2179540925814
 20
60.08338835089643
 30
0
 40
2.5
 41
5.833333333333488
 71
    5
 72
    1
  1
22.5
  7
standard
210
0
220
0
230
1
 50
0
 73
    2
 44
1
  0
LINE
  5
A3
100
AcDbEntity
  8
dimensioning
  6
ByBlock
 62
    0
370
   -2
100
AcDbLine
 10
269.9679540925814
 20
43.65704590741867
 11
269.9679540925814
 21
59.45838835089643
  0
LINE
  5
A4
100
AcDbEntity
  8
dimensioning
  6
ByBlock
 62
    0
370
   -2
100
AcDbLine
 10
292.4679540925814
 20
43.65704590741867
 11
292.4679540925814
 21
59.45838835089643
  0
ENDBLK
  5
5F
330
5D
100
AcDbEntity
  8
0
100
AcDbBlockEnd
  0
BLOCK
  5
61
330
60
100
AcDbEntity
  8
0
100
AcDbBlockBegin
  2
*D12
 70
    1
 10
0
 20
0
  3
*D12
  1

  0
LINE
  5
A5
100
AcDbEntity
  8
dimensioning
  6
ByBlock
 62
    0
370
   -2
100
AcDbLine
 10
15
 20
-14
 11
2.775557561562891e-017
 21
-14
  0
SOLID
  5
A6
100
AcDbEntity
  8
dimensioning
  6
ByBlock
 62
    0
370
   -2
100
AcDbTrace
 10
15
 20
-14
 30
0
 11
12.5
 21
-14.41628465777284
 31
0
 12
12.5
 22
-13.58371534222716
 32
0
 13
12.5
 23
-13.58371534222716
 33
0
  0
SOLID
  5
A7
100
AcDbEntity
  8
dimensioning
  6
ByBlock
 62
    0
370
   -2
100
AcDbTrace
 10
2.775557561562891e-017
 20
-14
 30
0
 11
2.5
 21
-13.58371534222716
 31
0
 12
2.5
 22
-14.41628465777284
 32
0
 13
2.5
 23
-14.41628465777284
 33
0
  0
MTEXT
  5
A8
100
AcDbEntity
  8
dimensioning
  6
CONTINUOUS
 62
    0
370
   -2
100
AcDbMText
 10
7.500000000000002
 20
-12.125
 30
0
 40
2.5
 41
5.277777777777933
 71
    5
 72
    1
  1
15.0
  7
standard
210
0
220
0
230
1
 50
360
 73
    2
 44
1
  0
LINE
  5
A9
100
AcDbEntity
  8
dimensioning
  6
ByBlock
 62
    0
370
   -2
100
AcDbLine
 10
15
 20
10.875
 11
15
 21
-15.25
  0
LINE
  5
AA
100
AcDbEntity
  8
dimensioning
  6
ByBlock
 62
    0
370
   -2
100
AcDbLine
 10
-8.705127005521895e-017
 20
10.875
 11
-2.018581157260668e-016
 21
-15.25
  0
ENDBLK
  5
62
330
60
100
AcDbEntity
  8
0
100
AcDbBlockEnd
  0
BLOCK
  5
64
330
63
100
AcDbEntity
  8
0
100
AcDbBlockBegin
  2
*D1
 70
    1
 10
0
 20
0
  3
*D1
  1

  0
LINE
  5
AB
100
AcDbEntity
  8
dimensioning
  6
ByBlock
 62
    0
370
   -2
100
AcDbLine
 10
0
 20
58.20838835089643
 11
210
 21
58.20838835089643
  0
SOLID
  5
AC
100
AcDbEntity
  8
dimensioning
  6
ByBlock
 62
    0
370
   -2
100
AcDbTrace
 10
0
 20
58.20838835089643
 30
0
 11
2.5
 21
58.62467300866927
 31
0
 12
2.5
 22
57.79210369312359
 32
0
 13
2.5
 23
57.79210369312359
 33
0
  0
SOLID
  5
AD
100
AcDbEntity
  8
dimensioning
  6
ByBlock
 62
    0
370
   -2
100
AcDbTrace
 10
210
 20
58.20838835089643
 30
0
 11
207.5
 21
57.79210369312359
 31
0
 12
207.5
 22
58.62467300866927
 32
0
 13
207.5
 23
58.62467300866927
 33
0
  0
MTEXT
  5
AE
100
AcDbEntity
  8
dimensioning
  6
CONTINUOUS
 62
    0
370
   -2
100
AcDbMText
 10
105
 20
60.08338835089643
 30
0
 40
2.5
 41
7.222222222222222
 71
    5
 72
    1
  1
210.0
  7
standard
210
0
220
0
230
1
 50
0
 73
    2
 44
1
  0
LINE
  5
AF
100
AcDbEntity
  8
dimensioning
  6
ByBlock
 62
    0
370
   -2
100
AcDbLine
 10
3.826894855694929e-017
 20
43.625
 11
7.653789711389858e-017
 21
59.45838835089643
  0
LINE
  5
B0
100
AcDbEntity
  8
dimensioning
  6
ByBlock
 62
    0
370
   -2
100
AcDbLine
 10
210
 20
43.625
 11
210
 21
59.45838835089643
  0
ENDBLK
  5
65
330
63
100
AcDbEntity
  8
0
100
AcDbBlockEnd
  0
BLOCK
  5
67
330
66
100
AcDbEntity
  8
0
100
AcDbBlockBegin
  2
*D5
 70
    1
 10
0
 20
0
  3
*D5
  1

  0
LINE
  5
B1
100
AcDbEntity
  8
dimensioning
  6
ByBlock
 62
    0
370
   -2
100
AcDbLine
 10
271.4679540925814
 20
-15.0839013002323
 11
292.4679540925814
 21
-15.0839013002323
  0
SOLID
  5
B2
100
AcDbEntity
  8
dimensioning
  6
ByBlock
 62
    0
370
   -2
100
AcDbTrace
 10
271.4679540925814
 20
-15.0839013002323
 30
0
 11
273.9679540925814
 21
-14.66761664245946
 31
0
 12
273.9679540925814
 22
-15.50018595800514
 32
0
 13
273.9679540925814
 23
-15.50018595800514
 33
0
  0
SOLID
  5
B3
100
AcDbEntity
  8
dimensioning
  6
ByBlock
 62
    0
370
   -2
100
AcDbTrace
 10
292.4679540925814
 20
-15.0839013002323
 30
0
 11
289.9679540925814
 21
-15.50018595800514
 31
0
 12
289.9679540925814
 22
-14.66761664245946
 32
0
 13
289.9679540925814
 23
-14.66761664245946
 33
0
  0
MTEXT
  5
B4
100
AcDbEntity
  8
dimensioning
  6
CONTINUOUS
 62
    0
370
   -2
100
AcDbMText
 10
281.9679540925814
 20
-13.2089013002323
 30
0
 40
2.5
 41
5.277777777777778
 71
    5
 72
    1
  1
21.0
  7
standard
210
0
220
0
230
1
 50
0
 73
    2
 44
1
  0
LINE
  5
B5
100
AcDbEntity
  8
dimensioning
  6
ByBlock
 62
    0
370
   -2
100
AcDbLine
 10
271.4679540925814
 20
0.9070459074186685
 11
271.4679540925814
 21
-16.3339013002323
  0
LINE
  5
B6
100
AcDbEntity
  8
dimensioning
  6
ByBlock
 62
    0
370
   -2
100
AcDbLine
 10
292.4679540925814
 20
0.9070459074186685
 11
292.4679540925814
 21
-16.3339013002323
  0
ENDBLK
  5
68
330
66
100
AcDbEntity
  8
0
100
AcDbBlockEnd
  0
BLOCK
  5
6A
330
69
100
AcDbEntity
  8
0
100
AcDbBlockBegin
  2
*D7
 70
    1
 10
0
 20
0
  3
*D7
  1

  0
LINE
  5
B7
100
AcDbEntity
  8
dimensioning
  6
ByBlock
 62
    0
370
   -2
100
AcDbLine
 10
200
 20
-14
 11
153
 21
-14
  0
SOLID
  5
B8
100
AcDbEntity
  8
dimensioning
  6
ByBlock
 62
    0
370
   -2
100
AcDbTrace
 10
200
 20
-14
 30
0
 11
197.5
 21
-14.41628465777284
 31
0
 12
197.5
 22
-13.58371534222716
 32
0
 13
197.5
 23
-13.58371534222716
 33
0
  0
SOLID
  5
B9
100
AcDbEntity
  8
dimensioning
  6
ByBlock
 62
    0
370
   -2
100
AcDbTrace
 10
153
 20
-14
 30
0
 11
155.5
 21
-13.58371534222716
 31
0
 12
155.5
 22
-14.41628465777284
 32
0
 13
155.5
 23
-14.41628465777284
 33
0
  0
MTEXT
  5
BA
100
AcDbEntity
  8
dimensioning
  6
CONTINUOUS
 62
    0
370
   -2
100
AcDbMText
 10
176.5
 20
-12.125
 30
0
 40
2.5
 41
6.111111111111112
 71
    5
 72
    1
  1
47.0
  7
standard
210
0
220
0
230
1
 50
360
 73
    2
 44
1
  0
LINE
  5
BB
100
AcDbEntity
  8
dimensioning
  6
ByBlock
 62
    0
370
   -2
100
AcDbLine
 10
200
 20
9.375
 11
200
 21
-15.25
  0
LINE
  5
BC
100
AcDbEntity
  8
dimensioning
  6
ByBlock
 62
    0
370
   -2
100
AcDbLine
 10
153
 20
9.375
 11
153
 21
-15.25
  0
ENDBLK
  5
6B
330
69
100
AcDbEntity
  8
0
100
AcDbBlockEnd
  0
BLOCK
  5
6D
330
6C
100
AcDbEntity
  8
0
100
AcDbBlockBegin
  2
*D11
 70
    1
 10
0
 20
0
  3
*D11
  1

  0
LINE
  5
BD
100
AcDbEntity
  8
dimensioning
  6
ByBlock
 62
    0
370
   -2
100
AcDbLine
 10
230
 20
36.50000000000001
 11
230
 21
43
  0
SOLID
  5
BE
100
AcDbEntity
  8
dimensioning
  6
ByBlock
 62
    0
370
   -2
100
AcDbTrace
 10
230
 20
36.50000000000001
 30
0
 11
229.5837153422272
 21
39.00000000000001
 31
0
 12
230.4162846577728
 22
39.00000000000001
 32
0
 13
230.4162846577728
 23
39.00000000000001
 33
0
  0
SOLID
  5
BF
100
AcDbEntity
  8
dimensioning
  6
ByBlock
 62
    0
370
   -2
100
AcDbTrace
 10
230
 20
43
 30
0
 11
230.4162846577728
 21
40.5
 31
0
 12
229.5837153422272
 22
40.5
 32
0
 13
229.5837153422272
 23
40.5
 33
0
  0
MTEXT
  5
C0
100
AcDbEntity
  8
dimensioning
  6
CONTINUOUS
 62
    0
370
   -2
100
AcDbMText
 10
228.125
 20
39.75
 30
0
 40
2.5
 41
3.888888888889199
 71
    5
 72
    1
  1
6.5
  7
standard
210
0
220
0
230
1
 50
90
 73
    2
 44
1
  0
LINE
  5
C1
100
AcDbEntity
  8
dimensioning
  6
ByBlock
 62
    0
370
   -2
100
AcDbLine
 10
205.625
 20
36.50000000000001
 11
231.25
 21
36.50000000000001
  0
LINE
  5
C2
100
AcDbEntity
  8
dimensioning
  6
ByBlock
 62
    0
370
   -2
100
AcDbLine
 10
205.625
 20
43
 11
231.25
 21
43
  0
ENDBLK
  5
6E
330
6C
100
AcDbEntity
  8
0
100
AcDbBlockEnd
  0
BLOCK
  5
70
330
6F
100
AcDbEntity
  8
0
100
AcDbBlockBegin
  2
*D17
 70
    1
 10
0
 20
0
  3
*D17
  1

  0
LINE
  5
C3
100
AcDbEntity
  8
dimensioning
  6
ByBlock
 62
    0
370
   -2
100
AcDbLine
 10
190
 20
9.999999999999998
 11
190
 21
0
  0
SOLID
  5
C4
100
AcDbEntity
  8
dimensioning
  6
ByBlock
 62
    0
370
   -2
100
AcDbTrace
 10
190
 20
9.999999999999998
 30
0
 11
190.4162846577728
 21
7.499999999999998
 31
0
 12
189.5837153422272
 22
7.499999999999998
 32
0
 13
189.5837153422272
 23
7.499999999999998
 33
0
  0
SOLID
  5
C5
100
AcDbEntity
  8
dimensioning
  6
ByBlock
 62
    0
370
   -2
100
AcDbTrace
 10
190
 20
0
 30
0
 11
189.5837153422272
 21
2.5
 31
0
 12
190.4162846577728
 22
2.5
 32
0
 13
190.4162846577728
 23
2.5
 33
0
  0
MTEXT
  5
C6
100
AcDbEntity
  8
dimensioning
  6
CONTINUOUS
 62
    0
370
   -2
100
AcDbMText
 10
188.125
 20
4.999999999999999
 30
0
 40
2.5
 41
5.277777777777778
 71
    5
 72
    1
  1
10.0
  7
standard
210
0
220
0
230
1
 50
90
 73
    2
 44
1
  0
LINE
  5
C7
100
AcDbEntity
  8
dimensioning
  6
ByBlock
 62
    0
370
   -2
100
AcDbLine
 10
199.375
 20
10
 11
188.75
 21
9.999999999999998
  0
LINE
  5
C8
100
AcDbEntity
  8
dimensioning
  6
ByBlock
 62
    0
370
   -2
100
AcDbLine
 10
199.375
 20
7.653789711389858e-017
 11
188.75
 21
1.530757942277972e-016
  0
ENDBLK
  5
71
330
6F
100
AcDbEntity
  8
0
100
AcDbBlockEnd
  0
BLOCK
  5
73
330
72
100
AcDbEntity
  8
0
100
AcDbBlockBegin
  2
*D10
 70
    1
 10
0
 20
0
  3
*D10
  1

  0
LINE
  5
C9
100
AcDbEntity
  8
dimensioning
  6
ByBlock
 62
    0
370
   -2
100
AcDbLine
 10
200
 20
50
 11
215
 21
50
  0
SOLID
  5
CA
100
AcDbEntity
  8
dimensioning
  6
ByBlock
 62
    0
370
   -2
100
AcDbTrace
 10
205
 20
50
 30
0
 11
202.5
 21
49.58371534222716
 31
0
 12
202.5
 22
50.41628465777284
 32
0
 13
202.5
 23
50.41628465777284
 33
0
  0
SOLID
  5
CB
100
AcDbEntity
  8
dimensioning
  6
ByBlock
 62
    0
370
   -2
100
AcDbTrace
 10
210
 20
50
 30
0
 11
212.5
 21
50.41628465777284
 31
0
 12
212.5
 22
49.58371534222716
 32
0
 13
212.5
 23
49.58371534222716
 33
0
  0
MTEXT
  5
CC
100
AcDbEntity
  8
dimensioning
  6
CONTINUOUS
 62
    0
370
   -2
100
AcDbMText
 10
207.5
 20
51.875
 30
0
 40
2.5
 41
3.888888888889044
 71
    5
 72
    1
  1
5.0
  7
standard
210
0
220
0
230
1
 50
0
 73
    2
 44
1
  0
LINE
  5
CD
100
AcDbEntity
  8
dimensioning
  6
ByBlock
 62
    0
370
   -2
100
AcDbLine
 10
205
 20
37.125
 11
205
 21
51.25
  0
LINE
  5
CE
100
AcDbEntity
  8
dimensioning
  6
ByBlock
 62
    0
370
   -2
100
AcDbLine
 10
210
 20
37.125
 11
210
 21
51.25
  0
ENDBLK
  5
74
330
72
100
AcDbEntity
  8
0
100
AcDbBlockEnd
  0
BLOCK
  5
76
330
75
100
AcDbEntity
  8
0
100
AcDbBlockBegin
  2
*D15
 70
    1
 10
0
 20
0
  3
*D15
  1

  0
LINE
  5
CF
100
AcDbEntity
  8
dimensioning
  6
ByBlock
 62
    0
370
   -2
100
AcDbLine
 10
29
 20
11.5
 11
29
 21
31.5
  0
SOLID
  5
D0
100
AcDbEntity
  8
dimensioning
  6
ByBlock
 62
    0
370
   -2
100
AcDbTrace
 10
29
 20
11.5
 30
0
 11
28.58371534222716
 21
14
 31
0
 12
29.41628465777284
 22
14
 32
0
 13
29.41628465777284
 23
14
 33
0
  0
SOLID
  5
D1
100
AcDbEntity
  8
dimensioning
  6
ByBlock
 62
    0
370
   -2
100
AcDbTrace
 10
29
 20
31.5
 30
0
 11
29.41628465777284
 21
29
 31
0
 12
28.58371534222716
 22
29
 32
0
 13
28.58371534222716
 23
29
 33
0
  0
MTEXT
  5
D2
100
AcDbEntity
  8
dimensioning
  6
CONTINUOUS
 62
    0
370
   -2
100
AcDbMText
 10
27.125
 20
21.5
 30
0
 40
2.5
 41
5.833333333333334
 71
    5
 72
    1
  1
20.0
  7
standard
210
0
220
0
230
1
 50
90
 73
    2
 44
1
  0
LINE
  5
D3
100
AcDbEntity
  8
dimensioning
  6
ByBlock
 62
    0
370
   -2
100
AcDbLine
 10
15.625
 20
11.5
 11
30.25
 21
11.5
  0
LINE
  5
D4
100
AcDbEntity
  8
dimensioning
  6
ByBlock
 62
    0
370
   -2
100
AcDbLine
 10
15.625
 20
31.5
 11
30.25
 21
31.5
  0
ENDBLK
  5
77
330
75
100
AcDbEntity
  8
0
100
AcDbBlockEnd
  0
BLOCK
  5
79
330
78
100
AcDbEntity
  8
0
100
AcDbBlockBegin
  2
*D16
 70
    1
 10
0
 20
0
  3
*D16
  1

  0
LINE
  5
D5
100
AcDbEntity
  8
dimensioning
  6
ByBlock
 62
    0
370
   -2
100
AcDbLine
 10
29
 20
31.5
 11
29
 21
43
  0
SOLID
  5
D6
100
AcDbEntity
  8
dimensioning
  6
ByBlock
 62
    0
370
   -2
100
AcDbTrace
 10
29
 20
31.5
 30
0
 11
28.58371534222716
 21
34
 31
0
 12
29.41628465777284
 22
34
 32
0
 13
29.41628465777284
 23
34
 33
0
  0
SOLID
  5
D7
100
AcDbEntity
  8
dimensioning
  6
ByBlock
 62
    0
370
   -2
100
AcDbTrace
 10
29
 20
43
 30
0
 11
29.41628465777284
 21
40.5
 31
0
 12
28.58371534222716
 22
40.5
 32
0
 13
28.58371534222716
 23
40.5
 33
0
  0
MTEXT
  5
D8
100
AcDbEntity
  8
dimensioning
  6
CONTINUOUS
 62
    0
370
   -2
100
AcDbMText
 10
27.125
 20
37.25
 30
0
 40
2.5
 41
4.722222222222378
 71
    5
 72
    1
  1
11.5
  7
standard
210
0
220
0
230
1
 50
90
 73
    2
 44
1
  0
LINE
  5
D9
100
AcDbEntity
  8
dimensioning
  6
ByBlock
 62
    0
370
   -2
100
AcDbLine
 10
15.625
 20
31.5
 11
30.25
 21
31.5
  0
LINE
  5
DA
100
AcDbEntity
  8
dimensioning
  6
ByBlock
 62
    0
370
   -2
100
AcDbLine
 10
15.625
 20
43
 11
30.25
 21
43
  0
ENDBLK
  5
7A
330
78
100
AcDbEntity
  8
0
100
AcDbBlockEnd
  0
BLOCK
  5
7C
330
7B
100
AcDbEntity
  8
0
100
AcDbBlockBegin
  2
*D14
 70
    1
 10
0
 20
0
  3
*D14
  1

  0
LINE
  5
DB
100
AcDbEntity
  8
dimensioning
  6
ByBlock
 62
    0
370
   -2
100
AcDbLine
 10
190
 20
33
 11
190
 21
10
  0
SOLID
  5
DC
100
AcDbEntity
  8
dimensioning
  6
ByBlock
 62
    0
370
   -2
100
AcDbTrace
 10
190
 20
33
 30
0
 11
190.4162846577728
 21
30.5
 31
0
 12
189.5837153422272
 22
30.5
 32
0
 13
189.5837153422272
 23
30.5
 33
0
  0
SOLID
  5
DD
100
AcDbEntity
  8
dimensioning
  6
ByBlock
 62
    0
370
   -2
100
AcDbTrace
 10
190
 20
10
 30
0
 11
189.5837153422272
 21
12.5
 31
0
 12
190.4162846577728
 22
12.5
 32
0
 13
190.4162846577728
 23
12.5
 33
0
  0
MTEXT
  5
DE
100
AcDbEntity
  8
dimensioning
  6
CONTINUOUS
 62
    0
370
   -2
100
AcDbMText
 10
188.125
 20
21.5
 30
0
 40
2.5
 41
5.833333333333489
 71
    5
 72
    1
  1
23.0
  7
standard
210
0
220
0
230
1
 50
90
 73
    2
 44
1
  0
LINE
  5
DF
100
AcDbEntity
  8
dimensioning
  6
ByBlock
 62
    0
370
   -2
100
AcDbLine
 10
199.375
 20
33
 11
188.75
 21
33
  0
LINE
  5
E0
100
AcDbEntity
  8
dimensioning
  6
ByBlock
 62
    0
370
   -2
100
AcDbLine
 10
199.375
 20
10
 11
188.75
 21
10
  0
ENDBLK
  5
7D
330
7B
100
AcDbEntity
  8
0
100
AcDbBlockEnd
  0
BLOCK
  5
7F
330
7E
100
AcDbEntity
  8
0
100
AcDbBlockBegin
  2
*D3
 70
    1
 10
0
 20
0
  3
*D3
  1

  0
LINE
  5
E1
100
AcDbEntity
  8
dimensioning
  6
ByBlock
 62
    0
370
   -2
100
AcDbLine
 10
311.7339602048008
 20
41.53204590741868
 11
311.7339602048008
 21
1.532045907418669
  0
SOLID
  5
E2
100
AcDbEntity
  8
dimensioning
  6
ByBlock
 62
    0
370
   -2
100
AcDbTrace
 10
311.7339602048008
 20
41.53204590741868
 30
0
 11
312.1502448625736
 21
39.03204590741868
 31
0
 12
311.3176755470279
 22
39.03204590741868
 32
0
 13
311.3176755470279
 23
39.03204590741868
 33
0
  0
SOLID
  5
E3
100
AcDbEntity
  8
dimensioning
  6
ByBlock
 62
    0
370
   -2
100
AcDbTrace
 10
311.7339602048008
 20
1.532045907418669
 30
0
 11
311.3176755470279
 21
4.032045907418668
 31
0
 12
312.1502448625736
 22
4.032045907418668
 32
0
 13
312.1502448625736
 23
4.032045907418668
 33
0
  0
MTEXT
  5
E4
100
AcDbEntity
  8
dimensioning
  6
CONTINUOUS
 62
    0
370
   -2
100
AcDbMText
 10
309.8589602048008
 20
21.53204590741867
 30
0
 40
2.5
 41
6.111111111111112
 71
    5
 72
    1
  1
40.0
  7
standard
210
0
220
0
230
1
 50
90
 73
    2
 44
1
  0
LINE
  5
E5
100
AcDbEntity
  8
dimensioning
  6
ByBlock
 62
    0
370
   -2
100
AcDbLine
 10
293.0929540925814
 20
41.53204590741867
 11
312.9839602048008
 21
41.53204590741868
  0
LINE
  5
E6
100
AcDbEntity
  8
dimensioning
  6
ByBlock
 62
    0
370
   -2
100
AcDbLine
 10
293.0929540925814
 20
1.532045907418669
 11
312.9839602048008
 21
1.532045907418669
  0
ENDBLK
  5
80
330
7E
100
AcDbEntity
  8
0
100
AcDbBlockEnd
  0
ENDSEC
  0
SECTION
  2
ENTITIES
  0
LINE
  5
E7
100
AcDbEntity
  8
0
  6
ByLayer
 62
  256
370
   -1
100
AcDbLine
 10
0
 20
0
 11
210
 21
0
  0
LINE
  5
E8
100
AcDbEntity
  8
0
  6
ByLayer
 62
  256
370
   -1
100
AcDbLine
 10
210
 20
0
 11
210
 21
43
  0
LINE
  5
E9
100
AcDbEntity
  8
0
  6
ByLayer
 62
  256
370
   -1
100
AcDbLine
 10
210
 20
43
 11
0
 21
43
  0
LINE
  5
EA
100
AcDbEntity
  8
0
  6
ByLayer
 62
  256
370
   -1
100
AcDbLine
 10
0
 20
43
 11
0
 21
0
  0
LINE
  5
EB
100
AcDbEntity
  8
0
  6
ByLayer
 62
  256
370
   -1
100
AcDbLine
 10
3.5
 20
6.5
 11
3.51183
 21
6.688
  0
LINE
  5
EC
100
AcDbEntity
  8
0
  6
ByLayer
 62
  256
370
   -1
100
AcDbLine
 10
3.51183
 20
6.688
 11
3.54712
 21
6.87303
  0
LINE
  5
ED
100
AcDbEntity
  8
0
  6
ByLayer
 62
  256
370
   -1
100
AcDbLine
 10
3.54712
 20
6.87303
 11
3.60534
 21
7.05219
  0
LINE
  5
EE
100
AcDbEntity
  8
0
  6
ByLayer
 62
  256
370
   -1
100
AcDbLine
 10
3.60534
 20
7.05219
 11
3.68554
 21
7.22263
  0
LINE
  5
EF
100
AcDbEntity
  8
0
  6
ByLayer
 62
  256
370
   -1
100
AcDbLine
 10
3.68554
 20
7.22263
 11
3.78647
 21
7.38168
  0
LINE
  5
F0
100
AcDbEntity
  8
0
  6
ByLayer
 62
  256
370
   -1
100
AcDbLine
 10
3.78647
 20
7.38168
 11
3.90655
 21
7.52682
  0
LINE
  5
F1
100
AcDbEntity
  8
0
  6
ByLayer
 62
  256
370
   -1
100
AcDbLine
 10
3.90655
 20
7.52682
 11
4.04386
 21
7.65577
  0
LINE
  5
F2
100
AcDbEntity
  8
0
  6
ByLayer
 62
  256
370
   -1
100
AcDbLine
 10
4.04386
 20
7.65577
 11
4.19626
 21
7.76649
  0
LINE
  5
F3
100
AcDbEntity
  8
0
  6
ByLayer
 62
  256
370
   -1
100
AcDbLine
 10
4.19626
 20
7.76649
 11
4.36133
 21
7.85724
  0
LINE
  5
F4
100
AcDbEntity
  8
0
  6
ByLayer
 62
  256
370
   -1
100
AcDbLine
 10
4.36133
 20
7.85724
 11
4.53647
 21
7.92658
  0
LINE
  5
F5
100
AcDbEntity
  8
0
  6
ByLayer
 62
  256
370
   -1
100
AcDbLine
 10
4.53647
 20
7.92658
 11
4.71893
 21
7.97343
  0
LINE
  5
F6
100
AcDbEntity
  8
0
  6
ByLayer
 62
  256
370
   -1
100
AcDbLine
 10
4.71893
 20
7.97343
 11
4.90581
 21
7.99704
  0
LINE
  5
F7
100
AcDbEntity
  8
0
  6
ByLayer
 62
  256
370
   -1
100
AcDbLine
 10
4.90581
 20
7.99704
 11
5.09418
 21
7.99704
  0
LINE
  5
F8
100
AcDbEntity
  8
0
  6
ByLayer
 62
  256
370
   -1
100
AcDbLine
 10
5.09418
 20
7.99704
 11
5.28107
 21
7.97343
  0
LINE
  5
F9
100
AcDbEntity
  8
0
  6
ByLayer
 62
  256
370
   -1
100
AcDbLine
 10
5.28107
 20
7.97343
 11
5.46352
 21
7.92658
  0
LINE
  5
FA
100
AcDbEntity
  8
0
  6
ByLayer
 62
  256
370
   -1
100
AcDbLine
 10
5.46352
 20
7.92658
 11
5.63867
 21
7.85724
  0
LINE
  5
FB
100
AcDbEntity
  8
0
  6
ByLayer
 62
  256
370
   -1
100
AcDbLine
 10
5.63867
 20
7.85724
 11
5.80374
 21
7.76649
  0
LINE
  5
FC
100
AcDbEntity
  8
0
  6
ByLayer
 62
  256
370
   -1
100
AcDbLine
 10
5.80374
 20
7.76649
 11
5.95614
 21
7.65577
  0
LINE
  5
FD
100
AcDbEntity
  8
0
  6
ByLayer
 62
  256
370
   -1
100
AcDbLine
 10
5.95614
 20
7.65577
 11
6.09345
 21
7.52682
  0
LINE
  5
FE
100
AcDbEntity
  8
0
  6
ByLayer
 62
  256
370
   -1
100
AcDbLine
 10
6.09345
 20
7.52682
 11
6.21352
 21
7.38168
  0
LINE
  5
FF
100
AcDbEntity
  8
0
  6
ByLayer
 62
  256
370
   -1
100
AcDbLine
 10
6.21352
 20
7.38168
 11
6.31446
 21
7.22263
  0
LINE
  5
100
100
AcDbEntity
  8
0
  6
ByLayer
 62
  256
370
   -1
100
AcDbLine
 10
6.31446
 20
7.22263
 11
6.39466
 21
7.05219
  0
LINE
  5
101
100
AcDbEntity
  8
0
  6
ByLayer
 62
  256
370
   -1
100
AcDbLine
 10
6.39466
 20
7.05219
 11
6.45287
 21
6.87303
  0
LINE
  5
102
100
AcDbEntity
  8
0
  6
ByLayer
 62
  256
370
   -1
100
AcDbLine
 10
6.45287
 20
6.87303
 11
6.48817
 21
6.688
  0
LINE
  5
103
100
AcDbEntity
  8
0
  6
ByLayer
 62
  256
370
   -1
100
AcDbLine
 10
6.48817
 20
6.688
 11
6.5
 21
6.5
  0
LINE
  5
104
100
AcDbEntity
  8
0
  6
ByLayer
 62
  256
370
   -1
100
AcDbLine
 10
6.5
 20
6.5
 11
6.48817
 21
6.312
  0
LINE
  5
105
100
AcDbEntity
  8
0
  6
ByLayer
 62
  256
370
   -1
100
AcDbLine
 10
6.48817
 20
6.312
 11
6.45287
 21
6.12696
  0
LINE
  5
106
100
AcDbEntity
  8
0
  6
ByLayer
 62
  256
370
   -1
100
AcDbLine
 10
6.45287
 20
6.12696
 11
6.39466
 21
5.94781
  0
LINE
  5
107
100
AcDbEntity
  8
0
  6
ByLayer
 62
  256
370
   -1
100
AcDbLine
 10
6.39466
 20
5.94781
 11
6.31446
 21
5.77737
  0
LINE
  5
108
100
AcDbEntity
  8
0
  6
ByLayer
 62
  256
370
   -1
100
AcDbLine
 10
6.31446
 20
5.77737
 11
6.21352
 21
5.61832
  0
LINE
  5
109
100
AcDbEntity
  8
0
  6
ByLayer
 62
  256
370
   -1
100
AcDbLine
 10
6.21352
 20
5.61832
 11
6.09345
 21
5.47318
  0
LINE
  5
10A
100
AcDbEntity
  8
0
  6
ByLayer
 62
  256
370
   -1
100
AcDbLine
 10
6.09345
 20
5.47318
 11
5.95614
 21
5.34423
  0
LINE
  5
10B
100
AcDbEntity
  8
0
  6
ByLayer
 62
  256
370
   -1
100
AcDbLine
 10
5.95614
 20
5.34423
 11
5.80374
 21
5.23351
  0
LINE
  5
10C
100
AcDbEntity
  8
0
  6
ByLayer
 62
  256
370
   -1
100
AcDbLine
 10
5.80374
 20
5.23351
 11
5.63867
 21
5.14276
  0
LINE
  5
10D
100
AcDbEntity
  8
0
  6
ByLayer
 62
  256
370
   -1
100
AcDbLine
 10
5.63867
 20
5.14276
 11
5.46352
 21
5.07341
  0
LINE
  5
10E
100
AcDbEntity
  8
0
  6
ByLayer
 62
  256
370
   -1
100
AcDbLine
 10
5.46352
 20
5.07341
 11
5.28107
 21
5.02657
  0
LINE
  5
10F
100
AcDbEntity
  8
0
  6
ByLayer
 62
  256
370
   -1
100
AcDbLine
 10
5.28107
 20
5.02657
 11
5.09418
 21
5.00296
  0
LINE
  5
110
100
AcDbEntity
  8
0
  6
ByLayer
 62
  256
370
   -1
100
AcDbLine
 10
5.09418
 20
5.00296
 11
4.90581
 21
5.00296
  0
LINE
  5
111
100
AcDbEntity
  8
0
  6
ByLayer
 62
  256
370
   -1
100
AcDbLine
 10
4.90581
 20
5.00296
 11
4.71893
 21
5.02657
  0
LINE
  5
112
100
AcDbEntity
  8
0
  6
ByLayer
 62
  256
370
   -1
100
AcDbLine
 10
4.71893
 20
5.02657
 11
4.53647
 21
5.07341
  0
LINE
  5
113
100
AcDbEntity
  8
0
  6
ByLayer
 62
  256
370
   -1
100
AcDbLine
 10
4.53647
 20
5.07341
 11
4.36133
 21
5.14276
  0
LINE
  5
114
100
AcDbEntity
  8
0
  6
ByLayer
 62
  256
370
   -1
100
AcDbLine
 10
4.36133
 20
5.14276
 11
4.19626
 21
5.23351
  0
LINE
  5
115
100
AcDbEntity
  8
0
  6
ByLayer
 62
  256
370
   -1
100
AcDbLine
 10
4.19626
 20
5.23351
 11
4.04386
 21
5.34423
  0
LINE
  5
116
100
AcDbEntity
  8
0
  6
ByLayer
 62
  256
370
   -1
100
AcDbLine
 10
4.04386
 20
5.34423
 11
3.90655
 21
5.47318
  0
LINE
  5
117
100
AcDbEntity
  8
0
  6
ByLayer
 62
  256
370
   -1
100
AcDbLine
 10
3.90655
 20
5.47318
 11
3.78647
 21
5.61832
  0
LINE
  5
118
100
AcDbEntity
  8
0
  6
ByLayer
 62
  256
370
   -1
100
AcDbLine
 10
3.78647
 20
5.61832
 11
3.68554
 21
5.77737
  0
LINE
  5
119
100
AcDbEntity
  8
0
  6
ByLayer
 62
  256
370
   -1
100
AcDbLine
 10
3.68554
 20
5.77737
 11
3.60534
 21
5.94781
  0
LINE
  5
11A
100
AcDbEntity
  8
0
  6
ByLayer
 62
  256
370
   -1
100
AcDbLine
 10
3.60534
 20
5.94781
 11
3.54712
 21
6.12696
  0
LINE
  5
11B
100
AcDbEntity
  8
0
  6
ByLayer
 62
  256
370
   -1
100
AcDbLine
 10
3.54712
 20
6.12696
 11
3.51183
 21
6.312
  0
LINE
  5
11C
100
AcDbEntity
  8
0
  6
ByLayer
 62
  256
370
   -1
100
AcDbLine
 10
3.51183
 20
6.312
 11
3.5
 21
6.5
  0
LINE
  5
11D
100
AcDbEntity
  8
0
  6
ByLayer
 62
  256
370
   -1
100
AcDbLine
 10
3.5
 20
36.5
 11
3.51183
 21
36.688
  0
LINE
  5
11E
100
AcDbEntity
  8
0
  6
ByLayer
 62
  256
370
   -1
100
AcDbLine
 10
3.51183
 20
36.688
 11
3.54712
 21
36.873
  0
LINE
  5
11F
100
AcDbEntity
  8
0
  6
ByLayer
 62
  256
370
   -1
100
AcDbLine
 10
3.54712
 20
36.873
 11
3.60534
 21
37.0522
  0
LINE
  5
120
100
AcDbEntity
  8
0
  6
ByLayer
 62
  256
370
   -1
100
AcDbLine
 10
3.60534
 20
37.0522
 11
3.68554
 21
37.2226
  0
LINE
  5
121
100
AcDbEntity
  8
0
  6
ByLayer
 62
  256
370
   -1
100
AcDbLine
 10
3.68554
 20
37.2226
 11
3.78647
 21
37.3817
  0
LINE
  5
122
100
AcDbEntity
  8
0
  6
ByLayer
 62
  256
370
   -1
100
AcDbLine
 10
3.78647
 20
37.3817
 11
3.90655
 21
37.5268
  0
LINE
  5
123
100
AcDbEntity
  8
0
  6
ByLayer
 62
  256
370
   -1
100
AcDbLine
 10
3.90655
 20
37.5268
 11
4.04386
 21
37.6558
  0
LINE
  5
124
100
AcDbEntity
  8
0
  6
ByLayer
 62
  256
370
   -1
100
AcDbLine
 10
4.04386
 20
37.6558
 11
4.19626
 21
37.7665
  0
LINE
  5
125
100
AcDbEntity
  8
0
  6
ByLayer
 62
  256
370
   -1
100
AcDbLine
 10
4.19626
 20
37.7665
 11
4.36133
 21
37.8572
  0
LINE
  5
126
100
AcDbEntity
  8
0
  6
ByLayer
 62
  256
370
   -1
100
AcDbLine
 10
4.36133
 20
37.8572
 11
4.53647
 21
37.9266
  0
LINE
  5
127
100
AcDbEntity
  8
0
  6
ByLayer
 62
  256
370
   -1
100
AcDbLine
 10
4.53647
 20
37.9266
 11
4.71893
 21
37.9734
  0
LINE
  5
128
100
AcDbEntity
  8
0
  6
ByLayer
 62
  256
370
   -1
100
AcDbLine
 10
4.71893
 20
37.9734
 11
4.90581
 21
37.997
  0
LINE
  5
129
100
AcDbEntity
  8
0
  6
ByLayer
 62
  256
370
   -1
100
AcDbLine
 10
4.90581
 20
37.997
 11
5.09418
 21
37.997
  0
LINE
  5
12A
100
AcDbEntity
  8
0
  6
ByLayer
 62
  256
370
   -1
100
AcDbLine
 10
5.09418
 20
37.997
 11
5.28107
 21
37.9734
  0
LINE
  5
12B
100
AcDbEntity
  8
0
  6
ByLayer
 62
  256
370
   -1
100
AcDbLine
 10
5.28107
 20
37.9734
 11
5.46352
 21
37.9266
  0
LINE
  5
12C
100
AcDbEntity
  8
0
  6
ByLayer
 62
  256
370
   -1
100
AcDbLine
 10
5.46352
 20
37.9266
 11
5.63867
 21
37.8572
  0
LINE
  5
12D
100
AcDbEntity
  8
0
  6
ByLayer
 62
  256
370
   -1
100
AcDbLine
 10
5.63867
 20
37.8572
 11
5.80374
 21
37.7665
  0
LINE
  5
12E
100
AcDbEntity
  8
0
  6
ByLayer
 62
  256
370
   -1
100
AcDbLine
 10
5.80374
 20
37.7665
 11
5.95614
 21
37.6558
  0
LINE
  5
12F
100
AcDbEntity
  8
0
  6
ByLayer
 62
  256
370
   -1
100
AcDbLine
 10
5.95614
 20
37.6558
 11
6.09345
 21
37.5268
  0
LINE
  5
130
100
AcDbEntity
  8
0
  6
ByLayer
 62
  256
370
   -1
100
AcDbLine
 10
6.09345
 20
37.5268
 11
6.21352
 21
37.3817
  0
LINE
  5
131
100
AcDbEntity
  8
0
  6
ByLayer
 62
  256
370
   -1
100
AcDbLine
 10
6.21352
 20
37.3817
 11
6.31446
 21
37.2226
  0
LINE
  5
132
100
AcDbEntity
  8
0
  6
ByLayer
 62
  256
370
   -1
100
AcDbLine
 10
6.31446
 20
37.2226
 11
6.39466
 21
37.0522
  0
LINE
  5
133
100
AcDbEntity
  8
0
  6
ByLayer
 62
  256
370
   -1
100
AcDbLine
 10
6.39466
 20
37.0522
 11
6.45287
 21
36.873
  0
LINE
  5
134
100
AcDbEntity
  8
0
  6
ByLayer
 62
  256
370
   -1
100
AcDbLine
 10
6.45287
 20
36.873
 11
6.48817
 21
36.688
  0
LINE
  5
135
100
AcDbEntity
  8
0
  6
ByLayer
 62
  256
370
   -1
100
AcDbLine
 10
6.48817
 20
36.688
 11
6.5
 21
36.5
  0
LINE
  5
136
100
AcDbEntity
  8
0
  6
ByLayer
 62
  256
370
   -1
100
AcDbLine
 10
6.5
 20
36.5
 11
6.48817
 21
36.312
  0
LINE
  5
137
100
AcDbEntity
  8
0
  6
ByLayer
 62
  256
370
   -1
100
AcDbLine
 10
6.48817
 20
36.312
 11
6.45287
 21
36.127
  0
LINE
  5
138
100
AcDbEntity
  8
0
  6
ByLayer
 62
  256
370
   -1
100
AcDbLine
 10
6.45287
 20
36.127
 11
6.39466
 21
35.9478
  0
LINE
  5
139
100
AcDbEntity
  8
0
  6
ByLayer
 62
  256
370
   -1
100
AcDbLine
 10
6.39466
 20
35.9478
 11
6.31446
 21
35.7774
  0
LINE
  5
13A
100
AcDbEntity
  8
0
  6
ByLayer
 62
  256
370
   -1
100
AcDbLine
 10
6.31446
 20
35.7774
 11
6.21352
 21
35.6183
  0
LINE
  5
13B
100
AcDbEntity
  8
0
  6
ByLayer
 62
  256
370
   -1
100
AcDbLine
 10
6.21352
 20
35.6183
 11
6.09345
 21
35.4732
  0
LINE
  5
13C
100
AcDbEntity
  8
0
  6
ByLayer
 62
  256
370
   -1
100
AcDbLine
 10
6.09345
 20
35.4732
 11
5.95614
 21
35.3442
  0
LINE
  5
13D
100
AcDbEntity
  8
0
  6
ByLayer
 62
  256
370
   -1
100
AcDbLine
 10
5.95614
 20
35.3442
 11
5.80374
 21
35.2335
  0
LINE
  5
13E
100
AcDbEntity
  8
0
  6
ByLayer
 62
  256
370
   -1
100
AcDbLine
 10
5.80374
 20
35.2335
 11
5.63867
 21
35.1428
  0
LINE
  5
13F
100
AcDbEntity
  8
0
  6
ByLayer
 62
  256
370
   -1
100
AcDbLine
 10
5.63867
 20
35.1428
 11
5.46352
 21
35.0734
  0
LINE
  5
140
100
AcDbEntity
  8
0
  6
ByLayer
 62
  256
370
   -1
100
AcDbLine
 10
5.46352
 20
35.0734
 11
5.28107
 21
35.0266
  0
LINE
  5
141
100
AcDbEntity
  8
0
  6
ByLayer
 62
  256
370
   -1
100
AcDbLine
 10
5.28107
 20
35.0266
 11
5.09418
 21
35.003
  0
LINE
  5
142
100
AcDbEntity
  8
0
  6
ByLayer
 62
  256
370
   -1
100
AcDbLine
 10
5.09418
 20
35.003
 11
4.90581
 21
35.003
  0
LINE
  5
143
100
AcDbEntity
  8
0
  6
ByLayer
 62
  256
370
   -1
100
AcDbLine
 10
4.90581
 20
35.003
 11
4.71893
 21
35.0266
  0
LINE
  5
144
100
AcDbEntity
  8
0
  6
ByLayer
 62
  256
370
   -1
100
AcDbLine
 10
4.71893
 20
35.0266
 11
4.53647
 21
35.0734
  0
LINE
  5
145
100
AcDbEntity
  8
0
  6
ByLayer
 62
  256
370
   -1
100
AcDbLine
 10
4.53647
 20
35.0734
 11
4.36133
 21
35.1428
  0
LINE
  5
146
100
AcDbEntity
  8
0
  6
ByLayer
 62
  256
370
   -1
100
AcDbLine
 10
4.36133
 20
35.1428
 11
4.19626
 21
35.2335
  0
LINE
  5
147
100
AcDbEntity
  8
0
  6
ByLayer
 62
  256
370
   -1
100
AcDbLine
 10
4.19626
 20
35.2335
 11
4.04386
 21
35.3442
  0
LINE
  5
148
100
AcDbEntity
  8
0
  6
ByLayer
 62
  256
370
   -1
100
AcDbLine
 10
4.04386
 20
35.3442
 11
3.90655
 21
35.4732
  0
LINE
  5
149
100
AcDbEntity
  8
0
  6
ByLayer
 62
  256
370
   -1
100
AcDbLine
 10
3.90655
 20
35.4732
 11
3.78647
 21
35.6183
  0
LINE
  5
14A
100
AcDbEntity
  8
0
  6
ByLayer
 62
  256
370
   -1
100
AcDbLine
 10
3.78647
 20
35.6183
 11
3.68554
 21
35.7774
  0
LINE
  5
14B
100
AcDbEntity
  8
0
  6
ByLayer
 62
  256
370
   -1
100
AcDbLine
 10
3.68554
 20
35.7774
 11
3.60534
 21
35.9478
  0
LINE
  5
14C
100
AcDbEntity
  8
0
  6
ByLayer
 62
  256
370
   -1
100
AcDbLine
 10
3.60534
 20
35.9478
 11
3.54712
 21
36.127
  0
LINE
  5
14D
100
AcDbEntity
  8
0
  6
ByLayer
 62
  256
370
   -1
100
AcDbLine
 10
3.54712
 20
36.127
 11
3.51183
 21
36.312
  0
LINE
  5
14E
100
AcDbEntity
  8
0
  6
ByLayer
 62
  256
370
   -1
100
AcDbLine
 10
3.51183
 20
36.312
 11
3.5
 21
36.5
  0
LINE
  5
14F
100
AcDbEntity
  8
0
  6
ByLayer
 62
  256
370
   -1
100
AcDbLine
 10
13.5
 20
11.5
 11
13.5118
 21
11.688
  0
LINE
  5
150
100
AcDbEntity
  8
0
  6
ByLayer
 62
  256
370
   -1
100
AcDbLine
 10
13.5118
 20
11.688
 11
13.5471
 21
11.873
  0
LINE
  5
151
100
AcDbEntity
  8
0
  6
ByLayer
 62
  256
370
   -1
100
AcDbLine
 10
13.5471
 20
11.873
 11
13.6053
 21
12.0522
  0
LINE
  5
152
100
AcDbEntity
  8
0
  6
ByLayer
 62
  256
370
   -1
100
AcDbLine
 10
13.6053
 20
12.0522
 11
13.6855
 21
12.2226
  0
LINE
  5
153
100
AcDbEntity
  8
0
  6
ByLayer
 62
  256
370
   -1
100
AcDbLine
 10
13.6855
 20
12.2226
 11
13.7865
 21
12.3817
  0
LINE
  5
154
100
AcDbEntity
  8
0
  6
ByLayer
 62
  256
370
   -1
100
AcDbLine
 10
13.7865
 20
12.3817
 11
13.9065
 21
12.5268
  0
LINE
  5
155
100
AcDbEntity
  8
0
  6
ByLayer
 62
  256
370
   -1
100
AcDbLine
 10
13.9065
 20
12.5268
 11
14.0439
 21
12.6558
  0
LINE
  5
156
100
AcDbEntity
  8
0
  6
ByLayer
 62
  256
370
   -1
100
AcDbLine
 10
14.0439
 20
12.6558
 11
14.1963
 21
12.7665
  0
LINE
  5
157
100
AcDbEntity
  8
0
  6
ByLayer
 62
  256
370
   -1
100
AcDbLine
 10
14.1963
 20
12.7665
 11
14.3613
 21
12.8572
  0
LINE
  5
158
100
AcDbEntity
  8
0
  6
ByLayer
 62
  256
370
   -1
100
AcDbLine
 10
14.3613
 20
12.8572
 11
14.5365
 21
12.9266
  0
LINE
  5
159
100
AcDbEntity
  8
0
  6
ByLayer
 62
  256
370
   -1
100
AcDbLine
 10
14.5365
 20
12.9266
 11
14.7189
 21
12.9734
  0
LINE
  5
15A
100
AcDbEntity
  8
0
  6
ByLayer
 62
  256
370
   -1
100
AcDbLine
 10
14.7189
 20
12.9734
 11
14.9058
 21
12.997
  0
LINE
  5
15B
100
AcDbEntity
  8
0
  6
ByLayer
 62
  256
370
   -1
100
AcDbLine
 10
14.9058
 20
12.997
 11
15.0942
 21
12.997
  0
LINE
  5
15C
100
AcDbEntity
  8
0
  6
ByLayer
 62
  256
370
   -1
100
AcDbLine
 10
15.0942
 20
12.997
 11
15.2811
 21
12.9734
  0
LINE
  5
15D
100
AcDbEntity
  8
0
  6
ByLayer
 62
  256
370
   -1
100
AcDbLine
 10
15.2811
 20
12.9734
 11
15.4635
 21
12.9266
  0
LINE
  5
15E
100
AcDbEntity
  8
0
  6
ByLayer
 62
  256
370
   -1
100
AcDbLine
 10
15.4635
 20
12.9266
 11
15.6387
 21
12.8572
  0
LINE
  5
15F
100
AcDbEntity
  8
0
  6
ByLayer
 62
  256
370
   -1
100
AcDbLine
 10
15.6387
 20
12.8572
 11
15.8037
 21
12.7665
  0
LINE
  5
160
100
AcDbEntity
  8
0
  6
ByLayer
 62
  256
370
   -1
100
AcDbLine
 10
15.8037
 20
12.7665
 11
15.9561
 21
12.6558
  0
LINE
  5
161
100
AcDbEntity
  8
0
  6
ByLayer
 62
  256
370
   -1
100
AcDbLine
 10
15.9561
 20
12.6558
 11
16.0935
 21
12.5268
  0
LINE
  5
162
100
AcDbEntity
  8
0
  6
ByLayer
 62
  256
370
   -1
100
AcDbLine
 10
16.0935
 20
12.5268
 11
16.2135
 21
12.3817
  0
LINE
  5
163
100
AcDbEntity
  8
0
  6
ByLayer
 62
  256
370
   -1
100
AcDbLine
 10
16.2135
 20
12.3817
 11
16.3145
 21
12.2226
  0
LINE
  5
164
100
AcDbEntity
  8
0
  6
ByLayer
 62
  256
370
   -1
100
AcDbLine
 10
16.3145
 20
12.2226
 11
16.3947
 21
12.0522
  0
LINE
  5
165
100
AcDbEntity
  8
0
  6
ByLayer
 62
  256
370
   -1
100
AcDbLine
 10
16.3947
 20
12.0522
 11
16.4529
 21
11.873
  0
LINE
  5
166
100
AcDbEntity
  8
0
  6
ByLayer
 62
  256
370
   -1
100
AcDbLine
 10
16.4529
 20
11.873
 11
16.4882
 21
11.688
  0
LINE
  5
167
100
AcDbEntity
  8
0
  6
ByLayer
 62
  256
370
   -1
100
AcDbLine
 10
16.4882
 20
11.688
 11
16.5
 21
11.5
  0
LINE
  5
168
100
AcDbEntity
  8
0
  6
ByLayer
 62
  256
370
   -1
100
AcDbLine
 10
16.5
 20
11.5
 11
16.4882
 21
11.312
  0
LINE
  5
169
100
AcDbEntity
  8
0
  6
ByLayer
 62
  256
370
   -1
100
AcDbLine
 10
16.4882
 20
11.312
 11
16.4529
 21
11.127
  0
LINE
  5
16A
100
AcDbEntity
  8
0
  6
ByLayer
 62
  256
370
   -1
100
AcDbLine
 10
16.4529
 20
11.127
 11
16.3947
 21
10.9478
  0
LINE
  5
16B
100
AcDbEntity
  8
0
  6
ByLayer
 62
  256
370
   -1
100
AcDbLine
 10
16.3947
 20
10.9478
 11
16.3145
 21
10.7774
  0
LINE
  5
16C
100
AcDbEntity
  8
0
  6
ByLayer
 62
  256
370
   -1
100
AcDbLine
 10
16.3145
 20
10.7774
 11
16.2135
 21
10.6183
  0
LINE
  5
16D
100
AcDbEntity
  8
0
  6
ByLayer
 62
  256
370
   -1
100
AcDbLine
 10
16.2135
 20
10.6183
 11
16.0935
 21
10.4732
  0
LINE
  5
16E
100
AcDbEntity
  8
0
  6
ByLayer
 62
  256
370
   -1
100
AcDbLine
 10
16.0935
 20
10.4732
 11
15.9561
 21
10.3442
  0
LINE
  5
16F
100
AcDbEntity
  8
0
  6
ByLayer
 62
  256
370
   -1
100
AcDbLine
 10
15.9561
 20
10.3442
 11
15.8037
 21
10.2335
  0
LINE
  5
170
100
AcDbEntity
  8
0
  6
ByLayer
 62
  256
370
   -1
100
AcDbLine
 10
15.8037
 20
10.2335
 11
15.6387
 21
10.1428
  0
LINE
  5
171
100
AcDbEntity
  8
0
  6
ByLayer
 62
  256
370
   -1
100
AcDbLine
 10
15.6387
 20
10.1428
 11
15.4635
 21
10.0734
  0
LINE
  5
172
100
AcDbEntity
  8
0
  6
ByLayer
 62
  256
370
   -1
100
AcDbLine
 10
15.4635
 20
10.0734
 11
15.2811
 21
10.0266
  0
LINE
  5
173
100
AcDbEntity
  8
0
  6
ByLayer
 62
  256
370
   -1
100
AcDbLine
 10
15.2811
 20
10.0266
 11
15.0942
 21
10.003
  0
LINE
  5
174
100
AcDbEntity
  8
0
  6
ByLayer
 62
  256
370
   -1
100
AcDbLine
 10
15.0942
 20
10.003
 11
14.9058
 21
10.003
  0
LINE
  5
175
100
AcDbEntity
  8
0
  6
ByLayer
 62
  256
370
   -1
100
AcDbLine
 10
14.9058
 20
10.003
 11
14.7189
 21
10.0266
  0
LINE
  5
176
100
AcDbEntity
  8
0
  6
ByLayer
 62
  256
370
   -1
100
AcDbLine
 10
14.7189
 20
10.0266
 11
14.5365
 21
10.0734
  0
LINE
  5
177
100
AcDbEntity
  8
0
  6
ByLayer
 62
  256
370
   -1
100
AcDbLine
 10
14.5365
 20
10.0734
 11
14.3613
 21
10.1428
  0
LINE
  5
178
100
AcDbEntity
  8
0
  6
ByLayer
 62
  256
370
   -1
100
AcDbLine
 10
14.3613
 20
10.1428
 11
14.1963
 21
10.2335
  0
LINE
  5
179
100
AcDbEntity
  8
0
  6
ByLayer
 62
  256
370
   -1
100
AcDbLine
 10
14.1963
 20
10.2335
 11
14.0439
 21
10.3442
  0
LINE
  5
17A
100
AcDbEntity
  8
0
  6
ByLayer
 62
  256
370
   -1
100
AcDbLine
 10
14.0439
 20
10.3442
 11
13.9065
 21
10.4732
  0
LINE
  5
17B
100
AcDbEntity
  8
0
  6
ByLayer
 62
  256
370
   -1
100
AcDbLine
 10
13.9065
 20
10.4732
 11
13.7865
 21
10.6183
  0
LINE
  5
17C
100
AcDbEntity
  8
0
  6
ByLayer
 62
  256
370
   -1
100
AcDbLine
 10
13.7865
 20
10.6183
 11
13.6855
 21
10.7774
  0
LINE
  5
17D
100
AcDbEntity
  8
0
  6
ByLayer
 62
  256
370
   -1
100
AcDbLine
 10
13.6855
 20
10.7774
 11
13.6053
 21
10.9478
  0
LINE
  5
17E
100
AcDbEntity
  8
0
  6
ByLayer
 62
  256
370
   -1
100
AcDbLine
 10
13.6053
 20
10.9478
 11
13.5471
 21
11.127
  0
LINE
  5
17F
100
AcDbEntity
  8
0
  6
ByLayer
 62
  256
370
   -1
100
AcDbLine
 10
13.5471
 20
11.127
 11
13.5118
 21
11.312
  0
LINE
  5
180
100
AcDbEntity
  8
0
  6
ByLayer
 62
  256
370
   -1
100
AcDbLine
 10
13.5118
 20
11.312
 11
13.5
 21
11.5
  0
LINE
  5
181
100
AcDbEntity
  8
0
  6
ByLayer
 62
  256
370
   -1
100
AcDbLine
 10
13.5
 20
31.5
 11
13.5118
 21
31.688
  0
LINE
  5
182
100
AcDbEntity
  8
0
  6
ByLayer
 62
  256
370
   -1
100
AcDbLine
 10
13.5118
 20
31.688
 11
13.5471
 21
31.873
  0
LINE
  5
183
100
AcDbEntity
  8
0
  6
ByLayer
 62
  256
370
   -1
100
AcDbLine
 10
13.5471
 20
31.873
 11
13.6053
 21
32.0522
  0
LINE
  5
184
100
AcDbEntity
  8
0
  6
ByLayer
 62
  256
370
   -1
100
AcDbLine
 10
13.6053
 20
32.0522
 11
13.6855
 21
32.2226
  0
LINE
  5
185
100
AcDbEntity
  8
0
  6
ByLayer
 62
  256
370
   -1
100
AcDbLine
 10
13.6855
 20
32.2226
 11
13.7865
 21
32.3817
  0
LINE
  5
186
100
AcDbEntity
  8
0
  6
ByLayer
 62
  256
370
   -1
100
AcDbLine
 10
13.7865
 20
32.3817
 11
13.9065
 21
32.5268
  0
LINE
  5
187
100
AcDbEntity
  8
0
  6
ByLayer
 62
  256
370
   -1
100
AcDbLine
 10
13.9065
 20
32.5268
 11
14.0439
 21
32.6558
  0
LINE
  5
188
100
AcDbEntity
  8
0
  6
ByLayer
 62
  256
370
   -1
100
AcDbLine
 10
14.0439
 20
32.6558
 11
14.1963
 21
32.7665
  0
LINE
  5
189
100
AcDbEntity
  8
0
  6
ByLayer
 62
  256
370
   -1
100
AcDbLine
 10
14.1963
 20
32.7665
 11
14.3613
 21
32.8572
  0
LINE
  5
18A
100
AcDbEntity
  8
0
  6
ByLayer
 62
  256
370
   -1
100
AcDbLine
 10
14.3613
 20
32.8572
 11
14.5365
 21
32.9266
  0
LINE
  5
18B
100
AcDbEntity
  8
0
  6
ByLayer
 62
  256
370
   -1
100
AcDbLine
 10
14.5365
 20
32.9266
 11
14.7189
 21
32.9734
  0
LINE
  5
18C
100
AcDbEntity
  8
0
  6
ByLayer
 62
  256
370
   -1
100
AcDbLine
 10
14.7189
 20
32.9734
 11
14.9058
 21
32.997
  0
LINE
  5
18D
100
AcDbEntity
  8
0
  6
ByLayer
 62
  256
370
   -1
100
AcDbLine
 10
14.9058
 20
32.997
 11
15.0942
 21
32.997
  0
LINE
  5
18E
100
AcDbEntity
  8
0
  6
ByLayer
 62
  256
370
   -1
100
AcDbLine
 10
15.0942
 20
32.997
 11
15.2811
 21
32.9734
  0
LINE
  5
18F
100
AcDbEntity
  8
0
  6
ByLayer
 62
  256
370
   -1
100
AcDbLine
 10
15.2811
 20
32.9734
 11
15.4635
 21
32.9266
  0
LINE
  5
190
100
AcDbEntity
  8
0
  6
ByLayer
 62
  256
370
   -1
100
AcDbLine
 10
15.4635
 20
32.9266
 11
15.6387
 21
32.8572
  0
LINE
  5
191
100
AcDbEntity
  8
0
  6
ByLayer
 62
  256
370
   -1
100
AcDbLine
 10
15.6387
 20
32.8572
 11
15.8037
 21
32.7665
  0
LINE
  5
192
100
AcDbEntity
  8
0
  6
ByLayer
 62
  256
370
   -1
100
AcDbLine
 10
15.8037
 20
32.7665
 11
15.9561
 21
32.6558
  0
LINE
  5
193
100
AcDbEntity
  8
0
  6
ByLayer
 62
  256
370
   -1
100
AcDbLine
 10
15.9561
 20
32.6558
 11
16.0935
 21
32.5268
  0
LINE
  5
194
100
AcDbEntity
  8
0
  6
ByLayer
 62
  256
370
   -1
100
AcDbLine
 10
16.0935
 20
32.5268
 11
16.2135
 21
32.3817
  0
LINE
  5
195
100
AcDbEntity
  8
0
  6
ByLayer
 62
  256
370
   -1
100
AcDbLine
 10
16.2135
 20
32.3817
 11
16.3145
 21
32.2226
  0
LINE
  5
196
100
AcDbEntity
  8
0
  6
ByLayer
 62
  256
370
   -1
100
AcDbLine
 10
16.3145
 20
32.2226
 11
16.3947
 21
32.0522
  0
LINE
  5
197
100
AcDbEntity
  8
0
  6
ByLayer
 62
  256
370
   -1
100
AcDbLine
 10
16.3947
 20
32.0522
 11
16.4529
 21
31.873
  0
LINE
  5
198
100
AcDbEntity
  8
0
  6
ByLayer
 62
  256
370
   -1
100
AcDbLine
 10
16.4529
 20
31.873
 11
16.4882
 21
31.688
  0
LINE
  5
199
100
AcDbEntity
  8
0
  6
ByLayer
 62
  256
370
   -1
100
AcDbLine
 10
16.4882
 20
31.688
 11
16.5
 21
31.5
  0
LINE
  5
19A
100
AcDbEntity
  8
0
  6
ByLayer
 62
  256
370
   -1
100
AcDbLine
 10
16.5
 20
31.5
 11
16.4882
 21
31.312
  0
LINE
  5
19B
100
AcDbEntity
  8
0
  6
ByLayer
 62
  256
370
   -1
100
AcDbLine
 10
16.4882
 20
31.312
 11
16.4529
 21
31.127
  0
LINE
  5
19C
100
AcDbEntity
  8
0
  6
ByLayer
 62
  256
370
   -1
100
AcDbLine
 10
16.4529
 20
31.127
 11
16.3947
 21
30.9478
  0
LINE
  5
19D
100
AcDbEntity
  8
0
  6
ByLayer
 62
  256
370
   -1
100
AcDbLine
 10
16.3947
 20
30.9478
 11
16.3145
 21
30.7774
  0
LINE
  5
19E
100
AcDbEntity
  8
0
  6
ByLayer
 62
  256
370
   -1
100
AcDbLine
 10
16.3145
 20
30.7774
 11
16.2135
 21
30.6183
  0
LINE
  5
19F
100
AcDbEntity
  8
0
  6
ByLayer
 62
  256
370
   -1
100
AcDbLine
 10
16.2135
 20
30.6183
 11
16.0935
 21
30.4732
  0
LINE
  5
1A0
100
AcDbEntity
  8
0
  6
ByLayer
 62
  256
370
   -1
100
AcDbLine
 10
16.0935
 20
30.4732
 11
15.9561
 21
30.3442
  0
LINE
  5
1A1
100
AcDbEntity
  8
0
  6
ByLayer
 62
  256
370
   -1
100
AcDbLine
 10
15.9561
 20
30.3442
 11
15.8037
 21
30.2335
  0
LINE
  5
1A2
100
AcDbEntity
  8
0
  6
ByLayer
 62
  256
370
   -1
100
AcDbLine
 10
15.8037
 20
30.2335
 11
15.6387
 21
30.1428
  0
LINE
  5
1A3
100
AcDbEntity
  8
0
  6
ByLayer
 62
  256
370
   -1
100
AcDbLine
 10
15.6387
 20
30.1428
 11
15.4635
 21
30.0734
  0
LINE
  5
1A4
100
AcDbEntity
  8
0
  6
ByLayer
 62
  256
370
   -1
100
AcDbLine
 10
15.4635
 20
30.0734
 11
15.2811
 21
30.0266
  0
LINE
  5
1A5
100
AcDbEntity
  8
0
  6
ByLayer
 62
  256
370
   -1
100
AcDbLine
 10
15.2811
 20
30.0266
 11
15.0942
 21
30.003
  0
LINE
  5
1A6
100
AcDbEntity
  8
0
  6
ByLayer
 62
  256
370
   -1
100
AcDbLine
 10
15.0942
 20
30.003
 11
14.9058
 21
30.003
  0
LINE
  5
1A7
100
AcDbEntity
  8
0
  6
ByLayer
 62
  256
370
   -1
100
AcDbLine
 10
14.9058
 20
30.003
 11
14.7189
 21
30.0266
  0
LINE
  5
1A8
100
AcDbEntity
  8
0
  6
ByLayer
 62
  256
370
   -1
100
AcDbLine
 10
14.7189
 20
30.0266
 11
14.5365
 21
30.0734
  0
LINE
  5
1A9
100
AcDbEntity
  8
0
  6
ByLayer
 62
  256
370
   -1
100
AcDbLine
 10
14.5365
 20
30.0734
 11
14.3613
 21
30.1428
  0
LINE
  5
1AA
100
AcDbEntity
  8
0
  6
ByLayer
 62
  256
370
   -1
100
AcDbLine
 10
14.3613
 20
30.1428
 11
14.1963
 21
30.2335
  0
LINE
  5
1AB
100
AcDbEntity
  8
0
  6
ByLayer
 62
  256
370
   -1
100
AcDbLine
 10
14.1963
 20
30.2335
 11
14.0439
 21
30.3442
  0
LINE
  5
1AC
100
AcDbEntity
  8
0
  6
ByLayer
 62
  256
370
   -1
100
AcDbLine
 10
14.0439
 20
30.3442
 11
13.9065
 21
30.4732
  0
LINE
  5
1AD
100
AcDbEntity
  8
0
  6
ByLayer
 62
  256
370
   -1
100
AcDbLine
 10
13.9065
 20
30.4732
 11
13.7865
 21
30.6183
  0
LINE
  5
1AE
100
AcDbEntity
  8
0
  6
ByLayer
 62
  256
370
   -1
100
AcDbLine
 10
13.7865
 20
30.6183
 11
13.6855
 21
30.7774
  0
LINE
  5
1AF
100
AcDbEntity
  8
0
  6
ByLayer
 62
  256
370
   -1
100
AcDbLine
 10
13.6855
 20
30.7774
 11
13.6053
 21
30.9478
  0
LINE
  5
1B0
100
AcDbEntity
  8
0
  6
ByLayer
 62
  256
370
   -1
100
AcDbLine
 10
13.6053
 20
30.9478
 11
13.5471
 21
31.127
  0
LINE
  5
1B1
100
AcDbEntity
  8
0
  6
ByLayer
 62
  256
370
   -1
100
AcDbLine
 10
13.5471
 20
31.127
 11
13.5118
 21
31.312
  0
LINE
  5
1B2
100
AcDbEntity
  8
0
  6
ByLayer
 62
  256
370
   -1
100
AcDbLine
 10
13.5118
 20
31.312
 11
13.5
 21
31.5
  0
LINE
  5
1B3
100
AcDbEntity
  8
0
  6
ByLayer
 62
  256
370
   -1
100
AcDbLine
 10
136.5
 20
11.5
 11
136.512
 21
11.688
  0
LINE
  5
1B4
100
AcDbEntity
  8
0
  6
ByLayer
 62
  256
370
   -1
100
AcDbLine
 10
136.512
 20
11.688
 11
136.547
 21
11.873
  0
LINE
  5
1B5
100
AcDbEntity
  8
0
  6
ByLayer
 62
  256
370
   -1
100
AcDbLine
 10
136.547
 20
11.873
 11
136.605
 21
12.0522
  0
LINE
  5
1B6
100
AcDbEntity
  8
0
  6
ByLayer
 62
  256
370
   -1
100
AcDbLine
 10
136.605
 20
12.0522
 11
136.686
 21
12.2226
  0
LINE
  5
1B7
100
AcDbEntity
  8
0
  6
ByLayer
 62
  256
370
   -1
100
AcDbLine
 10
136.686
 20
12.2226
 11
136.786
 21
12.3817
  0
LINE
  5
1B8
100
AcDbEntity
  8
0
  6
ByLayer
 62
  256
370
   -1
100
AcDbLine
 10
136.786
 20
12.3817
 11
136.907
 21
12.5268
  0
LINE
  5
1B9
100
AcDbEntity
  8
0
  6
ByLayer
 62
  256
370
   -1
100
AcDbLine
 10
136.907
 20
12.5268
 11
137.044
 21
12.6558
  0
LINE
  5
1BA
100
AcDbEntity
  8
0
  6
ByLayer
 62
  256
370
   -1
100
AcDbLine
 10
137.044
 20
12.6558
 11
137.196
 21
12.7665
  0
LINE
  5
1BB
100
AcDbEntity
  8
0
  6
ByLayer
 62
  256
370
   -1
100
AcDbLine
 10
137.196
 20
12.7665
 11
137.361
 21
12.8572
  0
LINE
  5
1BC
100
AcDbEntity
  8
0
  6
ByLayer
 62
  256
370
   -1
100
AcDbLine
 10
137.361
 20
12.8572
 11
137.536
 21
12.9266
  0
LINE
  5
1BD
100
AcDbEntity
  8
0
  6
ByLayer
 62
  256
370
   -1
100
AcDbLine
 10
137.536
 20
12.9266
 11
137.719
 21
12.9734
  0
LINE
  5
1BE
100
AcDbEntity
  8
0
  6
ByLayer
 62
  256
370
   -1
100
AcDbLine
 10
137.719
 20
12.9734
 11
137.906
 21
12.997
  0
LINE
  5
1BF
100
AcDbEntity
  8
0
  6
ByLayer
 62
  256
370
   -1
100
AcDbLine
 10
137.906
 20
12.997
 11
138.094
 21
12.997
  0
LINE
  5
1C0
100
AcDbEntity
  8
0
  6
ByLayer
 62
  256
370
   -1
100
AcDbLine
 10
138.094
 20
12.997
 11
138.281
 21
12.9734
  0
LINE
  5
1C1
100
AcDbEntity
  8
0
  6
ByLayer
 62
  256
370
   -1
100
AcDbLine
 10
138.281
 20
12.9734
 11
138.464
 21
12.9266
  0
LINE
  5
1C2
100
AcDbEntity
  8
0
  6
ByLayer
 62
  256
370
   -1
100
AcDbLine
 10
138.464
 20
12.9266
 11
138.639
 21
12.8572
  0
LINE
  5
1C3
100
AcDbEntity
  8
0
  6
ByLayer
 62
  256
370
   -1
100
AcDbLine
 10
138.639
 20
12.8572
 11
138.804
 21
12.7665
  0
LINE
  5
1C4
100
AcDbEntity
  8
0
  6
ByLayer
 62
  256
370
   -1
100
AcDbLine
 10
138.804
 20
12.7665
 11
138.956
 21
12.6558
  0
LINE
  5
1C5
100
AcDbEntity
  8
0
  6
ByLayer
 62
  256
370
   -1
100
AcDbLine
 10
138.956
 20
12.6558
 11
139.093
 21
12.5268
  0
LINE
  5
1C6
100
AcDbEntity
  8
0
  6
ByLayer
 62
  256
370
   -1
100
AcDbLine
 10
139.093
 20
12.5268
 11
139.214
 21
12.3817
  0
LINE
  5
1C7
100
AcDbEntity
  8
0
  6
ByLayer
 62
  256
370
   -1
100
AcDbLine
 10
139.214
 20
12.3817
 11
139.314
 21
12.2226
  0
LINE
  5
1C8
100
AcDbEntity
  8
0
  6
ByLayer
 62
  256
370
   -1
100
AcDbLine
 10
139.314
 20
12.2226
 11
139.395
 21
12.0522
  0
LINE
  5
1C9
100
AcDbEntity
  8
0
  6
ByLayer
 62
  256
370
   -1
100
AcDbLine
 10
139.395
 20
12.0522
 11
139.453
 21
11.873
  0
LINE
  5
1CA
100
AcDbEntity
  8
0
  6
ByLayer
 62
  256
370
   -1
100
AcDbLine
 10
139.453
 20
11.873
 11
139.488
 21
11.688
  0
LINE
  5
1CB
100
AcDbEntity
  8
0
  6
ByLayer
 62
  256
370
   -1
100
AcDbLine
 10
139.488
 20
11.688
 11
139.5
 21
11.5
  0
LINE
  5
1CC
100
AcDbEntity
  8
0
  6
ByLayer
 62
  256
370
   -1
100
AcDbLine
 10
139.5
 20
11.5
 11
139.488
 21
11.312
  0
LINE
  5
1CD
100
AcDbEntity
  8
0
  6
ByLayer
 62
  256
370
   -1
100
AcDbLine
 10
139.488
 20
11.312
 11
139.453
 21
11.127
  0
LINE
  5
1CE
100
AcDbEntity
  8
0
  6
ByLayer
 62
  256
370
   -1
100
AcDbLine
 10
139.453
 20
11.127
 11
139.395
 21
10.9478
  0
LINE
  5
1CF
100
AcDbEntity
  8
0
  6
ByLayer
 62
  256
370
   -1
100
AcDbLine
 10
139.395
 20
10.9478
 11
139.314
 21
10.7774
  0
LINE
  5
1D0
100
AcDbEntity
  8
0
  6
ByLayer
 62
  256
370
   -1
100
AcDbLine
 10
139.314
 20
10.7774
 11
139.214
 21
10.6183
  0
LINE
  5
1D1
100
AcDbEntity
  8
0
  6
ByLayer
 62
  256
370
   -1
100
AcDbLine
 10
139.214
 20
10.6183
 11
139.093
 21
10.4732
  0
LINE
  5
1D2
100
AcDbEntity
  8
0
  6
ByLayer
 62
  256
370
   -1
100
AcDbLine
 10
139.093
 20
10.4732
 11
138.956
 21
10.3442
  0
LINE
  5
1D3
100
AcDbEntity
  8
0
  6
ByLayer
 62
  256
370
   -1
100
AcDbLine
 10
138.956
 20
10.3442
 11
138.804
 21
10.2335
  0
LINE
  5
1D4
100
AcDbEntity
  8
0
  6
ByLayer
 62
  256
370
   -1
100
AcDbLine
 10
138.804
 20
10.2335
 11
138.639
 21
10.1428
  0
LINE
  5
1D5
100
AcDbEntity
  8
0
  6
ByLayer
 62
  256
370
   -1
100
AcDbLine
 10
138.639
 20
10.1428
 11
138.464
 21
10.0734
  0
LINE
  5
1D6
100
AcDbEntity
  8
0
  6
ByLayer
 62
  256
370
   -1
100
AcDbLine
 10
138.464
 20
10.0734
 11
138.281
 21
10.0266
  0
LINE
  5
1D7
100
AcDbEntity
  8
0
  6
ByLayer
 62
  256
370
   -1
100
AcDbLine
 10
138.281
 20
10.0266
 11
138.094
 21
10.003
  0
LINE
  5
1D8
100
AcDbEntity
  8
0
  6
ByLayer
 62
  256
370
   -1
100
AcDbLine
 10
138.094
 20
10.003
 11
137.906
 21
10.003
  0
LINE
  5
1D9
100
AcDbEntity
  8
0
  6
ByLayer
 62
  256
370
   -1
100
AcDbLine
 10
137.906
 20
10.003
 11
137.719
 21
10.0266
  0
LINE
  5
1DA
100
AcDbEntity
  8
0
  6
ByLayer
 62
  256
370
   -1
100
AcDbLine
 10
137.719
 20
10.0266
 11
137.536
 21
10.0734
  0
LINE
  5
1DB
100
AcDbEntity
  8
0
  6
ByLayer
 62
  256
370
   -1
100
AcDbLine
 10
137.536
 20
10.0734
 11
137.361
 21
10.1428
  0
LINE
  5
1DC
100
AcDbEntity
  8
0
  6
ByLayer
 62
  256
370
   -1
100
AcDbLine
 10
137.361
 20
10.1428
 11
137.196
 21
10.2335
  0
LINE
  5
1DD
100
AcDbEntity
  8
0
  6
ByLayer
 62
  256
370
   -1
100
AcDbLine
 10
137.196
 20
10.2335
 11
137.044
 21
10.3442
  0
LINE
  5
1DE
100
AcDbEntity
  8
0
  6
ByLayer
 62
  256
370
   -1
100
AcDbLine
 10
137.044
 20
10.3442
 11
136.907
 21
10.4732
  0
LINE
  5
1DF
100
AcDbEntity
  8
0
  6
ByLayer
 62
  256
370
   -1
100
AcDbLine
 10
136.907
 20
10.4732
 11
136.786
 21
10.6183
  0
LINE
  5
1E0
100
AcDbEntity
  8
0
  6
ByLayer
 62
  256
370
   -1
100
AcDbLine
 10
136.786
 20
10.6183
 11
136.686
 21
10.7774
  0
LINE
  5
1E1
100
AcDbEntity
  8
0
  6
ByLayer
 62
  256
370
   -1
100
AcDbLine
 10
136.686
 20
10.7774
 11
136.605
 21
10.9478
  0
LINE
  5
1E2
100
AcDbEntity
  8
0
  6
ByLayer
 62
  256
370
   -1
100
AcDbLine
 10
136.605
 20
10.9478
 11
136.547
 21
11.127
  0
LINE
  5
1E3
100
AcDbEntity
  8
0
  6
ByLayer
 62
  256
370
   -1
100
AcDbLine
 10
136.547
 20
11.127
 11
136.512
 21
11.312
  0
LINE
  5
1E4
100
AcDbEntity
  8
0
  6
ByLayer
 62
  256
370
   -1
100
AcDbLine
 10
136.512
 20
11.312
 11
136.5
 21
11.5
  0
LINE
  5
1E5
100
AcDbEntity
  8
0
  6
ByLayer
 62
  256
370
   -1
100
AcDbLine
 10
136.5
 20
31.5
 11
136.512
 21
31.688
  0
LINE
  5
1E6
100
AcDbEntity
  8
0
  6
ByLayer
 62
  256
370
   -1
100
AcDbLine
 10
136.512
 20
31.688
 11
136.547
 21
31.873
  0
LINE
  5
1E7
100
AcDbEntity
  8
0
  6
ByLayer
 62
  256
370
   -1
100
AcDbLine
 10
136.547
 20
31.873
 11
136.605
 21
32.0522
  0
LINE
  5
1E8
100
AcDbEntity
  8
0
  6
ByLayer
 62
  256
370
   -1
100
AcDbLine
 10
136.605
 20
32.0522
 11
136.686
 21
32.2226
  0
LINE
  5
1E9
100
AcDbEntity
  8
0
  6
ByLayer
 62
  256
370
   -1
100
AcDbLine
 10
136.686
 20
32.2226
 11
136.786
 21
32.3817
  0
LINE
  5
1EA
100
AcDbEntity
  8
0
  6
ByLayer
 62
  256
370
   -1
100
AcDbLine
 10
136.786
 20
32.3817
 11
136.907
 21
32.5268
  0
LINE
  5
1EB
100
AcDbEntity
  8
0
  6
ByLayer
 62
  256
370
   -1
100
AcDbLine
 10
136.907
 20
32.5268
 11
137.044
 21
32.6558
  0
LINE
  5
1EC
100
AcDbEntity
  8
0
  6
ByLayer
 62
  256
370
   -1
100
AcDbLine
 10
137.044
 20
32.6558
 11
137.196
 21
32.7665
  0
LINE
  5
1ED
100
AcDbEntity
  8
0
  6
ByLayer
 62
  256
370
   -1
100
AcDbLine
 10
137.196
 20
32.7665
 11
137.361
 21
32.8572
  0
LINE
  5
1EE
100
AcDbEntity
  8
0
  6
ByLayer
 62
  256
370
   -1
100
AcDbLine
 10
137.361
 20
32.8572
 11
137.536
 21
32.9266
  0
LINE
  5
1EF
100
AcDbEntity
  8
0
  6
ByLayer
 62
  256
370
   -1
100
AcDbLine
 10
137.536
 20
32.9266
 11
137.719
 21
32.9734
  0
LINE
  5
1F0
100
AcDbEntity
  8
0
  6
ByLayer
 62
  256
370
   -1
100
AcDbLine
 10
137.719
 20
32.9734
 11
137.906
 21
32.997
  0
LINE
  5
1F1
100
AcDbEntity
  8
0
  6
ByLayer
 62
  256
370
   -1
100
AcDbLine
 10
137.906
 20
32.997
 11
138.094
 21
32.997
  0
LINE
  5
1F2
100
AcDbEntity
  8
0
  6
ByLayer
 62
  256
370
   -1
100
AcDbLine
 10
138.094
 20
32.997
 11
138.281
 21
32.9734
  0
LINE
  5
1F3
100
AcDbEntity
  8
0
  6
ByLayer
 62
  256
370
   -1
100
AcDbLine
 10
138.281
 20
32.9734
 11
138.464
 21
32.9266
  0
LINE
  5
1F4
100
AcDbEntity
  8
0
  6
ByLayer
 62
  256
370
   -1
100
AcDbLine
 10
138.464
 20
32.9266
 11
138.639
 21
32.8572
  0
LINE
  5
1F5
100
AcDbEntity
  8
0
  6
ByLayer
 62
  256
370
   -1
100
AcDbLine
 10
138.639
 20
32.8572
 11
138.804
 21
32.7665
  0
LINE
  5
1F6
100
AcDbEntity
  8
0
  6
ByLayer
 62
  256
370
   -1
100
AcDbLine
 10
138.804
 20
32.7665
 11
138.956
 21
32.6558
  0
LINE
  5
1F7
100
AcDbEntity
  8
0
  6
ByLayer
 62
  256
370
   -1
100
AcDbLine
 10
138.956
 20
32.6558
 11
139.093
 21
32.5268
  0
LINE
  5
1F8
100
AcDbEntity
  8
0
  6
ByLayer
 62
  256
370
   -1
100
AcDbLine
 10
139.093
 20
32.5268
 11
139.214
 21
32.3817
  0
LINE
  5
1F9
100
AcDbEntity
  8
0
  6
ByLayer
 62
  256
370
   -1
100
AcDbLine
 10
139.214
 20
32.3817
 11
139.314
 21
32.2226
  0
LINE
  5
1FA
100
AcDbEntity
  8
0
  6
ByLayer
 62
  256
370
   -1
100
AcDbLine
 10
139.314
 20
32.2226
 11
139.395
 21
32.0522
  0
LINE
  5
1FB
100
AcDbEntity
  8
0
  6
ByLayer
 62
  256
370
   -1
100
AcDbLine
 10
139.395
 20
32.0522
 11
139.453
 21
31.873
  0
LINE
  5
1FC
100
AcDbEntity
  8
0
  6
ByLayer
 62
  256
370
   -1
100
AcDbLine
 10
139.453
 20
31.873
 11
139.488
 21
31.688
  0
LINE
  5
1FD
100
AcDbEntity
  8
0
  6
ByLayer
 62
  256
370
   -1
100
AcDbLine
 10
139.488
 20
31.688
 11
139.5
 21
31.5
  0
LINE
  5
1FE
100
AcDbEntity
  8
0
  6
ByLayer
 62
  256
370
   -1
100
AcDbLine
 10
139.5
 20
31.5
 11
139.488
 21
31.312
  0
LINE
  5
1FF
100
AcDbEntity
  8
0
  6
ByLayer
 62
  256
370
   -1
100
AcDbLine
 10
139.488
 20
31.312
 11
139.453
 21
31.127
  0
LINE
  5
200
100
AcDbEntity
  8
0
  6
ByLayer
 62
  256
370
   -1
100
AcDbLine
 10
139.453
 20
31.127
 11
139.395
 21
30.9478
  0
LINE
  5
201
100
AcDbEntity
  8
0
  6
ByLayer
 62
  256
370
   -1
100
AcDbLine
 10
139.395
 20
30.9478
 11
139.314
 21
30.7774
  0
LINE
  5
202
100
AcDbEntity
  8
0
  6
ByLayer
 62
  256
370
   -1
100
AcDbLine
 10
139.314
 20
30.7774
 11
139.214
 21
30.6183
  0
LINE
  5
203
100
AcDbEntity
  8
0
  6
ByLayer
 62
  256
370
   -1
100
AcDbLine
 10
139.214
 20
30.6183
 11
139.093
 21
30.4732
  0
LINE
  5
204
100
AcDbEntity
  8
0
  6
ByLayer
 62
  256
370
   -1
100
AcDbLine
 10
139.093
 20
30.4732
 11
138.956
 21
30.3442
  0
LINE
  5
205
100
AcDbEntity
  8
0
  6
ByLayer
 62
  256
370
   -1
100
AcDbLine
 10
138.956
 20
30.3442
 11
138.804
 21
30.2335
  0
LINE
  5
206
100
AcDbEntity
  8
0
  6
ByLayer
 62
  256
370
   -1
100
AcDbLine
 10
138.804
 20
30.2335
 11
138.639
 21
30.1428
  0
LINE
  5
207
100
AcDbEntity
  8
0
  6
ByLayer
 62
  256
370
   -1
100
AcDbLine
 10
138.639
 20
30.1428
 11
138.464
 21
30.0734
  0
LINE
  5
208
100
AcDbEntity
  8
0
  6
ByLayer
 62
  256
370
   -1
100
AcDbLine
 10
138.464
 20
30.0734
 11
138.281
 21
30.0266
  0
LINE
  5
209
100
AcDbEntity
  8
0
  6
ByLayer
 62
  256
370
   -1
100
AcDbLine
 10
138.281
 20
30.0266
 11
138.094
 21
30.003
  0
LINE
  5
20A
100
AcDbEntity
  8
0
  6
ByLayer
 62
  256
370
   -1
100
AcDbLine
 10
138.094
 20
30.003
 11
137.906
 21
30.003
  0
LINE
  5
20B
100
AcDbEntity
  8
0
  6
ByLayer
 62
  256
370
   -1
100
AcDbLine
 10
137.906
 20
30.003
 11
137.719
 21
30.0266
  0
LINE
  5
20C
100
AcDbEntity
  8
0
  6
ByLayer
 62
  256
370
   -1
100
AcDbLine
 10
137.719
 20
30.0266
 11
137.536
 21
30.0734
  0
LINE
  5
20D
100
AcDbEntity
  8
0
  6
ByLayer
 62
  256
370
   -1
100
AcDbLine
 10
137.536
 20
30.0734
 11
137.361
 21
30.1428
  0
LINE
  5
20E
100
AcDbEntity
  8
0
  6
ByLayer
 62
  256
370
   -1
100
AcDbLine
 10
137.361
 20
30.1428
 11
137.196
 21
30.2335
  0
LINE
  5
20F
100
AcDbEntity
  8
0
  6
ByLayer
 62
  256
370
   -1
100
AcDbLine
 10
137.196
 20
30.2335
 11
137.044
 21
30.3442
  0
LINE
  5
210
100
AcDbEntity
  8
0
  6
ByLayer
 62
  256
370
   -1
100
AcDbLine
 10
137.044
 20
30.3442
 11
136.907
 21
30.4732
  0
LINE
  5
211
100
AcDbEntity
  8
0
  6
ByLayer
 62
  256
370
   -1
100
AcDbLine
 10
136.907
 20
30.4732
 11
136.786
 21
30.6183
  0
LINE
  5
212
100
AcDbEntity
  8
0
  6
ByLayer
 62
  256
370
   -1
100
AcDbLine
 10
136.786
 20
30.6183
 11
136.686
 21
30.7774
  0
LINE
  5
213
100
AcDbEntity
  8
0
  6
ByLayer
 62
  256
370
   -1
100
AcDbLine
 10
136.686
 20
30.7774
 11
136.605
 21
30.9478
  0
LINE
  5
214
100
AcDbEntity
  8
0
  6
ByLayer
 62
  256
370
   -1
100
AcDbLine
 10
136.605
 20
30.9478
 11
136.547
 21
31.127
  0
LINE
  5
215
100
AcDbEntity
  8
0
  6
ByLayer
 62
  256
370
   -1
100
AcDbLine
 10
136.547
 20
31.127
 11
136.512
 21
31.312
  0
LINE
  5
216
100
AcDbEntity
  8
0
  6
ByLayer
 62
  256
370
   -1
100
AcDbLine
 10
136.512
 20
31.312
 11
136.5
 21
31.5
  0
LINE
  5
217
100
AcDbEntity
  8
0
  6
ByLayer
 62
  256
370
   -1
100
AcDbLine
 10
151.5
 20
10
 11
151.512
 21
10.188
  0
LINE
  5
218
100
AcDbEntity
  8
0
  6
ByLayer
 62
  256
370
   -1
100
AcDbLine
 10
151.512
 20
10.188
 11
151.547
 21
10.373
  0
LINE
  5
219
100
AcDbEntity
  8
0
  6
ByLayer
 62
  256
370
   -1
100
AcDbLine
 10
151.547
 20
10.373
 11
151.605
 21
10.5522
  0
LINE
  5
21A
100
AcDbEntity
  8
0
  6
ByLayer
 62
  256
370
   -1
100
AcDbLine
 10
151.605
 20
10.5522
 11
151.686
 21
10.7226
  0
LINE
  5
21B
100
AcDbEntity
  8
0
  6
ByLayer
 62
  256
370
   -1
100
AcDbLine
 10
151.686
 20
10.7226
 11
151.786
 21
10.8817
  0
LINE
  5
21C
100
AcDbEntity
  8
0
  6
ByLayer
 62
  256
370
   -1
100
AcDbLine
 10
151.786
 20
10.8817
 11
151.907
 21
11.0268
  0
LINE
  5
21D
100
AcDbEntity
  8
0
  6
ByLayer
 62
  256
370
   -1
100
AcDbLine
 10
151.907
 20
11.0268
 11
152.044
 21
11.1558
  0
LINE
  5
21E
100
AcDbEntity
  8
0
  6
ByLayer
 62
  256
370
   -1
100
AcDbLine
 10
152.044
 20
11.1558
 11
152.196
 21
11.2665
  0
LINE
  5
21F
100
AcDbEntity
  8
0
  6
ByLayer
 62
  256
370
   -1
100
AcDbLine
 10
152.196
 20
11.2665
 11
152.361
 21
11.3572
  0
LINE
  5
220
100
AcDbEntity
  8
0
  6
ByLayer
 62
  256
370
   -1
100
AcDbLine
 10
152.361
 20
11.3572
 11
152.536
 21
11.4266
  0
LINE
  5
221
100
AcDbEntity
  8
0
  6
ByLayer
 62
  256
370
   -1
100
AcDbLine
 10
152.536
 20
11.4266
 11
152.719
 21
11.4734
  0
LINE
  5
222
100
AcDbEntity
  8
0
  6
ByLayer
 62
  256
370
   -1
100
AcDbLine
 10
152.719
 20
11.4734
 11
152.906
 21
11.497
  0
LINE
  5
223
100
AcDbEntity
  8
0
  6
ByLayer
 62
  256
370
   -1
100
AcDbLine
 10
152.906
 20
11.497
 11
153.094
 21
11.497
  0
LINE
  5
224
100
AcDbEntity
  8
0
  6
ByLayer
 62
  256
370
   -1
100
AcDbLine
 10
153.094
 20
11.497
 11
153.281
 21
11.4734
  0
LINE
  5
225
100
AcDbEntity
  8
0
  6
ByLayer
 62
  256
370
   -1
100
AcDbLine
 10
153.281
 20
11.4734
 11
153.464
 21
11.4266
  0
LINE
  5
226
100
AcDbEntity
  8
0
  6
ByLayer
 62
  256
370
   -1
100
AcDbLine
 10
153.464
 20
11.4266
 11
153.639
 21
11.3572
  0
LINE
  5
227
100
AcDbEntity
  8
0
  6
ByLayer
 62
  256
370
   -1
100
AcDbLine
 10
153.639
 20
11.3572
 11
153.804
 21
11.2665
  0
LINE
  5
228
100
AcDbEntity
  8
0
  6
ByLayer
 62
  256
370
   -1
100
AcDbLine
 10
153.804
 20
11.2665
 11
153.956
 21
11.1558
  0
LINE
  5
229
100
AcDbEntity
  8
0
  6
ByLayer
 62
  256
370
   -1
100
AcDbLine
 10
153.956
 20
11.1558
 11
154.093
 21
11.0268
  0
LINE
  5
22A
100
AcDbEntity
  8
0
  6
ByLayer
 62
  256
370
   -1
100
AcDbLine
 10
154.093
 20
11.0268
 11
154.214
 21
10.8817
  0
LINE
  5
22B
100
AcDbEntity
  8
0
  6
ByLayer
 62
  256
370
   -1
100
AcDbLine
 10
154.214
 20
10.8817
 11
154.314
 21
10.7226
  0
LINE
  5
22C
100
AcDbEntity
  8
0
  6
ByLayer
 62
  256
370
   -1
100
AcDbLine
 10
154.314
 20
10.7226
 11
154.395
 21
10.5522
  0
LINE
  5
22D
100
AcDbEntity
  8
0
  6
ByLayer
 62
  256
370
   -1
100
AcDbLine
 10
154.395
 20
10.5522
 11
154.453
 21
10.373
  0
LINE
  5
22E
100
AcDbEntity
  8
0
  6
ByLayer
 62
  256
370
   -1
100
AcDbLine
 10
154.453
 20
10.373
 11
154.488
 21
10.188
  0
LINE
  5
22F
100
AcDbEntity
  8
0
  6
ByLayer
 62
  256
370
   -1
100
AcDbLine
 10
154.488
 20
10.188
 11
154.5
 21
10
  0
LINE
  5
230
100
AcDbEntity
  8
0
  6
ByLayer
 62
  256
370
   -1
100
AcDbLine
 10
154.5
 20
10
 11
154.488
 21
9.811999999999999
  0
LINE
  5
231
100
AcDbEntity
  8
0
  6
ByLayer
 62
  256
370
   -1
100
AcDbLine
 10
154.488
 20
9.811999999999999
 11
154.453
 21
9.62696
  0
LINE
  5
232
100
AcDbEntity
  8
0
  6
ByLayer
 62
  256
370
   -1
100
AcDbLine
 10
154.453
 20
9.62696
 11
154.395
 21
9.44781
  0
LINE
  5
233
100
AcDbEntity
  8
0
  6
ByLayer
 62
  256
370
   -1
100
AcDbLine
 10
154.395
 20
9.44781
 11
154.314
 21
9.277369999999999
  0
LINE
  5
234
100
AcDbEntity
  8
0
  6
ByLayer
 62
  256
370
   -1
100
AcDbLine
 10
154.314
 20
9.277369999999999
 11
154.214
 21
9.118320000000001
  0
LINE
  5
235
100
AcDbEntity
  8
0
  6
ByLayer
 62
  256
370
   -1
100
AcDbLine
 10
154.214
 20
9.118320000000001
 11
154.093
 21
8.973179999999999
  0
LINE
  5
236
100
AcDbEntity
  8
0
  6
ByLayer
 62
  256
370
   -1
100
AcDbLine
 10
154.093
 20
8.973179999999999
 11
153.956
 21
8.84423
  0
LINE
  5
237
100
AcDbEntity
  8
0
  6
ByLayer
 62
  256
370
   -1
100
AcDbLine
 10
153.956
 20
8.84423
 11
153.804
 21
8.733510000000001
  0
LINE
  5
238
100
AcDbEntity
  8
0
  6
ByLayer
 62
  256
370
   -1
100
AcDbLine
 10
153.804
 20
8.733510000000001
 11
153.639
 21
8.642760000000001
  0
LINE
  5
239
100
AcDbEntity
  8
0
  6
ByLayer
 62
  256
370
   -1
100
AcDbLine
 10
153.639
 20
8.642760000000001
 11
153.464
 21
8.573410000000001
  0
LINE
  5
23A
100
AcDbEntity
  8
0
  6
ByLayer
 62
  256
370
   -1
100
AcDbLine
 10
153.464
 20
8.573410000000001
 11
153.281
 21
8.52657
  0
LINE
  5
23B
100
AcDbEntity
  8
0
  6
ByLayer
 62
  256
370
   -1
100
AcDbLine
 10
153.281
 20
8.52657
 11
153.094
 21
8.50296
  0
LINE
  5
23C
100
AcDbEntity
  8
0
  6
ByLayer
 62
  256
370
   -1
100
AcDbLine
 10
153.094
 20
8.50296
 11
152.906
 21
8.50296
  0
LINE
  5
23D
100
AcDbEntity
  8
0
  6
ByLayer
 62
  256
370
   -1
100
AcDbLine
 10
152.906
 20
8.50296
 11
152.719
 21
8.52657
  0
LINE
  5
23E
100
AcDbEntity
  8
0
  6
ByLayer
 62
  256
370
   -1
100
AcDbLine
 10
152.719
 20
8.52657
 11
152.536
 21
8.573410000000001
  0
LINE
  5
23F
100
AcDbEntity
  8
0
  6
ByLayer
 62
  256
370
   -1
100
AcDbLine
 10
152.536
 20
8.573410000000001
 11
152.361
 21
8.642760000000001
  0
LINE
  5
240
100
AcDbEntity
  8
0
  6
ByLayer
 62
  256
370
   -1
100
AcDbLine
 10
152.361
 20
8.642760000000001
 11
152.196
 21
8.733510000000001
  0
LINE
  5
241
100
AcDbEntity
  8
0
  6
ByLayer
 62
  256
370
   -1
100
AcDbLine
 10
152.196
 20
8.733510000000001
 11
152.044
 21
8.84423
  0
LINE
  5
242
100
AcDbEntity
  8
0
  6
ByLayer
 62
  256
370
   -1
100
AcDbLine
 10
152.044
 20
8.84423
 11
151.907
 21
8.973179999999999
  0
LINE
  5
243
100
AcDbEntity
  8
0
  6
ByLayer
 62
  256
370
   -1
100
AcDbLine
 10
151.907
 20
8.973179999999999
 11
151.786
 21
9.118320000000001
  0
LINE
  5
244
100
AcDbEntity
  8
0
  6
ByLayer
 62
  256
370
   -1
100
AcDbLine
 10
151.786
 20
9.118320000000001
 11
151.686
 21
9.277369999999999
  0
LINE
  5
245
100
AcDbEntity
  8
0
  6
ByLayer
 62
  256
370
   -1
100
AcDbLine
 10
151.686
 20
9.277369999999999
 11
151.605
 21
9.44781
  0
LINE
  5
246
100
AcDbEntity
  8
0
  6
ByLayer
 62
  256
370
   -1
100
AcDbLine
 10
151.605
 20
9.44781
 11
151.547
 21
9.62696
  0
LINE
  5
247
100
AcDbEntity
  8
0
  6
ByLayer
 62
  256
370
   -1
100
AcDbLine
 10
151.547
 20
9.62696
 11
151.512
 21
9.811999999999999
  0
LINE
  5
248
100
AcDbEntity
  8
0
  6
ByLayer
 62
  256
370
   -1
100
AcDbLine
 10
151.512
 20
9.811999999999999
 11
151.5
 21
10
  0
LINE
  5
249
100
AcDbEntity
  8
0
  6
ByLayer
 62
  256
370
   -1
100
AcDbLine
 10
151.5
 20
33
 11
151.512
 21
33.188
  0
LINE
  5
24A
100
AcDbEntity
  8
0
  6
ByLayer
 62
  256
370
   -1
100
AcDbLine
 10
151.512
 20
33.188
 11
151.547
 21
33.373
  0
LINE
  5
24B
100
AcDbEntity
  8
0
  6
ByLayer
 62
  256
370
   -1
100
AcDbLine
 10
151.547
 20
33.373
 11
151.605
 21
33.5522
  0
LINE
  5
24C
100
AcDbEntity
  8
0
  6
ByLayer
 62
  256
370
   -1
100
AcDbLine
 10
151.605
 20
33.5522
 11
151.686
 21
33.7226
  0
LINE
  5
24D
100
AcDbEntity
  8
0
  6
ByLayer
 62
  256
370
   -1
100
AcDbLine
 10
151.686
 20
33.7226
 11
151.786
 21
33.8817
  0
LINE
  5
24E
100
AcDbEntity
  8
0
  6
ByLayer
 62
  256
370
   -1
100
AcDbLine
 10
151.786
 20
33.8817
 11
151.907
 21
34.0268
  0
LINE
  5
24F
100
AcDbEntity
  8
0
  6
ByLayer
 62
  256
370
   -1
100
AcDbLine
 10
151.907
 20
34.0268
 11
152.044
 21
34.1558
  0
LINE
  5
250
100
AcDbEntity
  8
0
  6
ByLayer
 62
  256
370
   -1
100
AcDbLine
 10
152.044
 20
34.1558
 11
152.196
 21
34.2665
  0
LINE
  5
251
100
AcDbEntity
  8
0
  6
ByLayer
 62
  256
370
   -1
100
AcDbLine
 10
152.196
 20
34.2665
 11
152.361
 21
34.3572
  0
LINE
  5
252
100
AcDbEntity
  8
0
  6
ByLayer
 62
  256
370
   -1
100
AcDbLine
 10
152.361
 20
34.3572
 11
152.536
 21
34.4266
  0
LINE
  5
253
100
AcDbEntity
  8
0
  6
ByLayer
 62
  256
370
   -1
100
AcDbLine
 10
152.536
 20
34.4266
 11
152.719
 21
34.4734
  0
LINE
  5
254
100
AcDbEntity
  8
0
  6
ByLayer
 62
  256
370
   -1
100
AcDbLine
 10
152.719
 20
34.4734
 11
152.906
 21
34.497
  0
LINE
  5
255
100
AcDbEntity
  8
0
  6
ByLayer
 62
  256
370
   -1
100
AcDbLine
 10
152.906
 20
34.497
 11
153.094
 21
34.497
  0
LINE
  5
256
100
AcDbEntity
  8
0
  6
ByLayer
 62
  256
370
   -1
100
AcDbLine
 10
153.094
 20
34.497
 11
153.281
 21
34.4734
  0
LINE
  5
257
100
AcDbEntity
  8
0
  6
ByLayer
 62
  256
370
   -1
100
AcDbLine
 10
153.281
 20
34.4734
 11
153.464
 21
34.4266
  0
LINE
  5
258
100
AcDbEntity
  8
0
  6
ByLayer
 62
  256
370
   -1
100
AcDbLine
 10
153.464
 20
34.4266
 11
153.639
 21
34.3572
  0
LINE
  5
259
100
AcDbEntity
  8
0
  6
ByLayer
 62
  256
370
   -1
100
AcDbLine
 10
153.639
 20
34.3572
 11
153.804
 21
34.2665
  0
LINE
  5
25A
100
AcDbEntity
  8
0
  6
ByLayer
 62
  256
370
   -1
100
AcDbLine
 10
153.804
 20
34.2665
 11
153.956
 21
34.1558
  0
LINE
  5
25B
100
AcDbEntity
  8
0
  6
ByLayer
 62
  256
370
   -1
100
AcDbLine
 10
153.956
 20
34.1558
 11
154.093
 21
34.0268
  0
LINE
  5
25C
100
AcDbEntity
  8
0
  6
ByLayer
 62
  256
370
   -1
100
AcDbLine
 10
154.093
 20
34.0268
 11
154.214
 21
33.8817
  0
LINE
  5
25D
100
AcDbEntity
  8
0
  6
ByLayer
 62
  256
370
   -1
100
AcDbLine
 10
154.214
 20
33.8817
 11
154.314
 21
33.7226
  0
LINE
  5
25E
100
AcDbEntity
  8
0
  6
ByLayer
 62
  256
370
   -1
100
AcDbLine
 10
154.314
 20
33.7226
 11
154.395
 21
33.5522
  0
LINE
  5
25F
100
AcDbEntity
  8
0
  6
ByLayer
 62
  256
370
   -1
100
AcDbLine
 10
154.395
 20
33.5522
 11
154.453
 21
33.373
  0
LINE
  5
260
100
AcDbEntity
  8
0
  6
ByLayer
 62
  256
370
   -1
100
AcDbLine
 10
154.453
 20
33.373
 11
154.488
 21
33.188
  0
LINE
  5
261
100
AcDbEntity
  8
0
  6
ByLayer
 62
  256
370
   -1
100
AcDbLine
 10
154.488
 20
33.188
 11
154.5
 21
33
  0
LINE
  5
262
100
AcDbEntity
  8
0
  6
ByLayer
 62
  256
370
   -1
100
AcDbLine
 10
154.5
 20
33
 11
154.488
 21
32.812
  0
LINE
  5
263
100
AcDbEntity
  8
0
  6
ByLayer
 62
  256
370
   -1
100
AcDbLine
 10
154.488
 20
32.812
 11
154.453
 21
32.627
  0
LINE
  5
264
100
AcDbEntity
  8
0
  6
ByLayer
 62
  256
370
   -1
100
AcDbLine
 10
154.453
 20
32.627
 11
154.395
 21
32.4478
  0
LINE
  5
265
100
AcDbEntity
  8
0
  6
ByLayer
 62
  256
370
   -1
100
AcDbLine
 10
154.395
 20
32.4478
 11
154.314
 21
32.2774
  0
LINE
  5
266
100
AcDbEntity
  8
0
  6
ByLayer
 62
  256
370
   -1
100
AcDbLine
 10
154.314
 20
32.2774
 11
154.214
 21
32.1183
  0
LINE
  5
267
100
AcDbEntity
  8
0
  6
ByLayer
 62
  256
370
   -1
100
AcDbLine
 10
154.214
 20
32.1183
 11
154.093
 21
31.9732
  0
LINE
  5
268
100
AcDbEntity
  8
0
  6
ByLayer
 62
  256
370
   -1
100
AcDbLine
 10
154.093
 20
31.9732
 11
153.956
 21
31.8442
  0
LINE
  5
269
100
AcDbEntity
  8
0
  6
ByLayer
 62
  256
370
   -1
100
AcDbLine
 10
153.956
 20
31.8442
 11
153.804
 21
31.7335
  0
LINE
  5
26A
100
AcDbEntity
  8
0
  6
ByLayer
 62
  256
370
   -1
100
AcDbLine
 10
153.804
 20
31.7335
 11
153.639
 21
31.6428
  0
LINE
  5
26B
100
AcDbEntity
  8
0
  6
ByLayer
 62
  256
370
   -1
100
AcDbLine
 10
153.639
 20
31.6428
 11
153.464
 21
31.5734
  0
LINE
  5
26C
100
AcDbEntity
  8
0
  6
ByLayer
 62
  256
370
   -1
100
AcDbLine
 10
153.464
 20
31.5734
 11
153.281
 21
31.5266
  0
LINE
  5
26D
100
AcDbEntity
  8
0
  6
ByLayer
 62
  256
370
   -1
100
AcDbLine
 10
153.281
 20
31.5266
 11
153.094
 21
31.503
  0
LINE
  5
26E
100
AcDbEntity
  8
0
  6
ByLayer
 62
  256
370
   -1
100
AcDbLine
 10
153.094
 20
31.503
 11
152.906
 21
31.503
  0
LINE
  5
26F
100
AcDbEntity
  8
0
  6
ByLayer
 62
  256
370
   -1
100
AcDbLine
 10
152.906
 20
31.503
 11
152.719
 21
31.5266
  0
LINE
  5
270
100
AcDbEntity
  8
0
  6
ByLayer
 62
  256
370
   -1
100
AcDbLine
 10
152.719
 20
31.5266
 11
152.536
 21
31.5734
  0
LINE
  5
271
100
AcDbEntity
  8
0
  6
ByLayer
 62
  256
370
   -1
100
AcDbLine
 10
152.536
 20
31.5734
 11
152.361
 21
31.6428
  0
LINE
  5
272
100
AcDbEntity
  8
0
  6
ByLayer
 62
  256
370
   -1
100
AcDbLine
 10
152.361
 20
31.6428
 11
152.196
 21
31.7335
  0
LINE
  5
273
100
AcDbEntity
  8
0
  6
ByLayer
 62
  256
370
   -1
100
AcDbLine
 10
152.196
 20
31.7335
 11
152.044
 21
31.8442
  0
LINE
  5
274
100
AcDbEntity
  8
0
  6
ByLayer
 62
  256
370
   -1
100
AcDbLine
 10
152.044
 20
31.8442
 11
151.907
 21
31.9732
  0
LINE
  5
275
100
AcDbEntity
  8
0
  6
ByLayer
 62
  256
370
   -1
100
AcDbLine
 10
151.907
 20
31.9732
 11
151.786
 21
32.1183
  0
LINE
  5
276
100
AcDbEntity
  8
0
  6
ByLayer
 62
  256
370
   -1
100
AcDbLine
 10
151.786
 20
32.1183
 11
151.686
 21
32.2774
  0
LINE
  5
277
100
AcDbEntity
  8
0
  6
ByLayer
 62
  256
370
   -1
100
AcDbLine
 10
151.686
 20
32.2774
 11
151.605
 21
32.4478
  0
LINE
  5
278
100
AcDbEntity
  8
0
  6
ByLayer
 62
  256
370
   -1
100
AcDbLine
 10
151.605
 20
32.4478
 11
151.547
 21
32.627
  0
LINE
  5
279
100
AcDbEntity
  8
0
  6
ByLayer
 62
  256
370
   -1
100
AcDbLine
 10
151.547
 20
32.627
 11
151.512
 21
32.812
  0
LINE
  5
27A
100
AcDbEntity
  8
0
  6
ByLayer
 62
  256
370
   -1
100
AcDbLine
 10
151.512
 20
32.812
 11
151.5
 21
33
  0
LINE
  5
27B
100
AcDbEntity
  8
0
  6
ByLayer
 62
  256
370
   -1
100
AcDbLine
 10
198.5
 20
10
 11
198.512
 21
10.188
  0
LINE
  5
27C
100
AcDbEntity
  8
0
  6
ByLayer
 62
  256
370
   -1
100
AcDbLine
 10
198.512
 20
10.188
 11
198.547
 21
10.373
  0
LINE
  5
27D
100
AcDbEntity
  8
0
  6
ByLayer
 62
  256
370
   -1
100
AcDbLine
 10
198.547
 20
10.373
 11
198.605
 21
10.5522
  0
LINE
  5
27E
100
AcDbEntity
  8
0
  6
ByLayer
 62
  256
370
   -1
100
AcDbLine
 10
198.605
 20
10.5522
 11
198.686
 21
10.7226
  0
LINE
  5
27F
100
AcDbEntity
  8
0
  6
ByLayer
 62
  256
370
   -1
100
AcDbLine
 10
198.686
 20
10.7226
 11
198.786
 21
10.8817
  0
LINE
  5
280
100
AcDbEntity
  8
0
  6
ByLayer
 62
  256
370
   -1
100
AcDbLine
 10
198.786
 20
10.8817
 11
198.907
 21
11.0268
  0
LINE
  5
281
100
AcDbEntity
  8
0
  6
ByLayer
 62
  256
370
   -1
100
AcDbLine
 10
198.907
 20
11.0268
 11
199.044
 21
11.1558
  0
LINE
  5
282
100
AcDbEntity
  8
0
  6
ByLayer
 62
  256
370
   -1
100
AcDbLine
 10
199.044
 20
11.1558
 11
199.196
 21
11.2665
  0
LINE
  5
283
100
AcDbEntity
  8
0
  6
ByLayer
 62
  256
370
   -1
100
AcDbLine
 10
199.196
 20
11.2665
 11
199.361
 21
11.3572
  0
LINE
  5
284
100
AcDbEntity
  8
0
  6
ByLayer
 62
  256
370
   -1
100
AcDbLine
 10
199.361
 20
11.3572
 11
199.536
 21
11.4266
  0
LINE
  5
285
100
AcDbEntity
  8
0
  6
ByLayer
 62
  256
370
   -1
100
AcDbLine
 10
199.536
 20
11.4266
 11
199.719
 21
11.4734
  0
LINE
  5
286
100
AcDbEntity
  8
0
  6
ByLayer
 62
  256
370
   -1
100
AcDbLine
 10
199.719
 20
11.4734
 11
199.906
 21
11.497
  0
LINE
  5
287
100
AcDbEntity
  8
0
  6
ByLayer
 62
  256
370
   -1
100
AcDbLine
 10
199.906
 20
11.497
 11
200.094
 21
11.497
  0
LINE
  5
288
100
AcDbEntity
  8
0
  6
ByLayer
 62
  256
370
   -1
100
AcDbLine
 10
200.094
 20
11.497
 11
200.281
 21
11.4734
  0
LINE
  5
289
100
AcDbEntity
  8
0
  6
ByLayer
 62
  256
370
   -1
100
AcDbLine
 10
200.281
 20
11.4734
 11
200.464
 21
11.4266
  0
LINE
  5
28A
100
AcDbEntity
  8
0
  6
ByLayer
 62
  256
370
   -1
100
AcDbLine
 10
200.464
 20
11.4266
 11
200.639
 21
11.3572
  0
LINE
  5
28B
100
AcDbEntity
  8
0
  6
ByLayer
 62
  256
370
   -1
100
AcDbLine
 10
200.639
 20
11.3572
 11
200.804
 21
11.2665
  0
LINE
  5
28C
100
AcDbEntity
  8
0
  6
ByLayer
 62
  256
370
   -1
100
AcDbLine
 10
200.804
 20
11.2665
 11
200.956
 21
11.1558
  0
LINE
  5
28D
100
AcDbEntity
  8
0
  6
ByLayer
 62
  256
370
   -1
100
AcDbLine
 10
200.956
 20
11.1558
 11
201.093
 21
11.0268
  0
LINE
  5
28E
100
AcDbEntity
  8
0
  6
ByLayer
 62
  256
370
   -1
100
AcDbLine
 10
201.093
 20
11.0268
 11
201.214
 21
10.8817
  0
LINE
  5
28F
100
AcDbEntity
  8
0
  6
ByLayer
 62
  256
370
   -1
100
AcDbLine
 10
201.214
 20
10.8817
 11
201.314
 21
10.7226
  0
LINE
  5
290
100
AcDbEntity
  8
0
  6
ByLayer
 62
  256
370
   -1
100
AcDbLine
 10
201.314
 20
10.7226
 11
201.395
 21
10.5522
  0
LINE
  5
291
100
AcDbEntity
  8
0
  6
ByLayer
 62
  256
370
   -1
100
AcDbLine
 10
201.395
 20
10.5522
 11
201.453
 21
10.373
  0
LINE
  5
292
100
AcDbEntity
  8
0
  6
ByLayer
 62
  256
370
   -1
100
AcDbLine
 10
201.453
 20
10.373
 11
201.488
 21
10.188
  0
LINE
  5
293
100
AcDbEntity
  8
0
  6
ByLayer
 62
  256
370
   -1
100
AcDbLine
 10
201.488
 20
10.188
 11
201.5
 21
10
  0
LINE
  5
294
100
AcDbEntity
  8
0
  6
ByLayer
 62
  256
370
   -1
100
AcDbLine
 10
201.5
 20
10
 11
201.488
 21
9.811999999999999
  0
LINE
  5
295
100
AcDbEntity
  8
0
  6
ByLayer
 62
  256
370
   -1
100
AcDbLine
 10
201.488
 20
9.811999999999999
 11
201.453
 21
9.62696
  0
LINE
  5
296
100
AcDbEntity
  8
0
  6
ByLayer
 62
  256
370
   -1
100
AcDbLine
 10
201.453
 20
9.62696
 11
201.395
 21
9.44781
  0
LINE
  5
297
100
AcDbEntity
  8
0
  6
ByLayer
 62
  256
370
   -1
100
AcDbLine
 10
201.395
 20
9.44781
 11
201.314
 21
9.277369999999999
  0
LINE
  5
298
100
AcDbEntity
  8
0
  6
ByLayer
 62
  256
370
   -1
100
AcDbLine
 10
201.314
 20
9.277369999999999
 11
201.214
 21
9.118320000000001
  0
LINE
  5
299
100
AcDbEntity
  8
0
  6
ByLayer
 62
  256
370
   -1
100
AcDbLine
 10
201.214
 20
9.118320000000001
 11
201.093
 21
8.973179999999999
  0
LINE
  5
29A
100
AcDbEntity
  8
0
  6
ByLayer
 62
  256
370
   -1
100
AcDbLine
 10
201.093
 20
8.973179999999999
 11
200.956
 21
8.84423
  0
LINE
  5
29B
100
AcDbEntity
  8
0
  6
ByLayer
 62
  256
370
   -1
100
AcDbLine
 10
200.956
 20
8.84423
 11
200.804
 21
8.733510000000001
  0
LINE
  5
29C
100
AcDbEntity
  8
0
  6
ByLayer
 62
  256
370
   -1
100
AcDbLine
 10
200.804
 20
8.733510000000001
 11
200.639
 21
8.642760000000001
  0
LINE
  5
29D
100
AcDbEntity
  8
0
  6
ByLayer
 62
  256
370
   -1
100
AcDbLine
 10
200.639
 20
8.642760000000001
 11
200.464
 21
8.573410000000001
  0
LINE
  5
29E
100
AcDbEntity
  8
0
  6
ByLayer
 62
  256
370
   -1
100
AcDbLine
 10
200.464
 20
8.573410000000001
 11
200.281
 21
8.52657
  0
LINE
  5
29F
100
AcDbEntity
  8
0
  6
ByLayer
 62
  256
370
   -1
100
AcDbLine
 10
200.281
 20
8.52657
 11
200.094
 21
8.50296
  0
LINE
  5
2A0
100
AcDbEntity
  8
0
  6
ByLayer
 62
  256
370
   -1
100
AcDbLine
 10
200.094
 20
8.50296
 11
199.906
 21
8.50296
  0
LINE
  5
2A1
100
AcDbEntity
  8
0
  6
ByLayer
 62
  256
370
   -1
100
AcDbLine
 10
199.906
 20
8.50296
 11
199.719
 21
8.52657
  0
LINE
  5
2A2
100
AcDbEntity
  8
0
  6
ByLayer
 62
  256
370
   -1
100
AcDbLine
 10
199.719
 20
8.52657
 11
199.536
 21
8.573410000000001
  0
LINE
  5
2A3
100
AcDbEntity
  8
0
  6
ByLayer
 62
  256
370
   -1
100
AcDbLine
 10
199.536
 20
8.573410000000001
 11
199.361
 21
8.642760000000001
  0
LINE
  5
2A4
100
AcDbEntity
  8
0
  6
ByLayer
 62
  256
370
   -1
100
AcDbLine
 10
199.361
 20
8.642760000000001
 11
199.196
 21
8.733510000000001
  0
LINE
  5
2A5
100
AcDbEntity
  8
0
  6
ByLayer
 62
  256
370
   -1
100
AcDbLine
 10
199.196
 20
8.733510000000001
 11
199.044
 21
8.84423
  0
LINE
  5
2A6
100
AcDbEntity
  8
0
  6
ByLayer
 62
  256
370
   -1
100
AcDbLine
 10
199.044
 20
8.84423
 11
198.907
 21
8.973179999999999
  0
LINE
  5
2A7
100
AcDbEntity
  8
0
  6
ByLayer
 62
  256
370
   -1
100
AcDbLine
 10
198.907
 20
8.973179999999999
 11
198.786
 21
9.118320000000001
  0
LINE
  5
2A8
100
AcDbEntity
  8
0
  6
ByLayer
 62
  256
370
   -1
100
AcDbLine
 10
198.786
 20
9.118320000000001
 11
198.686
 21
9.277369999999999
  0
LINE
  5
2A9
100
AcDbEntity
  8
0
  6
ByLayer
 62
  256
370
   -1
100
AcDbLine
 10
198.686
 20
9.277369999999999
 11
198.605
 21
9.44781
  0
LINE
  5
2AA
100
AcDbEntity
  8
0
  6
ByLayer
 62
  256
370
   -1
100
AcDbLine
 10
198.605
 20
9.44781
 11
198.547
 21
9.62696
  0
LINE
  5
2AB
100
AcDbEntity
  8
0
  6
ByLayer
 62
  256
370
   -1
100
AcDbLine
 10
198.547
 20
9.62696
 11
198.512
 21
9.811999999999999
  0
LINE
  5
2AC
100
AcDbEntity
  8
0
  6
ByLayer
 62
  256
370
   -1
100
AcDbLine
 10
198.512
 20
9.811999999999999
 11
198.5
 21
10
  0
LINE
  5
2AD
100
AcDbEntity
  8
0
  6
ByLayer
 62
  256
370
   -1
100
AcDbLine
 10
198.5
 20
33
 11
198.512
 21
33.188
  0
LINE
  5
2AE
100
AcDbEntity
  8
0
  6
ByLayer
 62
  256
370
   -1
100
AcDbLine
 10
198.512
 20
33.188
 11
198.547
 21
33.373
  0
LINE
  5
2AF
100
AcDbEntity
  8
0
  6
ByLayer
 62
  256
370
   -1
100
AcDbLine
 10
198.547
 20
33.373
 11
198.605
 21
33.5522
  0
LINE
  5
2B0
100
AcDbEntity
  8
0
  6
ByLayer
 62
  256
370
   -1
100
AcDbLine
 10
198.605
 20
33.5522
 11
198.686
 21
33.7226
  0
LINE
  5
2B1
100
AcDbEntity
  8
0
  6
ByLayer
 62
  256
370
   -1
100
AcDbLine
 10
198.686
 20
33.7226
 11
198.786
 21
33.8817
  0
LINE
  5
2B2
100
AcDbEntity
  8
0
  6
ByLayer
 62
  256
370
   -1
100
AcDbLine
 10
198.786
 20
33.8817
 11
198.907
 21
34.0268
  0
LINE
  5
2B3
100
AcDbEntity
  8
0
  6
ByLayer
 62
  256
370
   -1
100
AcDbLine
 10
198.907
 20
34.0268
 11
199.044
 21
34.1558
  0
LINE
  5
2B4
100
AcDbEntity
  8
0
  6
ByLayer
 62
  256
370
   -1
100
AcDbLine
 10
199.044
 20
34.1558
 11
199.196
 21
34.2665
  0
LINE
  5
2B5
100
AcDbEntity
  8
0
  6
ByLayer
 62
  256
370
   -1
100
AcDbLine
 10
199.196
 20
34.2665
 11
199.361
 21
34.3572
  0
LINE
  5
2B6
100
AcDbEntity
  8
0
  6
ByLayer
 62
  256
370
   -1
100
AcDbLine
 10
199.361
 20
34.3572
 11
199.536
 21
34.4266
  0
LINE
  5
2B7
100
AcDbEntity
  8
0
  6
ByLayer
 62
  256
370
   -1
100
AcDbLine
 10
199.536
 20
34.4266
 11
199.719
 21
34.4734
  0
LINE
  5
2B8
100
AcDbEntity
  8
0
  6
ByLayer
 62
  256
370
   -1
100
AcDbLine
 10
199.719
 20
34.4734
 11
199.906
 21
34.497
  0
LINE
  5
2B9
100
AcDbEntity
  8
0
  6
ByLayer
 62
  256
370
   -1
100
AcDbLine
 10
199.906
 20
34.497
 11
200.094
 21
34.497
  0
LINE
  5
2BA
100
AcDbEntity
  8
0
  6
ByLayer
 62
  256
370
   -1
100
AcDbLine
 10
200.094
 20
34.497
 11
200.281
 21
34.4734
  0
LINE
  5
2BB
100
AcDbEntity
  8
0
  6
ByLayer
 62
  256
370
   -1
100
AcDbLine
 10
200.281
 20
34.4734
 11
200.464
 21
34.4266
  0
LINE
  5
2BC
100
AcDbEntity
  8
0
  6
ByLayer
 62
  256
370
   -1
100
AcDbLine
 10
200.464
 20
34.4266
 11
200.639
 21
34.3572
  0
LINE
  5
2BD
100
AcDbEntity
  8
0
  6
ByLayer
 62
  256
370
   -1
100
AcDbLine
 10
200.639
 20
34.3572
 11
200.804
 21
34.2665
  0
LINE
  5
2BE
100
AcDbEntity
  8
0
  6
ByLayer
 62
  256
370
   -1
100
AcDbLine
 10
200.804
 20
34.2665
 11
200.956
 21
34.1558
  0
LINE
  5
2BF
100
AcDbEntity
  8
0
  6
ByLayer
 62
  256
370
   -1
100
AcDbLine
 10
200.956
 20
34.1558
 11
201.093
 21
34.0268
  0
LINE
  5
2C0
100
AcDbEntity
  8
0
  6
ByLayer
 62
  256
370
   -1
100
AcDbLine
 10
201.093
 20
34.0268
 11
201.214
 21
33.8817
  0
LINE
  5
2C1
100
AcDbEntity
  8
0
  6
ByLayer
 62
  256
370
   -1
100
AcDbLine
 10
201.214
 20
33.8817
 11
201.314
 21
33.7226
  0
LINE
  5
2C2
100
AcDbEntity
  8
0
  6
ByLayer
 62
  256
370
   -1
100
AcDbLine
 10
201.314
 20
33.7226
 11
201.395
 21
33.5522
  0
LINE
  5
2C3
100
AcDbEntity
  8
0
  6
ByLayer
 62
  256
370
   -1
100
AcDbLine
 10
201.395
 20
33.5522
 11
201.453
 21
33.373
  0
LINE
  5
2C4
100
AcDbEntity
  8
0
  6
ByLayer
 62
  256
370
   -1
100
AcDbLine
 10
201.453
 20
33.373
 11
201.488
 21
33.188
  0
LINE
  5
2C5
100
AcDbEntity
  8
0
  6
ByLayer
 62
  256
370
   -1
100
AcDbLine
 10
201.488
 20
33.188
 11
201.5
 21
33
  0
LINE
  5
2C6
100
AcDbEntity
  8
0
  6
ByLayer
 62
  256
370
   -1
100
AcDbLine
 10
201.5
 20
33
 11
201.488
 21
32.812
  0
LINE
  5
2C7
100
AcDbEntity
  8
0
  6
ByLayer
 62
  256
370
   -1
100
AcDbLine
 10
201.488
 20
32.812
 11
201.453
 21
32.627
  0
LINE
  5
2C8
100
AcDbEntity
  8
0
  6
ByLayer
 62
  256
370
   -1
100
AcDbLine
 10
201.453
 20
32.627
 11
201.395
 21
32.4478
  0
LINE
  5
2C9
100
AcDbEntity
  8
0
  6
ByLayer
 62
  256
370
   -1
100
AcDbLine
 10
201.395
 20
32.4478
 11
201.314
 21
32.2774
  0
LINE
  5
2CA
100
AcDbEntity
  8
0
  6
ByLayer
 62
  256
370
   -1
100
AcDbLine
 10
201.314
 20
32.2774
 11
201.214
 21
32.1183
  0
LINE
  5
2CB
100
AcDbEntity
  8
0
  6
ByLayer
 62
  256
370
   -1
100
AcDbLine
 10
201.214
 20
32.1183
 11
201.093
 21
31.9732
  0
LINE
  5
2CC
100
AcDbEntity
  8
0
  6
ByLayer
 62
  256
370
   -1
100
AcDbLine
 10
201.093
 20
31.9732
 11
200.956
 21
31.8442
  0
LINE
  5
2CD
100
AcDbEntity
  8
0
  6
ByLayer
 62
  256
370
   -1
100
AcDbLine
 10
200.956
 20
31.8442
 11
200.804
 21
31.7335
  0
LINE
  5
2CE
100
AcDbEntity
  8
0
  6
ByLayer
 62
  256
370
   -1
100
AcDbLine
 10
200.804
 20
31.7335
 11
200.639
 21
31.6428
  0
LINE
  5
2CF
100
AcDbEntity
  8
0
  6
ByLayer
 62
  256
370
   -1
100
AcDbLine
 10
200.639
 20
31.6428
 11
200.464
 21
31.5734
  0
LINE
  5
2D0
100
AcDbEntity
  8
0
  6
ByLayer
 62
  256
370
   -1
100
AcDbLine
 10
200.464
 20
31.5734
 11
200.281
 21
31.5266
  0
LINE
  5
2D1
100
AcDbEntity
  8
0
  6
ByLayer
 62
  256
370
   -1
100
AcDbLine
 10
200.281
 20
31.5266
 11
200.094
 21
31.503
  0
LINE
  5
2D2
100
AcDbEntity
  8
0
  6
ByLayer
 62
  256
370
   -1
100
AcDbLine
 10
200.094
 20
31.503
 11
199.906
 21
31.503
  0
LINE
  5
2D3
100
AcDbEntity
  8
0
  6
ByLayer
 62
  256
370
   -1
100
AcDbLine
 10
199.906
 20
31.503
 11
199.719
 21
31.5266
  0
LINE
  5
2D4
100
AcDbEntity
  8
0
  6
ByLayer
 62
  256
370
   -1
100
AcDbLine
 10
199.719
 20
31.5266
 11
199.536
 21
31.5734
  0
LINE
  5
2D5
100
AcDbEntity
  8
0
  6
ByLayer
 62
  256
370
   -1
100
AcDbLine
 10
199.536
 20
31.5734
 11
199.361
 21
31.6428
  0
LINE
  5
2D6
100
AcDbEntity
  8
0
  6
ByLayer
 62
  256
370
   -1
100
AcDbLine
 10
199.361
 20
31.6428
 11
199.196
 21
31.7335
  0
LINE
  5
2D7
100
AcDbEntity
  8
0
  6
ByLayer
 62
  256
370
   -1
100
AcDbLine
 10
199.196
 20
31.7335
 11
199.044
 21
31.8442
  0
LINE
  5
2D8
100
AcDbEntity
  8
0
  6
ByLayer
 62
  256
370
   -1
100
AcDbLine
 10
199.044
 20
31.8442
 11
198.907
 21
31.9732
  0
LINE
  5
2D9
100
AcDbEntity
  8
0
  6
ByLayer
 62
  256
370
   -1
100
AcDbLine
 10
198.907
 20
31.9732
 11
198.786
 21
32.1183
  0
LINE
  5
2DA
100
AcDbEntity
  8
0
  6
ByLayer
 62
  256
370
   -1
100
AcDbLine
 10
198.786
 20
32.1183
 11
198.686
 21
32.2774
  0
LINE
  5
2DB
100
AcDbEntity
  8
0
  6
ByLayer
 62
  256
370
   -1
100
AcDbLine
 10
198.686
 20
32.2774
 11
198.605
 21
32.4478
  0
LINE
  5
2DC
100
AcDbEntity
  8
0
  6
ByLayer
 62
  256
370
   -1
100
AcDbLine
 10
198.605
 20
32.4478
 11
198.547
 21
32.627
  0
LINE
  5
2DD
100
AcDbEntity
  8
0
  6
ByLayer
 62
  256
370
   -1
100
AcDbLine
 10
198.547
 20
32.627
 11
198.512
 21
32.812
  0
LINE
  5
2DE
100
AcDbEntity
  8
0
  6
ByLayer
 62
  256
370
   -1
100
AcDbLine
 10
198.512
 20
32.812
 11
198.5
 21
33
  0
LINE
  5
2DF
100
AcDbEntity
  8
0
  6
ByLayer
 62
  256
370
   -1
100
AcDbLine
 10
203.5
 20
6.5
 11
203.512
 21
6.688
  0
LINE
  5
2E0
100
AcDbEntity
  8
0
  6
ByLayer
 62
  256
370
   -1
100
AcDbLine
 10
203.512
 20
6.688
 11
203.547
 21
6.87303
  0
LINE
  5
2E1
100
AcDbEntity
  8
0
  6
ByLayer
 62
  256
370
   -1
100
AcDbLine
 10
203.547
 20
6.87303
 11
203.605
 21
7.05219
  0
LINE
  5
2E2
100
AcDbEntity
  8
0
  6
ByLayer
 62
  256
370
   -1
100
AcDbLine
 10
203.605
 20
7.05219
 11
203.686
 21
7.22263
  0
LINE
  5
2E3
100
AcDbEntity
  8
0
  6
ByLayer
 62
  256
370
   -1
100
AcDbLine
 10
203.686
 20
7.22263
 11
203.786
 21
7.38168
  0
LINE
  5
2E4
100
AcDbEntity
  8
0
  6
ByLayer
 62
  256
370
   -1
100
AcDbLine
 10
203.786
 20
7.38168
 11
203.907
 21
7.52682
  0
LINE
  5
2E5
100
AcDbEntity
  8
0
  6
ByLayer
 62
  256
370
   -1
100
AcDbLine
 10
203.907
 20
7.52682
 11
204.044
 21
7.65577
  0
LINE
  5
2E6
100
AcDbEntity
  8
0
  6
ByLayer
 62
  256
370
   -1
100
AcDbLine
 10
204.044
 20
7.65577
 11
204.196
 21
7.76649
  0
LINE
  5
2E7
100
AcDbEntity
  8
0
  6
ByLayer
 62
  256
370
   -1
100
AcDbLine
 10
204.196
 20
7.76649
 11
204.361
 21
7.85724
  0
LINE
  5
2E8
100
AcDbEntity
  8
0
  6
ByLayer
 62
  256
370
   -1
100
AcDbLine
 10
204.361
 20
7.85724
 11
204.536
 21
7.92658
  0
LINE
  5
2E9
100
AcDbEntity
  8
0
  6
ByLayer
 62
  256
370
   -1
100
AcDbLine
 10
204.536
 20
7.92658
 11
204.719
 21
7.97343
  0
LINE
  5
2EA
100
AcDbEntity
  8
0
  6
ByLayer
 62
  256
370
   -1
100
AcDbLine
 10
204.719
 20
7.97343
 11
204.906
 21
7.99704
  0
LINE
  5
2EB
100
AcDbEntity
  8
0
  6
ByLayer
 62
  256
370
   -1
100
AcDbLine
 10
204.906
 20
7.99704
 11
205.094
 21
7.99704
  0
LINE
  5
2EC
100
AcDbEntity
  8
0
  6
ByLayer
 62
  256
370
   -1
100
AcDbLine
 10
205.094
 20
7.99704
 11
205.281
 21
7.97343
  0
LINE
  5
2ED
100
AcDbEntity
  8
0
  6
ByLayer
 62
  256
370
   -1
100
AcDbLine
 10
205.281
 20
7.97343
 11
205.464
 21
7.92658
  0
LINE
  5
2EE
100
AcDbEntity
  8
0
  6
ByLayer
 62
  256
370
   -1
100
AcDbLine
 10
205.464
 20
7.92658
 11
205.639
 21
7.85724
  0
LINE
  5
2EF
100
AcDbEntity
  8
0
  6
ByLayer
 62
  256
370
   -1
100
AcDbLine
 10
205.639
 20
7.85724
 11
205.804
 21
7.76649
  0
LINE
  5
2F0
100
AcDbEntity
  8
0
  6
ByLayer
 62
  256
370
   -1
100
AcDbLine
 10
205.804
 20
7.76649
 11
205.956
 21
7.65577
  0
LINE
  5
2F1
100
AcDbEntity
  8
0
  6
ByLayer
 62
  256
370
   -1
100
AcDbLine
 10
205.956
 20
7.65577
 11
206.093
 21
7.52682
  0
LINE
  5
2F2
100
AcDbEntity
  8
0
  6
ByLayer
 62
  256
370
   -1
100
AcDbLine
 10
206.093
 20
7.52682
 11
206.214
 21
7.38168
  0
LINE
  5
2F3
100
AcDbEntity
  8
0
  6
ByLayer
 62
  256
370
   -1
100
AcDbLine
 10
206.214
 20
7.38168
 11
206.314
 21
7.22263
  0
LINE
  5
2F4
100
AcDbEntity
  8
0
  6
ByLayer
 62
  256
370
   -1
100
AcDbLine
 10
206.314
 20
7.22263
 11
206.395
 21
7.05219
  0
LINE
  5
2F5
100
AcDbEntity
  8
0
  6
ByLayer
 62
  256
370
   -1
100
AcDbLine
 10
206.395
 20
7.05219
 11
206.453
 21
6.87303
  0
LINE
  5
2F6
100
AcDbEntity
  8
0
  6
ByLayer
 62
  256
370
   -1
100
AcDbLine
 10
206.453
 20
6.87303
 11
206.488
 21
6.688
  0
LINE
  5
2F7
100
AcDbEntity
  8
0
  6
ByLayer
 62
  256
370
   -1
100
AcDbLine
 10
206.488
 20
6.688
 11
206.5
 21
6.5
  0
LINE
  5
2F8
100
AcDbEntity
  8
0
  6
ByLayer
 62
  256
370
   -1
100
AcDbLine
 10
206.5
 20
6.5
 11
206.488
 21
6.312
  0
LINE
  5
2F9
100
AcDbEntity
  8
0
  6
ByLayer
 62
  256
370
   -1
100
AcDbLine
 10
206.488
 20
6.312
 11
206.453
 21
6.12696
  0
LINE
  5
2FA
100
AcDbEntity
  8
0
  6
ByLayer
 62
  256
370
   -1
100
AcDbLine
 10
206.453
 20
6.12696
 11
206.395
 21
5.94781
  0
LINE
  5
2FB
100
AcDbEntity
  8
0
  6
ByLayer
 62
  256
370
   -1
100
AcDbLine
 10
206.395
 20
5.94781
 11
206.314
 21
5.77737
  0
LINE
  5
2FC
100
AcDbEntity
  8
0
  6
ByLayer
 62
  256
370
   -1
100
AcDbLine
 10
206.314
 20
5.77737
 11
206.214
 21
5.61832
  0
LINE
  5
2FD
100
AcDbEntity
  8
0
  6
ByLayer
 62
  256
370
   -1
100
AcDbLine
 10
206.214
 20
5.61832
 11
206.093
 21
5.47318
  0
LINE
  5
2FE
100
AcDbEntity
  8
0
  6
ByLayer
 62
  256
370
   -1
100
AcDbLine
 10
206.093
 20
5.47318
 11
205.956
 21
5.34423
  0
LINE
  5
2FF
100
AcDbEntity
  8
0
  6
ByLayer
 62
  256
370
   -1
100
AcDbLine
 10
205.956
 20
5.34423
 11
205.804
 21
5.23351
  0
LINE
  5
300
100
AcDbEntity
  8
0
  6
ByLayer
 62
  256
370
   -1
100
AcDbLine
 10
205.804
 20
5.23351
 11
205.639
 21
5.14276
  0
LINE
  5
301
100
AcDbEntity
  8
0
  6
ByLayer
 62
  256
370
   -1
100
AcDbLine
 10
205.639
 20
5.14276
 11
205.464
 21
5.07341
  0
LINE
  5
302
100
AcDbEntity
  8
0
  6
ByLayer
 62
  256
370
   -1
100
AcDbLine
 10
205.464
 20
5.07341
 11
205.281
 21
5.02657
  0
LINE
  5
303
100
AcDbEntity
  8
0
  6
ByLayer
 62
  256
370
   -1
100
AcDbLine
 10
205.281
 20
5.02657
 11
205.094
 21
5.00296
  0
LINE
  5
304
100
AcDbEntity
  8
0
  6
ByLayer
 62
  256
370
   -1
100
AcDbLine
 10
205.094
 20
5.00296
 11
204.906
 21
5.00296
  0
LINE
  5
305
100
AcDbEntity
  8
0
  6
ByLayer
 62
  256
370
   -1
100
AcDbLine
 10
204.906
 20
5.00296
 11
204.719
 21
5.02657
  0
LINE
  5
306
100
AcDbEntity
  8
0
  6
ByLayer
 62
  256
370
   -1
100
AcDbLine
 10
204.719
 20
5.02657
 11
204.536
 21
5.07341
  0
LINE
  5
307
100
AcDbEntity
  8
0
  6
ByLayer
 62
  256
370
   -1
100
AcDbLine
 10
204.536
 20
5.07341
 11
204.361
 21
5.14276
  0
LINE
  5
308
100
AcDbEntity
  8
0
  6
ByLayer
 62
  256
370
   -1
100
AcDbLine
 10
204.361
 20
5.14276
 11
204.196
 21
5.23351
  0
LINE
  5
309
100
AcDbEntity
  8
0
  6
ByLayer
 62
  256
370
   -1
100
AcDbLine
 10
204.196
 20
5.23351
 11
204.044
 21
5.34423
  0
LINE
  5
30A
100
AcDbEntity
  8
0
  6
ByLayer
 62
  256
370
   -1
100
AcDbLine
 10
204.044
 20
5.34423
 11
203.907
 21
5.47318
  0
LINE
  5
30B
100
AcDbEntity
  8
0
  6
ByLayer
 62
  256
370
   -1
100
AcDbLine
 10
203.907
 20
5.47318
 11
203.786
 21
5.61832
  0
LINE
  5
30C
100
AcDbEntity
  8
0
  6
ByLayer
 62
  256
370
   -1
100
AcDbLine
 10
203.786
 20
5.61832
 11
203.686
 21
5.77737
  0
LINE
  5
30D
100
AcDbEntity
  8
0
  6
ByLayer
 62
  256
370
   -1
100
AcDbLine
 10
203.686
 20
5.77737
 11
203.605
 21
5.94781
  0
LINE
  5
30E
100
AcDbEntity
  8
0
  6
ByLayer
 62
  256
370
   -1
100
AcDbLine
 10
203.605
 20
5.94781
 11
203.547
 21
6.12696
  0
LINE
  5
30F
100
AcDbEntity
  8
0
  6
ByLayer
 62
  256
370
   -1
100
AcDbLine
 10
203.547
 20
6.12696
 11
203.512
 21
6.312
  0
LINE
  5
310
100
AcDbEntity
  8
0
  6
ByLayer
 62
  256
370
   -1
100
AcDbLine
 10
203.512
 20
6.312
 11
203.5
 21
6.5
  0
LINE
  5
311
100
AcDbEntity
  8
0
  6
ByLayer
 62
  256
370
   -1
100
AcDbLine
 10
203.5
 20
36.5
 11
203.512
 21
36.688
  0
LINE
  5
312
100
AcDbEntity
  8
0
  6
ByLayer
 62
  256
370
   -1
100
AcDbLine
 10
203.512
 20
36.688
 11
203.547
 21
36.873
  0
LINE
  5
313
100
AcDbEntity
  8
0
  6
ByLayer
 62
  256
370
   -1
100
AcDbLine
 10
203.547
 20
36.873
 11
203.605
 21
37.0522
  0
LINE
  5
314
100
AcDbEntity
  8
0
  6
ByLayer
 62
  256
370
   -1
100
AcDbLine
 10
203.605
 20
37.0522
 11
203.686
 21
37.2226
  0
LINE
  5
315
100
AcDbEntity
  8
0
  6
ByLayer
 62
  256
370
   -1
100
AcDbLine
 10
203.686
 20
37.2226
 11
203.786
 21
37.3817
  0
LINE
  5
316
100
AcDbEntity
  8
0
  6
ByLayer
 62
  256
370
   -1
100
AcDbLine
 10
203.786
 20
37.3817
 11
203.907
 21
37.5268
  0
LINE
  5
317
100
AcDbEntity
  8
0
  6
ByLayer
 62
  256
370
   -1
100
AcDbLine
 10
203.907
 20
37.5268
 11
204.044
 21
37.6558
  0
LINE
  5
318
100
AcDbEntity
  8
0
  6
ByLayer
 62
  256
370
   -1
100
AcDbLine
 10
204.044
 20
37.6558
 11
204.196
 21
37.7665
  0
LINE
  5
319
100
AcDbEntity
  8
0
  6
ByLayer
 62
  256
370
   -1
100
AcDbLine
 10
204.196
 20
37.7665
 11
204.361
 21
37.8572
  0
LINE
  5
31A
100
AcDbEntity
  8
0
  6
ByLayer
 62
  256
370
   -1
100
AcDbLine
 10
204.361
 20
37.8572
 11
204.536
 21
37.9266
  0
LINE
  5
31B
100
AcDbEntity
  8
0
  6
ByLayer
 62
  256
370
   -1
100
AcDbLine
 10
204.536
 20
37.9266
 11
204.719
 21
37.9734
  0
LINE
  5
31C
100
AcDbEntity
  8
0
  6
ByLayer
 62
  256
370
   -1
100
AcDbLine
 10
204.719
 20
37.9734
 11
204.906
 21
37.997
  0
LINE
  5
31D
100
AcDbEntity
  8
0
  6
ByLayer
 62
  256
370
   -1
100
AcDbLine
 10
204.906
 20
37.997
 11
205.094
 21
37.997
  0
LINE
  5
31E
100
AcDbEntity
  8
0
  6
ByLayer
 62
  256
370
   -1
100
AcDbLine
 10
205.094
 20
37.997
 11
205.281
 21
37.9734
  0
LINE
  5
31F
100
AcDbEntity
  8
0
  6
ByLayer
 62
  256
370
   -1
100
AcDbLine
 10
205.281
 20
37.9734
 11
205.464
 21
37.9266
  0
LINE
  5
320
100
AcDbEntity
  8
0
  6
ByLayer
 62
  256
370
   -1
100
AcDbLine
 10
205.464
 20
37.9266
 11
205.639
 21
37.8572
  0
LINE
  5
321
100
AcDbEntity
  8
0
  6
ByLayer
 62
  256
370
   -1
100
AcDbLine
 10
205.639
 20
37.8572
 11
205.804
 21
37.7665
  0
LINE
  5
322
100
AcDbEntity
  8
0
  6
ByLayer
 62
  256
370
   -1
100
AcDbLine
 10
205.804
 20
37.7665
 11
205.956
 21
37.6558
  0
LINE
  5
323
100
AcDbEntity
  8
0
  6
ByLayer
 62
  256
370
   -1
100
AcDbLine
 10
205.956
 20
37.6558
 11
206.093
 21
37.5268
  0
LINE
  5
324
100
AcDbEntity
  8
0
  6
ByLayer
 62
  256
370
   -1
100
AcDbLine
 10
206.093
 20
37.5268
 11
206.214
 21
37.3817
  0
LINE
  5
325
100
AcDbEntity
  8
0
  6
ByLayer
 62
  256
370
   -1
100
AcDbLine
 10
206.214
 20
37.3817
 11
206.314
 21
37.2226
  0
LINE
  5
326
100
AcDbEntity
  8
0
  6
ByLayer
 62
  256
370
   -1
100
AcDbLine
 10
206.314
 20
37.2226
 11
206.395
 21
37.0522
  0
LINE
  5
327
100
AcDbEntity
  8
0
  6
ByLayer
 62
  256
370
   -1
100
AcDbLine
 10
206.395
 20
37.0522
 11
206.453
 21
36.873
  0
LINE
  5
328
100
AcDbEntity
  8
0
  6
ByLayer
 62
  256
370
   -1
100
AcDbLine
 10
206.453
 20
36.873
 11
206.488
 21
36.688
  0
LINE
  5
329
100
AcDbEntity
  8
0
  6
ByLayer
 62
  256
370
   -1
100
AcDbLine
 10
206.488
 20
36.688
 11
206.5
 21
36.5
  0
LINE
  5
32A
100
AcDbEntity
  8
0
  6
ByLayer
 62
  256
370
   -1
100
AcDbLine
 10
206.5
 20
36.5
 11
206.488
 21
36.312
  0
LINE
  5
32B
100
AcDbEntity
  8
0
  6
ByLayer
 62
  256
370
   -1
100
AcDbLine
 10
206.488
 20
36.312
 11
206.453
 21
36.127
  0
LINE
  5
32C
100
AcDbEntity
  8
0
  6
ByLayer
 62
  256
370
   -1
100
AcDbLine
 10
206.453
 20
36.127
 11
206.395
 21
35.9478
  0
LINE
  5
32D
100
AcDbEntity
  8
0
  6
ByLayer
 62
  256
370
   -1
100
AcDbLine
 10
206.395
 20
35.9478
 11
206.314
 21
35.7774
  0
LINE
  5
32E
100
AcDbEntity
  8
0
  6
ByLayer
 62
  256
370
   -1
100
AcDbLine
 10
206.314
 20
35.7774
 11
206.214
 21
35.6183
  0
LINE
  5
32F
100
AcDbEntity
  8
0
  6
ByLayer
 62
  256
370
   -1
100
AcDbLine
 10
206.214
 20
35.6183
 11
206.093
 21
35.4732
  0
LINE
  5
330
100
AcDbEntity
  8
0
  6
ByLayer
 62
  256
370
   -1
100
AcDbLine
 10
206.093
 20
35.4732
 11
205.956
 21
35.3442
  0
LINE
  5
331
100
AcDbEntity
  8
0
  6
ByLayer
 62
  256
370
   -1
100
AcDbLine
 10
205.956
 20
35.3442
 11
205.804
 21
35.2335
  0
LINE
  5
332
100
AcDbEntity
  8
0
  6
ByLayer
 62
  256
370
   -1
100
AcDbLine
 10
205.804
 20
35.2335
 11
205.639
 21
35.1428
  0
LINE
  5
333
100
AcDbEntity
  8
0
  6
ByLayer
 62
  256
370
   -1
100
AcDbLine
 10
205.639
 20
35.1428
 11
205.464
 21
35.0734
  0
LINE
  5
334
100
AcDbEntity
  8
0
  6
ByLayer
 62
  256
370
   -1
100
AcDbLine
 10
205.464
 20
35.0734
 11
205.281
 21
35.0266
  0
LINE
  5
335
100
AcDbEntity
  8
0
  6
ByLayer
 62
  256
370
   -1
100
AcDbLine
 10
205.281
 20
35.0266
 11
205.094
 21
35.003
  0
LINE
  5
336
100
AcDbEntity
  8
0
  6
ByLayer
 62
  256
370
   -1
100
AcDbLine
 10
205.094
 20
35.003
 11
204.906
 21
35.003
  0
LINE
  5
337
100
AcDbEntity
  8
0
  6
ByLayer
 62
  256
370
   -1
100
AcDbLine
 10
204.906
 20
35.003
 11
204.719
 21
35.0266
  0
LINE
  5
338
100
AcDbEntity
  8
0
  6
ByLayer
 62
  256
370
   -1
100
AcDbLine
 10
204.719
 20
35.0266
 11
204.536
 21
35.0734
  0
LINE
  5
339
100
AcDbEntity
  8
0
  6
ByLayer
 62
  256
370
   -1
100
AcDbLine
 10
204.536
 20
35.0734
 11
204.361
 21
35.1428
  0
LINE
  5
33A
100
AcDbEntity
  8
0
  6
ByLayer
 62
  256
370
   -1
100
AcDbLine
 10
204.361
 20
35.1428
 11
204.196
 21
35.2335
  0
LINE
  5
33B
100
AcDbEntity
  8
0
  6
ByLayer
 62
  256
370
   -1
100
AcDbLine
 10
204.196
 20
35.2335
 11
204.044
 21
35.3442
  0
LINE
  5
33C
100
AcDbEntity
  8
0
  6
ByLayer
 62
  256
370
   -1
100
AcDbLine
 10
204.044
 20
35.3442
 11
203.907
 21
35.4732
  0
LINE
  5
33D
100
AcDbEntity
  8
0
  6
ByLayer
 62
  256
370
   -1
100
AcDbLine
 10
203.907
 20
35.4732
 11
203.786
 21
35.6183
  0
LINE
  5
33E
100
AcDbEntity
  8
0
  6
ByLayer
 62
  256
370
   -1
100
AcDbLine
 10
203.786
 20
35.6183
 11
203.686
 21
35.7774
  0
LINE
  5
33F
100
AcDbEntity
  8
0
  6
ByLayer
 62
  256
370
   -1
100
AcDbLine
 10
203.686
 20
35.7774
 11
203.605
 21
35.9478
  0
LINE
  5
340
100
AcDbEntity
  8
0
  6
ByLayer
 62
  256
370
   -1
100
AcDbLine
 10
203.605
 20
35.9478
 11
203.547
 21
36.127
  0
LINE
  5
341
100
AcDbEntity
  8
0
  6
ByLayer
 62
  256
370
   -1
100
AcDbLine
 10
203.547
 20
36.127
 11
203.512
 21
36.312
  0
LINE
  5
342
100
AcDbEntity
  8
0
  6
ByLayer
 62
  256
370
   -1
100
AcDbLine
 10
203.512
 20
36.312
 11
203.5
 21
36.5
  0
LINE
  5
343
100
AcDbEntity
  8
0
  6
ByLayer
 62
  256
370
   -1
100
AcDbLine
 10
269.9679540925814
 20
0.03204590741866851
 11
292.4679540925814
 21
0.03204590741866851
  0
LINE
  5
344
100
AcDbEntity
  8
0
  6
ByLayer
 62
  256
370
   -1
100
AcDbLine
 10
292.4679540925814
 20
0.03204590741866851
 11
292.4679540925814
 21
1.532045907418669
  0
LINE
  5
345
100
AcDbEntity
  8
0
  6
ByLayer
 62
  256
370
   -1
100
AcDbLine
 10
292.4679540925814
 20
1.532045907418669
 11
271.4679540925814
 21
1.532045907418669
  0
LINE
  5
346
100
AcDbEntity
  8
0
  6
ByLayer
 62
  256
370
   -1
100
AcDbLine
 10
271.4679540925814
 20
1.532045907418669
 11
271.4679540925814
 21
41.53204590741867
  0
LINE
  5
347
100
AcDbEntity
  8
0
  6
ByLayer
 62
  256
370
   -1
100
AcDbLine
 10
271.4679540925814
 20
41.53204590741867
 11
292.4679540925814
 21
41.53204590741867
  0
LINE
  5
348
100
AcDbEntity
  8
0
  6
ByLayer
 62
  256
370
   -1
100
AcDbLine
 10
292.4679540925814
 20
41.53204590741867
 11
292.4679540925814
 21
43.03204590741867
  0
LINE
  5
349
100
AcDbEntity
  8
0
  6
ByLayer
 62
  256
370
   -1
100
AcDbLine
 10
292.4679540925814
 20
43.03204590741867
 11
269.9679540925814
 21
43.03204590741867
  0
LINE
  5
34A
100
AcDbEntity
  8
0
  6
ByLayer
 62
  256
370
   -1
100
AcDbLine
 10
269.9679540925814
 20
43.03204590741867
 11
269.9679540925814
 21
0.03204590741866851
  0
DIMENSION
  5
34B
100
AcDbEntity
  8
dimensioning
  6
ByLayer
 62
  256
370
   -1
100
AcDbDimension
  2
*D1
 10
210
 20
58.20838835089643
 30
0
 11
105
 21
60.08338835089643
 31
0
 70
   32
 71
    5
  3
Standard
 53
0
210
0
220
0
230
1
100
AcDbAlignedDimension
 13
0
 23
43
 33
0
 14
210
 24
43
 34
0
100
AcDbRotatedDimension
  0
DIMENSION
  5
34C
100
AcDbEntity
  8
dimensioning
  6
ByLayer
 62
  256
370
   -1
100
AcDbDimension
  2
*D2
 10
292.4679540925814
 20
58.20838835089643
 30
0
 11
281.2179540925814
 21
60.08338835089643
 31
0
 70
   32
 71
    5
  3
Standard
 53
0
210
0
220
0
230
1
100
AcDbAlignedDimension
 13
269.9679540925814
 23
43.03204590741867
 33
0
 14
292.4679540925814
 24
43.03204590741867
 34
0
100
AcDbRotatedDimension
  0
DIMENSION
  5
34D
100
AcDbEntity
  8
dimensioning
  6
ByLayer
 62
  256
370
   -1
100
AcDbDimension
  2
*D3
 10
311.7339602048008
 20
1.532045907418666
 30
0
 11
309.8589602048008
 21
21.53204590741867
 31
0
 70
   32
 71
    5
  3
Standard
 53
0
210
0
220
0
230
1
100
AcDbAlignedDimension
 13
292.4679540925814
 23
41.53204590741867
 33
0
 14
292.4679540925814
 24
1.532045907418669
 34
0
 50
90
100
AcDbRotatedDimension
  0
DIMENSION
  5
34E
100
AcDbEntity
  8
dimensioning
  6
ByLayer
 62
  256
370
   -1
100
AcDbDimension
  2
*D4
 10
311.7339602048008
 20
43.03204590741867
 30
0
 11
309.8589602048008
 21
42.28204590741867
 31
0
 70
   32
 71
    5
  3
Standard
 53
0
210
0
220
0
230
1
100
AcDbAlignedDimension
 13
292.4679540925814
 23
41.53204590741867
 33
0
 14
292.4679540925814
 24
43.03204590741867
 34
0
 50
90
100
AcDbRotatedDimension
  0
DIMENSION
  5
34F
100
AcDbEntity
  8
dimensioning
  6
ByLayer
 62
  256
370
   -1
100
AcDbDimension
  2
*D5
 10
292.4679540925814
 20
-15.0839013002323
 30
0
 11
281.9679540925814
 21
-13.2089013002323
 31
0
 70
   32
 71
    5
  3
Standard
 53
0
210
0
220
0
230
1
100
AcDbAlignedDimension
 13
271.4679540925814
 23
1.532045907418669
 33
0
 14
292.4679540925814
 24
1.532045907418669
 34
0
100
AcDbRotatedDimension
  0
DIMENSION
  5
350
100
AcDbEntity
  8
dimensioning
  6
ByLayer
 62
  256
370
   -1
100
AcDbDimension
  2
*D6
 10
154.5
 20
37.79556890803399
 30
0
 11
153
 21
39.67056890803399
 31
0
 70
   32
 71
    5
  3
Standard
 53
0
210
0
220
0
230
1
100
AcDbAlignedDimension
 13
151.5
 23
33
 33
0
 14
154.5
 24
33
 34
0
100
AcDbRotatedDimension
  0
DIMENSION
  5
351
100
AcDbEntity
  8
dimensioning
  6
ByLayer
 62
  256
370
   -1
100
AcDbDimension
  2
*D7
 10
153
 20
-14
 30
0
 11
176.5
 21
-12.125
 31
0
 70
   32
 71
    5
  3
Standard
 53
0
210
0
220
0
230
1
100
AcDbAlignedDimension
 13
200
 23
10
 33
0
 14
153
 24
10
 34
0
100
AcDbRotatedDimension
  0
DIMENSION
  5
352
100
AcDbEntity
  8
dimensioning
  6
ByLayer
 62
  256
370
   -1
100
AcDbDimension
  2
*D8
 10
138
 20
-14
 30
0
 11
76.5
 21
-12.125
 31
0
 70
   32
 71
    5
  3
Standard
 53
0
210
0
220
0
230
1
100
AcDbAlignedDimension
 13
15
 23
11.5
 33
0
 14
138
 24
11.6
 34
0
100
AcDbRotatedDimension
  0
DIMENSION
  5
353
100
AcDbEntity
  8
dimensioning
  6
ByLayer
 62
  256
370
   -1
100
AcDbDimension
  2
*D9
 10
200
 20
-14
 30
0
 11
205
 21
-12.125
 31
0
 70
   32
 71
    5
  3
Standard
 53
0
210
0
220
0
230
1
100
AcDbAlignedDimension
 13
210
 23
10
 33
0
 14
200
 24
10
 34
0
100
AcDbRotatedDimension
  0
DIMENSION
  5
354
100
AcDbEntity
  8
dimensioning
  6
ByLayer
 62
  256
370
   -1
100
AcDbDimension
  2
*D10
 10
210
 20
50
 30
0
 11
207.5
 21
51.875
 31
0
 70
   32
 71
    5
  3
Standard
 53
0
210
0
220
0
230
1
100
AcDbAlignedDimension
 13
205
 23
36.5
 33
0
 14
210
 24
36.5
 34
0
100
AcDbRotatedDimension
  0
DIMENSION
  5
355
100
AcDbEntity
  8
dimensioning
  6
ByLayer
 62
  256
370
   -1
100
AcDbDimension
  2
*D11
 10
230
 20
43
 30
0
 11
228.125
 21
39.75
 31
0
 70
   32
 71
    5
  3
Standard
 53
0
210
0
220
0
230
1
100
AcDbAlignedDimension
 13
205
 23
36.50000000000001
 33
0
 14
205
 24
43
 34
0
 50
90
100
AcDbRotatedDimension
  0
DIMENSION
  5
356
100
AcDbEntity
  8
dimensioning
  6
ByLayer
 62
  256
370
   -1
100
AcDbDimension
  2
*D12
 10
-1.533617525507902e-015
 20
-14
 30
0
 11
7.500000000000002
 21
-12.125
 31
0
 70
   32
 71
    5
  3
Standard
 53
0
210
0
220
0
230
1
100
AcDbAlignedDimension
 13
15
 23
11.5
 33
0
 14
2.775557561562891e-017
 24
11.5
 34
0
100
AcDbRotatedDimension
  0
DIMENSION
  5
357
100
AcDbEntity
  8
dimensioning
  6
ByLayer
 62
  256
370
   -1
100
AcDbDimension
  2
*D13
 10
-22
 20
43
 30
0
 11
-23.875
 21
21.5
 31
0
 70
   32
 71
    5
  3
Standard
 53
0
210
0
220
0
230
1
100
AcDbAlignedDimension
 13
0
 23
0
 33
0
 14
0
 24
43
 34
0
 50
90
100
AcDbRotatedDimension
  0
DIMENSION
  5
358
100
AcDbEntity
  8
dimensioning
  6
ByLayer
 62
  256
370
   -1
100
AcDbDimension
  2
*D14
 10
190
 20
10
 30
0
 11
188.125
 21
21.5
 31
0
 70
   32
 71
    5
  3
Standard
 53
0
210
0
220
0
230
1
100
AcDbAlignedDimension
 13
200
 23
33
 33
0
 14
200
 24
10
 34
0
 50
90
100
AcDbRotatedDimension
  0
DIMENSION
  5
359
100
AcDbEntity
  8
dimensioning
  6
ByLayer
 62
  256
370
   -1
100
AcDbDimension
  2
*D15
 10
29
 20
31.5
 30
0
 11
27.125
 21
21.5
 31
0
 70
   32
 71
    5
  3
Standard
 53
0
210
0
220
0
230
1
100
AcDbAlignedDimension
 13
15
 23
11.5
 33
0
 14
15
 24
31.5
 34
0
 50
90
100
AcDbRotatedDimension
  0
DIMENSION
  5
35A
100
AcDbEntity
  8
dimensioning
  6
ByLayer
 62
  256
370
   -1
100
AcDbDimension
  2
*D16
 10
29
 20
43
 30
0
 11
27.125
 21
37.25
 31
0
 70
   32
 71
    5
  3
Standard
 53
0
210
0
220
0
230
1
100
AcDbAlignedDimension
 13
15
 23
31.5
 33
0
 14
15
 24
43
 34
0
 50
90
100
AcDbRotatedDimension
  0
DIMENSION
  5
35B
100
AcDbEntity
  8
dimensioning
  6
ByLayer
 62
  256
370
   -1
100
AcDbDimension
  2
*D17
 10
190
 20
1.224606353822377e-015
 30
0
 11
188.125
 21
4.999999999999999
 31
0
 70
   32
 71
    5
  3
Standard
 53
0
210
0
220
0
230
1
100
AcDbAlignedDimension
 13
200
 23
10
 33
0
 14
200
 24
0
 34
0
 50
90
100
AcDbRotatedDimension
  0
ENDSEC
  0
SECTION
  2
OBJECTS
  0
DICTIONARY
  5
C
330
0
100
AcDbDictionary
281
    1
  3
ACAD_GROUP
350
D
  0
DICTIONARY
  5
D
330
C
100
AcDbDictionary
281
    1
  0
ENDSEC
  0
EOF
