999
dxfrw 0.6.3
  0
SECTION
  2
HEADER
  9
$ACADVER
  1
AC1021
  9
$DWGCODEPAGE
  3
ANSI_1252
  9
$INSBASE
 10
0
 20
0
 30
0
  9
$EXTMIN
 10
-12.125
 20
-62
 30
0
  9
$EXTMAX
 10
272
 20
53.125
 30
0
  9
$LIMMIN
 10
0
 20
0
  9
$LIMMAX
 10
420
 20
297
  9
$ORTHOMODE
 70
    0
  9
$REGENMODE
 70
    1
  9
$FILLMODE
 70
    1
  9
$QTEXTMODE
 70
    0
  9
$MIRRTEXT
 70
    0
  9
$LTSCALE
 40
1
  9
$ATTMODE
 70
    0
  9
$TEXTSIZE
 40
2.5
  9
$TRACEWID
 40
15.68
  9
$TEXTSTYLE
  7
STANDARD
  9
$CLAYER
  8
0
  9
$CELTYPE
  6
BYLAYER
  9
$CECOLOR
 62
  256
  9
$CELTSCALE
 40
1
  9
$DISPSILH
 70
    0
  9
$DIMSCALE
 40
1
  9
$DIMASZ
 40
2.5
  9
$DIMEXO
 40
0.625
  9
$DIMDLI
 40
3.75
  9
$DIMRND
 40
0
  9
$DIMDLE
 40
0
  9
$DIMEXE
 40
1.25
  9
$DIMTP
 40
0
  9
$DIMTM
 40
0
  9
$DIMTXT
 40
2.5
  9
$DIMCEN
 40
2.5
  9
$DIMTSZ
 40
0
  9
$DIMTOL
 70
    0
  9
$DIMLIM
 70
    0
  9
$DIMTIH
 70
    0
  9
$DIMTOH
 70
    0
  9
$DIMSE1
 70
    0
  9
$DIMSE2
 70
    0
  9
$DIMTAD
 70
    1
  9
$DIMZIN
 70
    1
  9
$DIMBLK
  1

  9
$DIMASO
 70
    1
  9
$DIMSHO
 70
    1
  9
$DIMPOST
  1

  9
$DIMAPOST
  1

  9
$DIMALT
 70
    0
  9
$DIMALTD
 70
    3
  9
$DIMALTF
 40
0.03937
  9
$DIMLFAC
 40
1
  9
$DIMTOFL
 70
    1
  9
$DIMTVP
 40
0
  9
$DIMTIX
 70
    0
  9
$DIMSOXD
 70
    0
  9
$DIMSAH
 70
    0
  9
$DIMBLK1
  1

  9
$DIMBLK2
  1

  9
$DIMSTYLE
  2
Standard
  9
$DIMCLRD
 70
    0
  9
$DIMCLRE
 70
    0
  9
$DIMCLRT
 70
    0
  9
$DIMTFAC
 40
1
  9
$DIMGAP
 40
0.625
  9
$DIMJUST
 70
    0
  9
$DIMSD1
 70
    0
  9
$DIMSD2
 70
    0
  9
$DIMTOLJ
 70
    0
  9
$DIMTZIN
 70
    8
  9
$DIMALTZ
 70
    0
  9
$DIMALTTZ
 70
    0
  9
$DIMUPT
 70
    0
  9
$DIMDEC
 70
    1
  9
$DIMTDEC
 70
    2
  9
$DIMALTU
 70
    2
  9
$DIMALTTD
 70
    3
  9
$DIMTXSTY
  7
standard
  9
$DIMAUNIT
 70
    0
  9
$DIMADEC
 70
    2
  9
$DIMALTRND
 40
0
  9
$DIMAZIN
 70
    0
  9
$DIMDSEP
 70
    0
  9
$DIMATFIT
 70
    3
  9
$DIMFRAC
 70
    0
  9
$DIMLDRBLK
  1
STANDARD
  9
$DIMLUNIT
 70
    2
  9
$DIMLWD
 70
   -2
  9
$DIMLWE
 70
   -2
  9
$DIMTMOVE
 70
    0
  9
$DIMFXL
 40
1
  9
$DIMFXLON
 70
    0
  9
$DIMJOGANG
 40
0.7854
  9
$DIMTFILL
 70
    0
  9
$DIMTFILLCLR
 70
    0
  9
$DIMARCSYM
 70
    0
  9
$DIMLTYPE
  6

  9
$DIMLTEX1
  6

  9
$DIMLTEX2
  6

  9
$LUNITS
 70
    2
  9
$LUPREC
 70
    4
  9
$SKETCHINC
 40
1
  9
$FILLETRAD
 40
0
  9
$AUNITS
 70
    0
  9
$AUPREC
 70
    2
  9
$MENU
  1
.
  9
$ELEVATION
 40
0
  9
$PELEVATION
 40
0
  9
$THICKNESS
 40
0
  9
$LIMCHECK
 70
    0
  9
$CHAMFERA
 40
0
  9
$CHAMFERB
 40
0
  9
$CHAMFERC
 40
0
  9
$CHAMFERD
 40
0
  9
$SKPOLY
 70
    0
  9
$USRTIMER
 70
    1
  9
$ANGBASE
 50
0
  9
$ANGDIR
 70
    0
  9
$PDMODE
 70
   34
  9
$PDSIZE
 40
0
  9
$PLINEWID
 40
0
  9
$SPLFRAME
 70
    0
  9
$SPLINETYPE
 70
    2
  9
$SPLINESEGS
 70
    8
  9
$HANDSEED
  5
20000
  9
$SURFTAB1
 70
    6
  9
$SURFTAB2
 70
    6
  9
$SURFTYPE
 70
    6
  9
$SURFU
 70
    6
  9
$SURFV
 70
    6
  9
$UCSBASE
  2

  9
$UCSNAME
  2

  9
$UCSORG
 10
0
 20
0
 30
0
  9
$UCSXDIR
 10
1
 20
0
 30
0
  9
$UCSYDIR
 10
0
 20
1
 30
0
  9
$UCSORTHOREF
  2

  9
$UCSORTHOVIEW
 70
    0
  9
$UCSORGTOP
 10
0
 20
0
 30
0
  9
$UCSORGBOTTOM
 10
0
 20
0
 30
0
  9
$UCSORGLEFT
 10
0
 20
0
 30
0
  9
$UCSORGRIGHT
 10
0
 20
0
 30
0
  9
$UCSORGFRONT
 10
0
 20
0
 30
0
  9
$UCSORGBACK
 10
0
 20
0
 30
0
  9
$PUCSBASE
  2

  9
$PUCSNAME
  2

  9
$PUCSORG
 10
0
 20
0
 30
0
  9
$PUCSXDIR
 10
1
 20
0
 30
0
  9
$PUCSYDIR
 10
0
 20
1
 30
0
  9
$PUCSORTHOREF
  2

  9
$PUCSORTHOVIEW
 70
    0
  9
$PUCSORGTOP
 10
0
 20
0
 30
0
  9
$PUCSORGBOTTOM
 10
0
 20
0
 30
0
  9
$PUCSORGLEFT
 10
0
 20
0
 30
0
  9
$PUCSORGRIGHT
 10
0
 20
0
 30
0
  9
$PUCSORGFRONT
 10
0
 20
0
 30
0
  9
$PUCSORGBACK
 10
0
 20
0
 30
0
  9
$USERI1
 70
    0
  9
$USERI2
 70
    0
  9
$USERI3
 70
    0
  9
$USERI4
 70
    0
  9
$USERI5
 70
    0
  9
$USERR1
 40
0
  9
$USERR2
 40
0
  9
$USERR3
 40
0
  9
$USERR4
 40
0
  9
$USERR5
 40
0
  9
$WORLDVIEW
 70
    1
  9
$SHADEDGE
 70
    3
  9
$SHADEDIF
 70
   70
  9
$TILEMODE
 70
    1
  9
$MAXACTVP
 70
   64
  9
$PINSBASE
 10
0
 20
0
 30
0
  9
$PLIMCHECK
 70
    0
  9
$PEXTMIN
 10
0
 20
0
 30
0
  9
$PEXTMAX
 10
0
 20
0
 30
0
  9
$GRIDMODE
 70
    1
  9
$SNAPSTYLE
 70
    0
  9
$GRIDUNIT
 10
0
 20
0
  9
$PLIMMIN
 10
0
 20
0
  9
$PLIMMAX
 10
210
 20
297
  9
$UNITMODE
 70
    0
  9
$VISRETAIN
 70
    1
  9
$PLINEGEN
 70
    0
  9
$PSLTSCALE
 70
    1
  9
$TREEDEPTH
 70
 3020
  9
$CMLSTYLE
  2
Standard
  9
$CMLJUST
 70
    0
  9
$CMLSCALE
 40
20
  9
$PROXYGRAPHICS
 70
    1
  9
$MEASUREMENT
 70
    1
  9
$CELWEIGHT
370
   -1
  9
$ENDCAPS
280
    0
  9
$JOINSTYLE
280
    0
  9
$LWDISPLAY
290
    0
  9
$INSUNITS
 70
    4
  9
$HYPERLINKBASE
  1

  9
$STYLESHEET
  1

  9
$XEDIT
290
    1
  9
$CEPSNTYPE
380
    0
  9
$PSTYLEMODE
290
    1
  9
$EXTNAMES
290
    1
  9
$PSVPSCALE
 40
1
  9
$OLESTARTUP
290
    0
  9
$SORTENTS
280
  127
  9
$INDEXCTL
280
    0
  9
$HIDETEXT
280
    1
  9
$XCLIPFRAME
290
    0
  9
$HALOGAP
280
    0
  9
$OBSCOLOR
 70
  257
  9
$OBSLTYPE
280
    0
  9
$INTERSECTIONDISPLAY
280
    0
  9
$INTERSECTIONCOLOR
 70
  257
  9
$DIMASSOC
280
    1
  9
$PROJECTNAME
  1

  9
$CAMERADISPLAY
290
    0
  9
$LENSLENGTH
 40
50
  9
$CAMERAHEIGHT
 40
0
  9
$STEPSPERSEC
 40
2
  9
$STEPSIZE
 40
50
  9
$3DDWFPREC
 40
2
  9
$PSOLWIDTH
 40
5
  9
$PSOLHEIGHT
 40
80
  9
$LOFTANG1
 40
1.570796326794897
  9
$LOFTANG2
 40
1.570796326794897
  9
$LOFTMAG1
 40
0
  9
$LOFTMAG2
 40
0
  9
$LOFTPARAM
 70
    7
  9
$LOFTNORMALS
280
    1
  9
$LATITUDE
 40
1
  9
$LONGITUDE
 40
1
  9
$NORTHDIRECTION
 40
0
  9
$TIMEZONE
 70
-8000
  9
$LIGHTGLYPHDISPLAY
280
    1
  9
$TILEMODELIGHTSYNCH
280
    1
  9
$SOLIDHIST
280
    1
  9
$SHOWHIST
280
    1
  9
$DWFFRAME
280
    2
  9
$DGNFRAME
280
    0
  9
$REALWORLDSCALE
290
    1
  9
$INTERFERECOLOR
 62
    1
  9
$CSHADOW
280
    0
  9
$SHADOWPLANELOCATION
 40
0
  0
ENDSEC
  0
SECTION
  2
CLASSES
  0
ENDSEC
  0
SECTION
  2
TABLES
  0
TABLE
  2
VPORT
  5
8
330
0
100
AcDbSymbolTable
 70
    1
  0
VPORT
  5
31
330
2
100
AcDbSymbolTableRecord
100
AcDbViewportTableRecord
  2
*ACTIVE
 70
    0
 10
0
 20
0
 11
1
 21
1
 12
300.8253037250034
 22
63.08975119788266
 13
0
 23
0
 14
10
 24
10
 15
10
 25
10
 16
0
 26
0
 36
1
 17
0
 27
0
 37
0
 40
345.9490992837539
 41
1.934782608695652
 42
50
 43
0
 44
0
 50
0
 51
0
 71
    0
 72
  100
 73
    1
 74
    3
 75
    0
 76
    1
 77
    0
 78
    0
281
    0
 65
    1
110
0
120
0
130
0
111
1
121
0
131
0
112
0
122
1
132
0
 79
    0
146
0
348
10020
 60
    7
 61
    5
292
1
282
    1
141
0
142
0
 63
  250
421
3358443
  0
ENDTAB
  0
TABLE
  2
LTYPE
  5
5
330
0
100
AcDbSymbolTable
 70
    4
  0
LTYPE
  5
14
330
5
100
AcDbSymbolTableRecord
100
AcDbLinetypeTableRecord
  2
ByBlock
 70
    0
  3

 72
   65
 73
    0
 40
0
  0
LTYPE
  5
15
330
5
100
AcDbSymbolTableRecord
100
AcDbLinetypeTableRecord
  2
ByLayer
 70
    0
  3

 72
   65
 73
    0
 40
0
  0
LTYPE
  5
16
330
5
100
AcDbSymbolTableRecord
100
AcDbLinetypeTableRecord
  2
Continuous
 70
    0
  3
Solid line
 72
   65
 73
    0
 40
0
  0
LTYPE
  5
32
330
5
100
AcDbSymbolTableRecord
100
AcDbLinetypeTableRecord
  2
DOT
 70
    0
  3
Dot . . . . . . . . . . . . . . . . . . . . . .
 72
   65
 73
    2
 40
6.35
 49
0
 74
    0
 49
-6.35
 74
    0
  0
LTYPE
  5
33
330
5
100
AcDbSymbolTableRecord
100
AcDbLinetypeTableRecord
  2
DOTTINY
 70
    0
  3
Dot (.15x) .....................................
 72
   65
 73
    2
 40
0.9525
 49
0
 74
    0
 49
-0.9525
 74
    0
  0
LTYPE
  5
34
330
5
100
AcDbSymbolTableRecord
100
AcDbLinetypeTableRecord
  2
DOT2
 70
    0
  3
Dot (.5x) .....................................
 72
   65
 73
    2
 40
3.175
 49
0
 74
    0
 49
-3.175
 74
    0
  0
LTYPE
  5
35
330
5
100
AcDbSymbolTableRecord
100
AcDbLinetypeTableRecord
  2
DOTX2
 70
    0
  3
Dot (2x) .  .  .  .  .  .  .  .  .  .  .  .  .
 72
   65
 73
    2
 40
12.7
 49
0
 74
    0
 49
-12.7
 74
    0
  0
LTYPE
  5
36
330
5
100
AcDbSymbolTableRecord
100
AcDbLinetypeTableRecord
  2
DASHED
 70
    0
  3
Dashed _ _ _ _ _ _ _ _ _ _ _ _ _ _ _ _ _
 72
   65
 73
    2
 40
19.05
 49
12.7
 74
    0
 49
-6.35
 74
    0
  0
LTYPE
  5
37
330
5
100
AcDbSymbolTableRecord
100
AcDbLinetypeTableRecord
  2
DASHEDTINY
 70
    0
  3
Dashed (.15x) _ _ _ _ _ _ _ _ _ _ _ _ _ _ _ _ _
 72
   65
 73
    2
 40
2.8575
 49
1.905
 74
    0
 49
-0.9525
 74
    0
  0
LTYPE
  5
38
330
5
100
AcDbSymbolTableRecord
100
AcDbLinetypeTableRecord
  2
DASHED2
 70
    0
  3
Dashed (.5x) _ _ _ _ _ _ _ _ _ _ _ _ _ _ _ _ _
 72
   65
 73
    2
 40
9.524999999999999
 49
6.35
 74
    0
 49
-3.175
 74
    0
  0
LTYPE
  5
39
330
5
100
AcDbSymbolTableRecord
100
AcDbLinetypeTableRecord
  2
DASHEDX2
 70
    0
  3
Dashed (2x) ____  ____  ____  ____  ____  ___
 72
   65
 73
    2
 40
38.09999999999999
 49
25.4
 74
    0
 49
-12.7
 74
    0
  0
LTYPE
  5
3A
330
5
100
AcDbSymbolTableRecord
100
AcDbLinetypeTableRecord
  2
DASHDOT
 70
    0
  3
Dash dot __ . __ . __ . __ . __ . __ . __ . __
 72
   65
 73
    4
 40
25.4
 49
12.7
 74
    0
 49
-6.35
 74
    0
 49
0
 74
    0
 49
-6.35
 74
    0
  0
LTYPE
  5
3B
330
5
100
AcDbSymbolTableRecord
100
AcDbLinetypeTableRecord
  2
DASHDOTTINY
 70
    0
  3
Dash dot (.15x) _._._._._._._._._._._._._._._.
 72
   65
 73
    4
 40
3.81
 49
1.905
 74
    0
 49
-0.9525
 74
    0
 49
0
 74
    0
 49
-0.9525
 74
    0
  0
LTYPE
  5
3C
330
5
100
AcDbSymbolTableRecord
100
AcDbLinetypeTableRecord
  2
DASHDOT2
 70
    0
  3
Dash dot (.5x) _._._._._._._._._._._._._._._.
 72
   65
 73
    4
 40
12.7
 49
6.35
 74
    0
 49
-3.175
 74
    0
 49
0
 74
    0
 49
-3.175
 74
    0
  0
LTYPE
  5
3D
330
5
100
AcDbSymbolTableRecord
100
AcDbLinetypeTableRecord
  2
DASHDOTX2
 70
    0
  3
Dash dot (2x) ____  .  ____  .  ____  .  ___
 72
   65
 73
    4
 40
50.8
 49
25.4
 74
    0
 49
-12.7
 74
    0
 49
0
 74
    0
 49
-12.7
 74
    0
  0
LTYPE
  5
3E
330
5
100
AcDbSymbolTableRecord
100
AcDbLinetypeTableRecord
  2
DIVIDE
 70
    0
  3
Divide ____ . . ____ . . ____ . . ____ . . ____
 72
   65
 73
    6
 40
31.75
 49
12.7
 74
    0
 49
-6.35
 74
    0
 49
0
 74
    0
 49
-6.35
 74
    0
 49
0
 74
    0
 49
-6.35
 74
    0
  0
LTYPE
  5
3F
330
5
100
AcDbSymbolTableRecord
100
AcDbLinetypeTableRecord
  2
DIVIDETINY
 70
    0
  3
Divide (.15x) __..__..__..__..__..__..__..__.._
 72
   65
 73
    6
 40
4.7625
 49
1.905
 74
    0
 49
-0.9525
 74
    0
 49
0
 74
    0
 49
-0.9525
 74
    0
 49
0
 74
    0
 49
-0.9525
 74
    0
  0
LTYPE
  5
40
330
5
100
AcDbSymbolTableRecord
100
AcDbLinetypeTableRecord
  2
DIVIDE2
 70
    0
  3
Divide (.5x) __..__..__..__..__..__..__..__.._
 72
   65
 73
    6
 40
15.875
 49
6.35
 74
    0
 49
-3.175
 74
    0
 49
0
 74
    0
 49
-3.175
 74
    0
 49
0
 74
    0
 49
-3.175
 74
    0
  0
LTYPE
  5
41
330
5
100
AcDbSymbolTableRecord
100
AcDbLinetypeTableRecord
  2
DIVIDEX2
 70
    0
  3
Divide (2x) ________  .  .  ________  .  .  _
 72
   65
 73
    6
 40
63.5
 49
25.4
 74
    0
 49
-12.7
 74
    0
 49
0
 74
    0
 49
-12.7
 74
    0
 49
0
 74
    0
 49
-12.7
 74
    0
  0
LTYPE
  5
42
330
5
100
AcDbSymbolTableRecord
100
AcDbLinetypeTableRecord
  2
BORDER
 70
    0
  3
Border __ __ . __ __ . __ __ . __ __ . __ __ .
 72
   65
 73
    6
 40
44.45
 49
12.7
 74
    0
 49
-6.35
 74
    0
 49
12.7
 74
    0
 49
-6.35
 74
    0
 49
0
 74
    0
 49
-6.35
 74
    0
  0
LTYPE
  5
43
330
5
100
AcDbSymbolTableRecord
100
AcDbLinetypeTableRecord
  2
BORDERTINY
 70
    0
  3
Border (.15x) __.__.__.__.__.__.__.__.__.__.__.
 72
   65
 73
    6
 40
6.6675
 49
1.905
 74
    0
 49
-0.9525
 74
    0
 49
1.905
 74
    0
 49
-0.9525
 74
    0
 49
0
 74
    0
 49
-0.9525
 74
    0
  0
LTYPE
  5
44
330
5
100
AcDbSymbolTableRecord
100
AcDbLinetypeTableRecord
  2
BORDER2
 70
    0
  3
Border (.5x) __.__.__.__.__.__.__.__.__.__.__.
 72
   65
 73
    6
 40
22.225
 49
6.35
 74
    0
 49
-3.175
 74
    0
 49
6.35
 74
    0
 49
-3.175
 74
    0
 49
0
 74
    0
 49
-3.175
 74
    0
  0
LTYPE
  5
45
330
5
100
AcDbSymbolTableRecord
100
AcDbLinetypeTableRecord
  2
BORDERX2
 70
    0
  3
Border (2x) ____  ____  .  ____  ____  .  ___
 72
   65
 73
    6
 40
88.89999999999999
 49
25.4
 74
    0
 49
-12.7
 74
    0
 49
25.4
 74
    0
 49
-12.7
 74
    0
 49
0
 74
    0
 49
-12.7
 74
    0
  0
LTYPE
  5
46
330
5
100
AcDbSymbolTableRecord
100
AcDbLinetypeTableRecord
  2
CENTER
 70
    0
  3
Center ____ _ ____ _ ____ _ ____ _ ____ _ ____
 72
   65
 73
    4
 40
50.8
 49
31.75
 74
    0
 49
-6.35
 74
    0
 49
6.35
 74
    0
 49
-6.35
 74
    0
  0
LTYPE
  5
47
330
5
100
AcDbSymbolTableRecord
100
AcDbLinetypeTableRecord
  2
CENTERTINY
 70
    0
  3
Center (.15x) ___ _ ___ _ ___ _ ___ _ ___ _ ___
 72
   65
 73
    4
 40
7.62
 49
4.7625
 74
    0
 49
-0.9525
 74
    0
 49
0.9525
 74
    0
 49
-0.9525
 74
    0
  0
LTYPE
  5
48
330
5
100
AcDbSymbolTableRecord
100
AcDbLinetypeTableRecord
  2
CENTER2
 70
    0
  3
Center (.5x) ___ _ ___ _ ___ _ ___ _ ___ _ ___
 72
   65
 73
    4
 40
28.575
 49
19.05
 74
    0
 49
-3.175
 74
    0
 49
3.175
 74
    0
 49
-3.175
 74
    0
  0
LTYPE
  5
49
330
5
100
AcDbSymbolTableRecord
100
AcDbLinetypeTableRecord
  2
CENTERX2
 70
    0
  3
Center (2x) ________  __  ________  __  _____
 72
   65
 73
    4
 40
101.6
 49
63.5
 74
    0
 49
-12.7
 74
    0
 49
12.7
 74
    0
 49
-12.7
 74
    0
  0
ENDTAB
  0
TABLE
  2
LAYER
  5
2
330
0
100
AcDbSymbolTable
 70
    1
  0
LAYER
  5
10
330
2
100
AcDbSymbolTableRecord
100
AcDbLayerTableRecord
  2
0
 70
    0
 62
    7
  6
CONTINUOUS
370
   35
390
F
  0
LAYER
  5
4A
330
2
100
AcDbSymbolTableRecord
100
AcDbLayerTableRecord
  2
dimensioning
 70
    0
 62
    5
  6
CONTINUOUS
370
    0
390
F
  0
ENDTAB
  0
TABLE
  2
STYLE
  5
3
330
0
100
AcDbSymbolTable
 70
    3
  0
STYLE
  5
4B
330
2
100
AcDbSymbolTableRecord
100
AcDbTextStyleTableRecord
  2
Standard
 70
    0
 40
0
 41
1
 50
0
 71
    0
 42
1
  3
txt
  4

  0
ENDTAB
  0
TABLE
  2
VIEW
  5
6
330
0
100
AcDbSymbolTable
 70
    0
  0
ENDTAB
  0
TABLE
  2
UCS
  5
7
330
0
100
AcDbSymbolTable
 70
    0
  0
ENDTAB
  0
TABLE
  2
APPID
  5
9
330
0
100
AcDbSymbolTable
 70
    1
  0
APPID
  5
12
330
9
100
AcDbSymbolTableRecord
100
AcDbRegAppTableRecord
  2
ACAD
 70
    0
  0
APPID
  5
4C
330
9
100
AcDbSymbolTableRecord
100
AcDbRegAppTableRecord
  2
LibreCad
 70
    0
  0
ENDTAB
  0
TABLE
  2
DIMSTYLE
  5
A
330
0
100
AcDbSymbolTable
 70
    1
100
AcDbDimStyleTable
 71
    1
  0
DIMSTYLE
105
4D
330
A
100
AcDbSymbolTableRecord
100
AcDbDimStyleTableRecord
  2
Standard
 70
    0
 40
1
 41
2.5
 42
0.625
 43
0.38
 44
1.25
 45
0
 46
0
 47
0
 48
0
 49
1
140
2.5
141
0.09
142
0
143
25.4
144
1
145
0
146
1
147
0.625
148
0
 71
    0
 72
    0
 73
    0
 74
    1
 75
    0
 76
    0
 77
    0
 78
    1
 79
    0
170
    0
171
    2
172
    0
173
    0
174
    0
175
    0
176
    0
177
    0
178
    0
179
    2
271
    1
272
    4
273
    2
274
    2
275
    0
276
    0
277
    2
278
    0
279
    0
280
    0
281
    0
282
    0
283
    1
284
    0
285
    0
286
    0
288
    0
289
    3
340
standard
341

371
   -2
372
   -2
  0
ENDTAB
  0
TABLE
  2
BLOCK_RECORD
  5
1
330
0
100
AcDbSymbolTable
 70
    2
  0
BLOCK_RECORD
  5
1F
330
1
100
AcDbSymbolTableRecord
100
AcDbBlockTableRecord
  2
*Model_Space
 70
    0
280
    1
281
    0
  0
BLOCK_RECORD
  5
1E
330
1
100
AcDbSymbolTableRecord
100
AcDbBlockTableRecord
  2
*Paper_Space
 70
    0
280
    1
281
    0
  0
BLOCK_RECORD
  5
4E
330
1
100
AcDbSymbolTableRecord
100
AcDbBlockTableRecord
  2
*D5
 70
    0
280
    1
281
    0
  0
BLOCK_RECORD
  5
51
330
1
100
AcDbSymbolTableRecord
100
AcDbBlockTableRecord
  2
*D8
 70
    0
280
    1
281
    0
  0
BLOCK_RECORD
  5
54
330
1
100
AcDbSymbolTableRecord
100
AcDbBlockTableRecord
  2
*D2
 70
    0
280
    1
281
    0
  0
BLOCK_RECORD
  5
57
330
1
100
AcDbSymbolTableRecord
100
AcDbBlockTableRecord
  2
*D7
 70
    0
280
    1
281
    0
  0
BLOCK_RECORD
  5
5A
330
1
100
AcDbSymbolTableRecord
100
AcDbBlockTableRecord
  2
*D4
 70
    0
280
    1
281
    0
  0
BLOCK_RECORD
  5
5D
330
1
100
AcDbSymbolTableRecord
100
AcDbBlockTableRecord
  2
*D3
 70
    0
280
    1
281
    0
  0
BLOCK_RECORD
  5
60
330
1
100
AcDbSymbolTableRecord
100
AcDbBlockTableRecord
  2
*D10
 70
    0
280
    1
281
    0
  0
BLOCK_RECORD
  5
63
330
1
100
AcDbSymbolTableRecord
100
AcDbBlockTableRecord
  2
*D6
 70
    0
280
    1
281
    0
  0
BLOCK_RECORD
  5
66
330
1
100
AcDbSymbolTableRecord
100
AcDbBlockTableRecord
  2
*D9
 70
    0
280
    1
281
    0
  0
BLOCK_RECORD
  5
69
330
1
100
AcDbSymbolTableRecord
100
AcDbBlockTableRecord
  2
*D1
 70
    0
280
    1
281
    0
  0
ENDTAB
  0
ENDSEC
  0
SECTION
  2
BLOCKS
  0
BLOCK
  5
20
330
1F
100
AcDbEntity
  8
0
100
AcDbBlockBegin
  2
*Model_Space
 70
    0
 10
0
 20
0
 30
0
  3
*Model_Space
  1

  0
ENDBLK
  5
21
330
1F
100
AcDbEntity
  8
0
100
AcDbBlockEnd
  0
BLOCK
  5
1C
330
1B
100
AcDbEntity
  8
0
100
AcDbBlockBegin
  2
*Paper_Space
 70
    0
 10
0
 20
0
 30
0
  3
*Paper_Space
  1

  0
ENDBLK
  5
1D
330
1F
100
AcDbEntity
  8
0
100
AcDbBlockEnd
  0
BLOCK
  5
4F
330
4E
100
AcDbEntity
  8
0
100
AcDbBlockBegin
  2
*D5
 70
    1
 10
0
 20
0
  3
*D5
  1

  0
LINE
  5
6C
100
AcDbEntity
  8
dimensioning
  6
ByBlock
 62
    0
370
   -2
100
AcDbLine
 10
196.3
 20
29.5
 11
196.3
 21
41.5
  0
MTEXT
  5
6D
100
AcDbEntity
  8
dimensioning
  6
CONTINUOUS
 62
    0
370
   -2
100
AcDbMText
 10
194.425
 20
35.5
 30
0
 40
2.5
 41
5.277777777777778
 71
    5
 72
    1
  1
12.0
  7
standard
210
0
220
0
230
1
 50
90
 73
    2
 44
1
  0
SOLID
  5
6E
100
AcDbEntity
  8
dimensioning
  6
ByBlock
 62
    0
370
   -2
100
AcDbTrace
 10
196.3
 20
29.5
 30
0
 11
195.8837153422272
 21
32
 31
0
 12
196.7162846577729
 22
32
 32
0
 13
196.7162846577729
 23
32
 33
0
  0
SOLID
  5
6F
100
AcDbEntity
  8
dimensioning
  6
ByBlock
 62
    0
370
   -2
100
AcDbTrace
 10
196.3
 20
41.5
 30
0
 11
196.7162846577729
 21
39
 31
0
 12
195.8837153422272
 22
39
 32
0
 13
195.8837153422272
 23
39
 33
0
  0
LINE
  5
70
100
AcDbEntity
  8
dimensioning
  6
ByBlock
 62
    0
370
   -2
100
AcDbLine
 10
199.375
 20
29.5
 11
195.05
 21
29.5
  0
LINE
  5
71
100
AcDbEntity
  8
dimensioning
  6
ByBlock
 62
    0
370
   -2
100
AcDbLine
 10
199.375
 20
41.5
 11
195.05
 21
41.5
  0
ENDBLK
  5
50
330
4E
100
AcDbEntity
  8
0
100
AcDbBlockEnd
  0
BLOCK
  5
52
330
51
100
AcDbEntity
  8
0
100
AcDbBlockBegin
  2
*D8
 70
    1
 10
0
 20
0
  3
*D8
  1

  0
LINE
  5
72
100
AcDbEntity
  8
dimensioning
  6
ByBlock
 62
    0
370
   -2
100
AcDbLine
 10
263
 20
33
 11
253
 21
33
  0
MTEXT
  5
73
100
AcDbEntity
  8
dimensioning
  6
CONTINUOUS
 62
    0
370
   -2
100
AcDbMText
 10
258
 20
34.875
 30
0
 40
2.5
 41
5.277777777777778
 71
    5
 72
    1
  1
10.0
  7
standard
210
0
220
0
230
1
 50
0
 73
    2
 44
1
  0
SOLID
  5
74
100
AcDbEntity
  8
dimensioning
  6
ByBlock
 62
    0
370
   -2
100
AcDbTrace
 10
263
 20
33
 30
0
 11
260.5
 21
32.58371534222716
 31
0
 12
260.5
 22
33.41628465777284
 32
0
 13
260.5
 23
33.41628465777284
 33
0
  0
SOLID
  5
75
100
AcDbEntity
  8
dimensioning
  6
ByBlock
 62
    0
370
   -2
100
AcDbTrace
 10
253
 20
33
 30
0
 11
255.5
 21
33.41628465777284
 31
0
 12
255.5
 22
32.58371534222716
 32
0
 13
255.5
 23
32.58371534222716
 33
0
  0
LINE
  5
76
100
AcDbEntity
  8
dimensioning
  6
ByBlock
 62
    0
370
   -2
100
AcDbLine
 10
263
 20
27.625
 11
263
 21
34.25
  0
LINE
  5
77
100
AcDbEntity
  8
dimensioning
  6
ByBlock
 62
    0
370
   -2
100
AcDbLine
 10
253
 20
27.625
 11
253
 21
34.25
  0
ENDBLK
  5
53
330
51
100
AcDbEntity
  8
0
100
AcDbBlockEnd
  0
BLOCK
  5
55
330
54
100
AcDbEntity
  8
0
100
AcDbBlockBegin
  2
*D2
 70
    1
 10
0
 20
0
  3
*D2
  1

  0
LINE
  5
78
100
AcDbEntity
  8
dimensioning
  6
ByBlock
 62
    0
370
   -2
100
AcDbLine
 10
222
 20
-3.5
 11
222
 21
11.5
  0
MTEXT
  5
79
100
AcDbEntity
  8
dimensioning
  6
CONTINUOUS
 62
    0
370
   -2
100
AcDbMText
 10
220.125
 20
4
 30
0
 40
2.5
 41
3.888888888889044
 71
    5
 72
    1
  1
5.0
  7
standard
210
0
220
0
230
1
 50
90
 73
    2
 44
1
  0
SOLID
  5
7A
100
AcDbEntity
  8
dimensioning
  6
ByBlock
 62
    0
370
   -2
100
AcDbTrace
 10
222
 20
1.5
 30
0
 11
222.4162846577728
 21
-1
 31
0
 12
221.5837153422272
 22
-1
 32
0
 13
221.5837153422272
 23
-1
 33
0
  0
SOLID
  5
7B
100
AcDbEntity
  8
dimensioning
  6
ByBlock
 62
    0
370
   -2
100
AcDbTrace
 10
222
 20
6.5
 30
0
 11
221.5837153422272
 21
9
 31
0
 12
222.4162846577728
 22
9
 32
0
 13
222.4162846577728
 23
9
 33
0
  0
LINE
  5
7C
100
AcDbEntity
  8
dimensioning
  6
ByBlock
 62
    0
370
   -2
100
AcDbLine
 10
205.625
 20
1.5
 11
223.25
 21
1.5
  0
LINE
  5
7D
100
AcDbEntity
  8
dimensioning
  6
ByBlock
 62
    0
370
   -2
100
AcDbLine
 10
205.625
 20
6.5
 11
223.25
 21
6.5
  0
ENDBLK
  5
56
330
54
100
AcDbEntity
  8
0
100
AcDbBlockEnd
  0
BLOCK
  5
58
330
57
100
AcDbEntity
  8
0
100
AcDbBlockBegin
  2
*D7
 70
    1
 10
0
 20
0
  3
*D7
  1

  0
LINE
  5
7E
100
AcDbEntity
  8
dimensioning
  6
ByBlock
 62
    0
370
   -2
100
AcDbLine
 10
245
 20
50
 11
258
 21
50
  0
MTEXT
  5
7F
100
AcDbEntity
  8
dimensioning
  6
CONTINUOUS
 62
    0
370
   -2
100
AcDbMText
 10
255.5694444444445
 20
51.875
 30
0
 40
2.5
 41
3.888888888889044
 71
    5
 72
    1
  1
3.0
  7
standard
210
0
220
0
230
1
 50
0
 73
    2
 44
1
  0
SOLID
  5
80
100
AcDbEntity
  8
dimensioning
  6
ByBlock
 62
    0
370
   -2
100
AcDbTrace
 10
250
 20
50
 30
0
 11
247.5
 21
49.58371534222716
 31
0
 12
247.5
 22
50.41628465777284
 32
0
 13
247.5
 23
50.41628465777284
 33
0
  0
SOLID
  5
81
100
AcDbEntity
  8
dimensioning
  6
ByBlock
 62
    0
370
   -2
100
AcDbTrace
 10
253
 20
50
 30
0
 11
255.5
 21
50.41628465777284
 31
0
 12
255.5
 22
49.58371534222716
 32
0
 13
255.5
 23
49.58371534222716
 33
0
  0
LINE
  5
82
100
AcDbEntity
  8
dimensioning
  6
ByBlock
 62
    0
370
   -2
100
AcDbLine
 10
250
 20
40.625
 11
250
 21
51.25
  0
LINE
  5
83
100
AcDbEntity
  8
dimensioning
  6
ByBlock
 62
    0
370
   -2
100
AcDbLine
 10
253
 20
40.625
 11
253
 21
51.25
  0
ENDBLK
  5
59
330
57
100
AcDbEntity
  8
0
100
AcDbBlockEnd
  0
BLOCK
  5
5B
330
5A
100
AcDbEntity
  8
0
100
AcDbBlockBegin
  2
*D4
 70
    1
 10
0
 20
0
  3
*D4
  1

  0
LINE
  5
84
100
AcDbEntity
  8
dimensioning
  6
ByBlock
 62
    0
370
   -2
100
AcDbLine
 10
0
 20
50
 11
210
 21
50
  0
MTEXT
  5
85
100
AcDbEntity
  8
dimensioning
  6
CONTINUOUS
 62
    0
370
   -2
100
AcDbMText
 10
105
 20
51.875
 30
0
 40
2.5
 41
7.222222222222222
 71
    5
 72
    1
  1
210.0
  7
standard
210
0
220
0
230
1
 50
0
 73
    2
 44
1
  0
SOLID
  5
86
100
AcDbEntity
  8
dimensioning
  6
ByBlock
 62
    0
370
   -2
100
AcDbTrace
 10
0
 20
50
 30
0
 11
2.5
 21
50.41628465777284
 31
0
 12
2.5
 22
49.58371534222716
 32
0
 13
2.5
 23
49.58371534222716
 33
0
  0
SOLID
  5
87
100
AcDbEntity
  8
dimensioning
  6
ByBlock
 62
    0
370
   -2
100
AcDbTrace
 10
210
 20
50
 30
0
 11
207.5
 21
49.58371534222716
 31
0
 12
207.5
 22
50.41628465777284
 32
0
 13
207.5
 23
50.41628465777284
 33
0
  0
LINE
  5
88
100
AcDbEntity
  8
dimensioning
  6
ByBlock
 62
    0
370
   -2
100
AcDbLine
 10
3.826894855694929e-017
 20
41.625
 11
7.653789711389858e-017
 21
51.25
  0
LINE
  5
89
100
AcDbEntity
  8
dimensioning
  6
ByBlock
 62
    0
370
   -2
100
AcDbLine
 10
210
 20
41.625
 11
210
 21
51.25
  0
ENDBLK
  5
5C
330
5A
100
AcDbEntity
  8
0
100
AcDbBlockEnd
  0
BLOCK
  5
5E
330
5D
100
AcDbEntity
  8
0
100
AcDbBlockBegin
  2
*D3
 70
    1
 10
0
 20
0
  3
*D3
  1

  0
LINE
  5
8A
100
AcDbEntity
  8
dimensioning
  6
ByBlock
 62
    0
370
   -2
100
AcDbLine
 10
-9.000000000000002
 20
1.5
 11
-9
 21
41.5
  0
MTEXT
  5
8B
100
AcDbEntity
  8
dimensioning
  6
CONTINUOUS
 62
    0
370
   -2
100
AcDbMText
 10
-10.875
 20
21.5
 30
0
 40
2.5
 41
6.111111111111112
 71
    5
 72
    1
  1
40.0
  7
standard
210
0
220
0
230
1
 50
90
 73
    2
 44
1
  0
SOLID
  5
8C
100
AcDbEntity
  8
dimensioning
  6
ByBlock
 62
    0
370
   -2
100
AcDbTrace
 10
-9.000000000000002
 20
1.5
 30
0
 11
-9.416284657772842
 21
4
 31
0
 12
-8.58371534222716
 22
4
 32
0
 13
-8.58371534222716
 23
4
 33
0
  0
SOLID
  5
8D
100
AcDbEntity
  8
dimensioning
  6
ByBlock
 62
    0
370
   -2
100
AcDbTrace
 10
-9
 20
41.5
 30
0
 11
-8.58371534222716
 21
39
 31
0
 12
-9.41628465777284
 22
39
 32
0
 13
-9.41628465777284
 23
39
 33
0
  0
LINE
  5
8E
100
AcDbEntity
  8
dimensioning
  6
ByBlock
 62
    0
370
   -2
100
AcDbLine
 10
-0.425
 20
1.5
 11
-10.25
 21
1.5
  0
LINE
  5
8F
100
AcDbEntity
  8
dimensioning
  6
ByBlock
 62
    0
370
   -2
100
AcDbLine
 10
-0.2249999999999993
 20
41.5
 11
-10.25
 21
41.5
  0
ENDBLK
  5
5F
330
5D
100
AcDbEntity
  8
0
100
AcDbBlockEnd
  0
BLOCK
  5
61
330
60
100
AcDbEntity
  8
0
100
AcDbBlockBegin
  2
*D10
 70
    1
 10
0
 20
0
  3
*D10
  1

  0
LINE
  5
90
100
AcDbEntity
  8
dimensioning
  6
ByBlock
 62
    0
370
   -2
100
AcDbLine
 10
253
 20
-10
 11
272
 21
-10
  0
MTEXT
  5
91
100
AcDbEntity
  8
dimensioning
  6
CONTINUOUS
 62
    0
370
   -2
100
AcDbMText
 10
262.5
 20
-8.125
 30
0
 40
2.5
 41
5.277777777777778
 71
    5
 72
    1
  1
19.0
  7
standard
210
0
220
0
230
1
 50
0
 73
    2
 44
1
  0
SOLID
  5
92
100
AcDbEntity
  8
dimensioning
  6
ByBlock
 62
    0
370
   -2
100
AcDbTrace
 10
253
 20
-10
 30
0
 11
255.5
 21
-9.58371534222716
 31
0
 12
255.5
 22
-10.41628465777284
 32
0
 13
255.5
 23
-10.41628465777284
 33
0
  0
SOLID
  5
93
100
AcDbEntity
  8
dimensioning
  6
ByBlock
 62
    0
370
   -2
100
AcDbTrace
 10
272
 20
-10
 30
0
 11
269.5
 21
-10.41628465777284
 31
0
 12
269.5
 22
-9.58371534222716
 32
0
 13
269.5
 23
-9.58371534222716
 33
0
  0
LINE
  5
94
100
AcDbEntity
  8
dimensioning
  6
ByBlock
 62
    0
370
   -2
100
AcDbLine
 10
253
 20
-0.625
 11
253
 21
-11.25
  0
LINE
  5
95
100
AcDbEntity
  8
dimensioning
  6
ByBlock
 62
    0
370
   -2
100
AcDbLine
 10
272
 20
-0.625
 11
272
 21
-11.25
  0
ENDBLK
  5
62
330
60
100
AcDbEntity
  8
0
100
AcDbBlockEnd
  0
BLOCK
  5
64
330
63
100
AcDbEntity
  8
0
100
AcDbBlockBegin
  2
*D6
 70
    1
 10
0
 20
0
  3
*D6
  1

  0
LINE
  5
96
100
AcDbEntity
  8
dimensioning
  6
ByBlock
 62
    0
370
   -2
100
AcDbLine
 10
200
 20
23
 11
210
 21
23
  0
MTEXT
  5
97
100
AcDbEntity
  8
dimensioning
  6
CONTINUOUS
 62
    0
370
   -2
100
AcDbMText
 10
205
 20
24.875
 30
0
 40
2.5
 41
5.277777777777778
 71
    5
 72
    1
  1
10.0
  7
standard
210
0
220
0
230
1
 50
0
 73
    2
 44
1
  0
SOLID
  5
98
100
AcDbEntity
  8
dimensioning
  6
ByBlock
 62
    0
370
   -2
100
AcDbTrace
 10
200
 20
23
 30
0
 11
202.5
 21
23.41628465777284
 31
0
 12
202.5
 22
22.58371534222716
 32
0
 13
202.5
 23
22.58371534222716
 33
0
  0
SOLID
  5
99
100
AcDbEntity
  8
dimensioning
  6
ByBlock
 62
    0
370
   -2
100
AcDbTrace
 10
210
 20
23
 30
0
 11
207.5
 21
22.58371534222716
 31
0
 12
207.5
 22
23.41628465777284
 32
0
 13
207.5
 23
23.41628465777284
 33
0
  0
LINE
  5
9A
100
AcDbEntity
  8
dimensioning
  6
ByBlock
 62
    0
370
   -2
100
AcDbLine
 10
200
 20
28.875
 11
200
 21
21.75
  0
LINE
  5
9B
100
AcDbEntity
  8
dimensioning
  6
ByBlock
 62
    0
370
   -2
100
AcDbLine
 10
210
 20
29.375
 11
210
 21
21.75
  0
ENDBLK
  5
65
330
63
100
AcDbEntity
  8
0
100
AcDbBlockEnd
  0
BLOCK
  5
67
330
66
100
AcDbEntity
  8
0
100
AcDbBlockBegin
  2
*D9
 70
    1
 10
0
 20
0
  3
*D9
  1

  0
LINE
  5
9C
100
AcDbEntity
  8
dimensioning
  6
ByBlock
 62
    0
370
   -2
100
AcDbLine
 10
269
 20
27.5
 11
269
 21
12.5
  0
MTEXT
  5
9D
100
AcDbEntity
  8
dimensioning
  6
CONTINUOUS
 62
    0
370
   -2
100
AcDbMText
 10
267.125
 20
20
 30
0
 40
2.5
 41
5.277777777777933
 71
    5
 72
    1
  1
15.0
  7
standard
210
0
220
0
230
1
 50
90
 73
    2
 44
1
  0
SOLID
  5
9E
100
AcDbEntity
  8
dimensioning
  6
ByBlock
 62
    0
370
   -2
100
AcDbTrace
 10
269
 20
27.5
 30
0
 11
269.4162846577728
 21
25
 31
0
 12
268.5837153422272
 22
25
 32
0
 13
268.5837153422272
 23
25
 33
0
  0
SOLID
  5
9F
100
AcDbEntity
  8
dimensioning
  6
ByBlock
 62
    0
370
   -2
100
AcDbTrace
 10
269
 20
12.5
 30
0
 11
268.5837153422272
 21
15
 31
0
 12
269.4162846577728
 22
15
 32
0
 13
269.4162846577728
 23
15
 33
0
  0
LINE
  5
A0
100
AcDbEntity
  8
dimensioning
  6
ByBlock
 62
    0
370
   -2
100
AcDbLine
 10
262.925
 20
27.5
 11
270.25
 21
27.5
  0
LINE
  5
A1
100
AcDbEntity
  8
dimensioning
  6
ByBlock
 62
    0
370
   -2
100
AcDbLine
 10
262.925
 20
12.5
 11
270.25
 21
12.5
  0
ENDBLK
  5
68
330
66
100
AcDbEntity
  8
0
100
AcDbBlockEnd
  0
BLOCK
  5
6A
330
69
100
AcDbEntity
  8
0
100
AcDbBlockBegin
  2
*D1
 70
    1
 10
0
 20
0
  3
*D1
  1

  0
LINE
  5
A2
100
AcDbEntity
  8
dimensioning
  6
ByBlock
 62
    0
370
   -2
100
AcDbLine
 10
200
 20
-10
 11
215
 21
-10
  0
MTEXT
  5
A3
100
AcDbEntity
  8
dimensioning
  6
CONTINUOUS
 62
    0
370
   -2
100
AcDbMText
 10
207.5
 20
-8.125
 30
0
 40
2.5
 41
3.888888888889044
 71
    5
 72
    1
  1
5.0
  7
standard
210
0
220
0
230
1
 50
0
 73
    2
 44
1
  0
SOLID
  5
A4
100
AcDbEntity
  8
dimensioning
  6
ByBlock
 62
    0
370
   -2
100
AcDbTrace
 10
205
 20
-10
 30
0
 11
202.5
 21
-10.41628465777284
 31
0
 12
202.5
 22
-9.58371534222716
 32
0
 13
202.5
 23
-9.58371534222716
 33
0
  0
SOLID
  5
A5
100
AcDbEntity
  8
dimensioning
  6
ByBlock
 62
    0
370
   -2
100
AcDbTrace
 10
210
 20
-10
 30
0
 11
212.5
 21
-9.58371534222716
 31
0
 12
212.5
 22
-10.41628465777284
 32
0
 13
212.5
 23
-10.41628465777284
 33
0
  0
LINE
  5
A6
100
AcDbEntity
  8
dimensioning
  6
ByBlock
 62
    0
370
   -2
100
AcDbLine
 10
205
 20
5.875000000000001
 11
205
 21
-11.25
  0
LINE
  5
A7
100
AcDbEntity
  8
dimensioning
  6
ByBlock
 62
    0
370
   -2
100
AcDbLine
 10
210
 20
5.875000000000001
 11
210
 21
-11.25
  0
ENDBLK
  5
6B
330
69
100
AcDbEntity
  8
0
100
AcDbBlockEnd
  0
ENDSEC
  0
SECTION
  2
ENTITIES
  0
LINE
  5
A8
100
AcDbEntity
  8
0
  6
ByLayer
 62
  256
370
   -1
100
AcDbLine
 10
0
 20
1.5
 11
210
 21
1.5
  0
LINE
  5
A9
100
AcDbEntity
  8
0
  6
ByLayer
 62
  256
370
   -1
100
AcDbLine
 10
210
 20
1.5
 11
210
 21
41.5
  0
LINE
  5
AA
100
AcDbEntity
  8
0
  6
ByLayer
 62
  256
370
   -1
100
AcDbLine
 10
210
 20
41.5
 11
0
 21
41.5
  0
LINE
  5
AB
100
AcDbEntity
  8
0
  6
ByLayer
 62
  256
370
   -1
100
AcDbLine
 10
0
 20
41.5
 11
0
 21
1.5
  0
LINE
  5
AC
100
AcDbEntity
  8
0
  6
ByLayer
 62
  256
370
   -1
100
AcDbLine
 10
3.5
 20
6.5
 11
3.51183
 21
6.688
  0
LINE
  5
AD
100
AcDbEntity
  8
0
  6
ByLayer
 62
  256
370
   -1
100
AcDbLine
 10
3.51183
 20
6.688
 11
3.54712
 21
6.87303
  0
LINE
  5
AE
100
AcDbEntity
  8
0
  6
ByLayer
 62
  256
370
   -1
100
AcDbLine
 10
3.54712
 20
6.87303
 11
3.60534
 21
7.05219
  0
LINE
  5
AF
100
AcDbEntity
  8
0
  6
ByLayer
 62
  256
370
   -1
100
AcDbLine
 10
3.60534
 20
7.05219
 11
3.68554
 21
7.22263
  0
LINE
  5
B0
100
AcDbEntity
  8
0
  6
ByLayer
 62
  256
370
   -1
100
AcDbLine
 10
3.68554
 20
7.22263
 11
3.78647
 21
7.38168
  0
LINE
  5
B1
100
AcDbEntity
  8
0
  6
ByLayer
 62
  256
370
   -1
100
AcDbLine
 10
3.78647
 20
7.38168
 11
3.90655
 21
7.52682
  0
LINE
  5
B2
100
AcDbEntity
  8
0
  6
ByLayer
 62
  256
370
   -1
100
AcDbLine
 10
3.90655
 20
7.52682
 11
4.04386
 21
7.65577
  0
LINE
  5
B3
100
AcDbEntity
  8
0
  6
ByLayer
 62
  256
370
   -1
100
AcDbLine
 10
4.04386
 20
7.65577
 11
4.19626
 21
7.76649
  0
LINE
  5
B4
100
AcDbEntity
  8
0
  6
ByLayer
 62
  256
370
   -1
100
AcDbLine
 10
4.19626
 20
7.76649
 11
4.36133
 21
7.85724
  0
LINE
  5
B5
100
AcDbEntity
  8
0
  6
ByLayer
 62
  256
370
   -1
100
AcDbLine
 10
4.36133
 20
7.85724
 11
4.53647
 21
7.92658
  0
LINE
  5
B6
100
AcDbEntity
  8
0
  6
ByLayer
 62
  256
370
   -1
100
AcDbLine
 10
4.53647
 20
7.92658
 11
4.71893
 21
7.97343
  0
LINE
  5
B7
100
AcDbEntity
  8
0
  6
ByLayer
 62
  256
370
   -1
100
AcDbLine
 10
4.71893
 20
7.97343
 11
4.90581
 21
7.99704
  0
LINE
  5
B8
100
AcDbEntity
  8
0
  6
ByLayer
 62
  256
370
   -1
100
AcDbLine
 10
4.90581
 20
7.99704
 11
5.09418
 21
7.99704
  0
LINE
  5
B9
100
AcDbEntity
  8
0
  6
ByLayer
 62
  256
370
   -1
100
AcDbLine
 10
5.09418
 20
7.99704
 11
5.28107
 21
7.97343
  0
LINE
  5
BA
100
AcDbEntity
  8
0
  6
ByLayer
 62
  256
370
   -1
100
AcDbLine
 10
5.28107
 20
7.97343
 11
5.46352
 21
7.92658
  0
LINE
  5
BB
100
AcDbEntity
  8
0
  6
ByLayer
 62
  256
370
   -1
100
AcDbLine
 10
5.46352
 20
7.92658
 11
5.63867
 21
7.85724
  0
LINE
  5
BC
100
AcDbEntity
  8
0
  6
ByLayer
 62
  256
370
   -1
100
AcDbLine
 10
5.63867
 20
7.85724
 11
5.80374
 21
7.76649
  0
LINE
  5
BD
100
AcDbEntity
  8
0
  6
ByLayer
 62
  256
370
   -1
100
AcDbLine
 10
5.80374
 20
7.76649
 11
5.95614
 21
7.65577
  0
LINE
  5
BE
100
AcDbEntity
  8
0
  6
ByLayer
 62
  256
370
   -1
100
AcDbLine
 10
5.95614
 20
7.65577
 11
6.09345
 21
7.52682
  0
LINE
  5
BF
100
AcDbEntity
  8
0
  6
ByLayer
 62
  256
370
   -1
100
AcDbLine
 10
6.09345
 20
7.52682
 11
6.21352
 21
7.38168
  0
LINE
  5
C0
100
AcDbEntity
  8
0
  6
ByLayer
 62
  256
370
   -1
100
AcDbLine
 10
6.21352
 20
7.38168
 11
6.31446
 21
7.22263
  0
LINE
  5
C1
100
AcDbEntity
  8
0
  6
ByLayer
 62
  256
370
   -1
100
AcDbLine
 10
6.31446
 20
7.22263
 11
6.39466
 21
7.05219
  0
LINE
  5
C2
100
AcDbEntity
  8
0
  6
ByLayer
 62
  256
370
   -1
100
AcDbLine
 10
6.39466
 20
7.05219
 11
6.45287
 21
6.87303
  0
LINE
  5
C3
100
AcDbEntity
  8
0
  6
ByLayer
 62
  256
370
   -1
100
AcDbLine
 10
6.45287
 20
6.87303
 11
6.48817
 21
6.688
  0
LINE
  5
C4
100
AcDbEntity
  8
0
  6
ByLayer
 62
  256
370
   -1
100
AcDbLine
 10
6.48817
 20
6.688
 11
6.5
 21
6.5
  0
LINE
  5
C5
100
AcDbEntity
  8
0
  6
ByLayer
 62
  256
370
   -1
100
AcDbLine
 10
6.5
 20
6.5
 11
6.48817
 21
6.312
  0
LINE
  5
C6
100
AcDbEntity
  8
0
  6
ByLayer
 62
  256
370
   -1
100
AcDbLine
 10
6.48817
 20
6.312
 11
6.45287
 21
6.12696
  0
LINE
  5
C7
100
AcDbEntity
  8
0
  6
ByLayer
 62
  256
370
   -1
100
AcDbLine
 10
6.45287
 20
6.12696
 11
6.39466
 21
5.94781
  0
LINE
  5
C8
100
AcDbEntity
  8
0
  6
ByLayer
 62
  256
370
   -1
100
AcDbLine
 10
6.39466
 20
5.94781
 11
6.31446
 21
5.77737
  0
LINE
  5
C9
100
AcDbEntity
  8
0
  6
ByLayer
 62
  256
370
   -1
100
AcDbLine
 10
6.31446
 20
5.77737
 11
6.21352
 21
5.61832
  0
LINE
  5
CA
100
AcDbEntity
  8
0
  6
ByLayer
 62
  256
370
   -1
100
AcDbLine
 10
6.21352
 20
5.61832
 11
6.09345
 21
5.47318
  0
LINE
  5
CB
100
AcDbEntity
  8
0
  6
ByLayer
 62
  256
370
   -1
100
AcDbLine
 10
6.09345
 20
5.47318
 11
5.95614
 21
5.34423
  0
LINE
  5
CC
100
AcDbEntity
  8
0
  6
ByLayer
 62
  256
370
   -1
100
AcDbLine
 10
5.95614
 20
5.34423
 11
5.80374
 21
5.23351
  0
LINE
  5
CD
100
AcDbEntity
  8
0
  6
ByLayer
 62
  256
370
   -1
100
AcDbLine
 10
5.80374
 20
5.23351
 11
5.63867
 21
5.14276
  0
LINE
  5
CE
100
AcDbEntity
  8
0
  6
ByLayer
 62
  256
370
   -1
100
AcDbLine
 10
5.63867
 20
5.14276
 11
5.46352
 21
5.07341
  0
LINE
  5
CF
100
AcDbEntity
  8
0
  6
ByLayer
 62
  256
370
   -1
100
AcDbLine
 10
5.46352
 20
5.07341
 11
5.28107
 21
5.02657
  0
LINE
  5
D0
100
AcDbEntity
  8
0
  6
ByLayer
 62
  256
370
   -1
100
AcDbLine
 10
5.28107
 20
5.02657
 11
5.09418
 21
5.00296
  0
LINE
  5
D1
100
AcDbEntity
  8
0
  6
ByLayer
 62
  256
370
   -1
100
AcDbLine
 10
5.09418
 20
5.00296
 11
4.90581
 21
5.00296
  0
LINE
  5
D2
100
AcDbEntity
  8
0
  6
ByLayer
 62
  256
370
   -1
100
AcDbLine
 10
4.90581
 20
5.00296
 11
4.71893
 21
5.02657
  0
LINE
  5
D3
100
AcDbEntity
  8
0
  6
ByLayer
 62
  256
370
   -1
100
AcDbLine
 10
4.71893
 20
5.02657
 11
4.53647
 21
5.07341
  0
LINE
  5
D4
100
AcDbEntity
  8
0
  6
ByLayer
 62
  256
370
   -1
100
AcDbLine
 10
4.53647
 20
5.07341
 11
4.36133
 21
5.14276
  0
LINE
  5
D5
100
AcDbEntity
  8
0
  6
ByLayer
 62
  256
370
   -1
100
AcDbLine
 10
4.36133
 20
5.14276
 11
4.19626
 21
5.23351
  0
LINE
  5
D6
100
AcDbEntity
  8
0
  6
ByLayer
 62
  256
370
   -1
100
AcDbLine
 10
4.19626
 20
5.23351
 11
4.04386
 21
5.34423
  0
LINE
  5
D7
100
AcDbEntity
  8
0
  6
ByLayer
 62
  256
370
   -1
100
AcDbLine
 10
4.04386
 20
5.34423
 11
3.90655
 21
5.47318
  0
LINE
  5
D8
100
AcDbEntity
  8
0
  6
ByLayer
 62
  256
370
   -1
100
AcDbLine
 10
3.90655
 20
5.47318
 11
3.78647
 21
5.61832
  0
LINE
  5
D9
100
AcDbEntity
  8
0
  6
ByLayer
 62
  256
370
   -1
100
AcDbLine
 10
3.78647
 20
5.61832
 11
3.68554
 21
5.77737
  0
LINE
  5
DA
100
AcDbEntity
  8
0
  6
ByLayer
 62
  256
370
   -1
100
AcDbLine
 10
3.68554
 20
5.77737
 11
3.60534
 21
5.94781
  0
LINE
  5
DB
100
AcDbEntity
  8
0
  6
ByLayer
 62
  256
370
   -1
100
AcDbLine
 10
3.60534
 20
5.94781
 11
3.54712
 21
6.12696
  0
LINE
  5
DC
100
AcDbEntity
  8
0
  6
ByLayer
 62
  256
370
   -1
100
AcDbLine
 10
3.54712
 20
6.12696
 11
3.51183
 21
6.312
  0
LINE
  5
DD
100
AcDbEntity
  8
0
  6
ByLayer
 62
  256
370
   -1
100
AcDbLine
 10
3.51183
 20
6.312
 11
3.5
 21
6.5
  0
LINE
  5
DE
100
AcDbEntity
  8
0
  6
ByLayer
 62
  256
370
   -1
100
AcDbLine
 10
3.5
 20
36.5
 11
3.51183
 21
36.688
  0
LINE
  5
DF
100
AcDbEntity
  8
0
  6
ByLayer
 62
  256
370
   -1
100
AcDbLine
 10
3.51183
 20
36.688
 11
3.54712
 21
36.873
  0
LINE
  5
E0
100
AcDbEntity
  8
0
  6
ByLayer
 62
  256
370
   -1
100
AcDbLine
 10
3.54712
 20
36.873
 11
3.60534
 21
37.0522
  0
LINE
  5
E1
100
AcDbEntity
  8
0
  6
ByLayer
 62
  256
370
   -1
100
AcDbLine
 10
3.60534
 20
37.0522
 11
3.68554
 21
37.2226
  0
LINE
  5
E2
100
AcDbEntity
  8
0
  6
ByLayer
 62
  256
370
   -1
100
AcDbLine
 10
3.68554
 20
37.2226
 11
3.78647
 21
37.3817
  0
LINE
  5
E3
100
AcDbEntity
  8
0
  6
ByLayer
 62
  256
370
   -1
100
AcDbLine
 10
3.78647
 20
37.3817
 11
3.90655
 21
37.5268
  0
LINE
  5
E4
100
AcDbEntity
  8
0
  6
ByLayer
 62
  256
370
   -1
100
AcDbLine
 10
3.90655
 20
37.5268
 11
4.04386
 21
37.6558
  0
LINE
  5
E5
100
AcDbEntity
  8
0
  6
ByLayer
 62
  256
370
   -1
100
AcDbLine
 10
4.04386
 20
37.6558
 11
4.19626
 21
37.7665
  0
LINE
  5
E6
100
AcDbEntity
  8
0
  6
ByLayer
 62
  256
370
   -1
100
AcDbLine
 10
4.19626
 20
37.7665
 11
4.36133
 21
37.8572
  0
LINE
  5
E7
100
AcDbEntity
  8
0
  6
ByLayer
 62
  256
370
   -1
100
AcDbLine
 10
4.36133
 20
37.8572
 11
4.53647
 21
37.9266
  0
LINE
  5
E8
100
AcDbEntity
  8
0
  6
ByLayer
 62
  256
370
   -1
100
AcDbLine
 10
4.53647
 20
37.9266
 11
4.71893
 21
37.9734
  0
LINE
  5
E9
100
AcDbEntity
  8
0
  6
ByLayer
 62
  256
370
   -1
100
AcDbLine
 10
4.71893
 20
37.9734
 11
4.90581
 21
37.997
  0
LINE
  5
EA
100
AcDbEntity
  8
0
  6
ByLayer
 62
  256
370
   -1
100
AcDbLine
 10
4.90581
 20
37.997
 11
5.09418
 21
37.997
  0
LINE
  5
EB
100
AcDbEntity
  8
0
  6
ByLayer
 62
  256
370
   -1
100
AcDbLine
 10
5.09418
 20
37.997
 11
5.28107
 21
37.9734
  0
LINE
  5
EC
100
AcDbEntity
  8
0
  6
ByLayer
 62
  256
370
   -1
100
AcDbLine
 10
5.28107
 20
37.9734
 11
5.46352
 21
37.9266
  0
LINE
  5
ED
100
AcDbEntity
  8
0
  6
ByLayer
 62
  256
370
   -1
100
AcDbLine
 10
5.46352
 20
37.9266
 11
5.63867
 21
37.8572
  0
LINE
  5
EE
100
AcDbEntity
  8
0
  6
ByLayer
 62
  256
370
   -1
100
AcDbLine
 10
5.63867
 20
37.8572
 11
5.80374
 21
37.7665
  0
LINE
  5
EF
100
AcDbEntity
  8
0
  6
ByLayer
 62
  256
370
   -1
100
AcDbLine
 10
5.80374
 20
37.7665
 11
5.95614
 21
37.6558
  0
LINE
  5
F0
100
AcDbEntity
  8
0
  6
ByLayer
 62
  256
370
   -1
100
AcDbLine
 10
5.95614
 20
37.6558
 11
6.09345
 21
37.5268
  0
LINE
  5
F1
100
AcDbEntity
  8
0
  6
ByLayer
 62
  256
370
   -1
100
AcDbLine
 10
6.09345
 20
37.5268
 11
6.21352
 21
37.3817
  0
LINE
  5
F2
100
AcDbEntity
  8
0
  6
ByLayer
 62
  256
370
   -1
100
AcDbLine
 10
6.21352
 20
37.3817
 11
6.31446
 21
37.2226
  0
LINE
  5
F3
100
AcDbEntity
  8
0
  6
ByLayer
 62
  256
370
   -1
100
AcDbLine
 10
6.31446
 20
37.2226
 11
6.39466
 21
37.0522
  0
LINE
  5
F4
100
AcDbEntity
  8
0
  6
ByLayer
 62
  256
370
   -1
100
AcDbLine
 10
6.39466
 20
37.0522
 11
6.45287
 21
36.873
  0
LINE
  5
F5
100
AcDbEntity
  8
0
  6
ByLayer
 62
  256
370
   -1
100
AcDbLine
 10
6.45287
 20
36.873
 11
6.48817
 21
36.688
  0
LINE
  5
F6
100
AcDbEntity
  8
0
  6
ByLayer
 62
  256
370
   -1
100
AcDbLine
 10
6.48817
 20
36.688
 11
6.5
 21
36.5
  0
LINE
  5
F7
100
AcDbEntity
  8
0
  6
ByLayer
 62
  256
370
   -1
100
AcDbLine
 10
6.5
 20
36.5
 11
6.48817
 21
36.312
  0
LINE
  5
F8
100
AcDbEntity
  8
0
  6
ByLayer
 62
  256
370
   -1
100
AcDbLine
 10
6.48817
 20
36.312
 11
6.45287
 21
36.127
  0
LINE
  5
F9
100
AcDbEntity
  8
0
  6
ByLayer
 62
  256
370
   -1
100
AcDbLine
 10
6.45287
 20
36.127
 11
6.39466
 21
35.9478
  0
LINE
  5
FA
100
AcDbEntity
  8
0
  6
ByLayer
 62
  256
370
   -1
100
AcDbLine
 10
6.39466
 20
35.9478
 11
6.31446
 21
35.7774
  0
LINE
  5
FB
100
AcDbEntity
  8
0
  6
ByLayer
 62
  256
370
   -1
100
AcDbLine
 10
6.31446
 20
35.7774
 11
6.21352
 21
35.6183
  0
LINE
  5
FC
100
AcDbEntity
  8
0
  6
ByLayer
 62
  256
370
   -1
100
AcDbLine
 10
6.21352
 20
35.6183
 11
6.09345
 21
35.4732
  0
LINE
  5
FD
100
AcDbEntity
  8
0
  6
ByLayer
 62
  256
370
   -1
100
AcDbLine
 10
6.09345
 20
35.4732
 11
5.95614
 21
35.3442
  0
LINE
  5
FE
100
AcDbEntity
  8
0
  6
ByLayer
 62
  256
370
   -1
100
AcDbLine
 10
5.95614
 20
35.3442
 11
5.80374
 21
35.2335
  0
LINE
  5
FF
100
AcDbEntity
  8
0
  6
ByLayer
 62
  256
370
   -1
100
AcDbLine
 10
5.80374
 20
35.2335
 11
5.63867
 21
35.1428
  0
LINE
  5
100
100
AcDbEntity
  8
0
  6
ByLayer
 62
  256
370
   -1
100
AcDbLine
 10
5.63867
 20
35.1428
 11
5.46352
 21
35.0734
  0
LINE
  5
101
100
AcDbEntity
  8
0
  6
ByLayer
 62
  256
370
   -1
100
AcDbLine
 10
5.46352
 20
35.0734
 11
5.28107
 21
35.0266
  0
LINE
  5
102
100
AcDbEntity
  8
0
  6
ByLayer
 62
  256
370
   -1
100
AcDbLine
 10
5.28107
 20
35.0266
 11
5.09418
 21
35.003
  0
LINE
  5
103
100
AcDbEntity
  8
0
  6
ByLayer
 62
  256
370
   -1
100
AcDbLine
 10
5.09418
 20
35.003
 11
4.90581
 21
35.003
  0
LINE
  5
104
100
AcDbEntity
  8
0
  6
ByLayer
 62
  256
370
   -1
100
AcDbLine
 10
4.90581
 20
35.003
 11
4.71893
 21
35.0266
  0
LINE
  5
105
100
AcDbEntity
  8
0
  6
ByLayer
 62
  256
370
   -1
100
AcDbLine
 10
4.71893
 20
35.0266
 11
4.53647
 21
35.0734
  0
LINE
  5
106
100
AcDbEntity
  8
0
  6
ByLayer
 62
  256
370
   -1
100
AcDbLine
 10
4.53647
 20
35.0734
 11
4.36133
 21
35.1428
  0
LINE
  5
107
100
AcDbEntity
  8
0
  6
ByLayer
 62
  256
370
   -1
100
AcDbLine
 10
4.36133
 20
35.1428
 11
4.19626
 21
35.2335
  0
LINE
  5
108
100
AcDbEntity
  8
0
  6
ByLayer
 62
  256
370
   -1
100
AcDbLine
 10
4.19626
 20
35.2335
 11
4.04386
 21
35.3442
  0
LINE
  5
109
100
AcDbEntity
  8
0
  6
ByLayer
 62
  256
370
   -1
100
AcDbLine
 10
4.04386
 20
35.3442
 11
3.90655
 21
35.4732
  0
LINE
  5
10A
100
AcDbEntity
  8
0
  6
ByLayer
 62
  256
370
   -1
100
AcDbLine
 10
3.90655
 20
35.4732
 11
3.78647
 21
35.6183
  0
LINE
  5
10B
100
AcDbEntity
  8
0
  6
ByLayer
 62
  256
370
   -1
100
AcDbLine
 10
3.78647
 20
35.6183
 11
3.68554
 21
35.7774
  0
LINE
  5
10C
100
AcDbEntity
  8
0
  6
ByLayer
 62
  256
370
   -1
100
AcDbLine
 10
3.68554
 20
35.7774
 11
3.60534
 21
35.9478
  0
LINE
  5
10D
100
AcDbEntity
  8
0
  6
ByLayer
 62
  256
370
   -1
100
AcDbLine
 10
3.60534
 20
35.9478
 11
3.54712
 21
36.127
  0
LINE
  5
10E
100
AcDbEntity
  8
0
  6
ByLayer
 62
  256
370
   -1
100
AcDbLine
 10
3.54712
 20
36.127
 11
3.51183
 21
36.312
  0
LINE
  5
10F
100
AcDbEntity
  8
0
  6
ByLayer
 62
  256
370
   -1
100
AcDbLine
 10
3.51183
 20
36.312
 11
3.5
 21
36.5
  0
LINE
  5
110
100
AcDbEntity
  8
0
  6
ByLayer
 62
  256
370
   -1
100
AcDbLine
 10
198.5
 20
29.5
 11
198.512
 21
29.688
  0
LINE
  5
111
100
AcDbEntity
  8
0
  6
ByLayer
 62
  256
370
   -1
100
AcDbLine
 10
198.512
 20
29.688
 11
198.547
 21
29.873
  0
LINE
  5
112
100
AcDbEntity
  8
0
  6
ByLayer
 62
  256
370
   -1
100
AcDbLine
 10
198.547
 20
29.873
 11
198.605
 21
30.0522
  0
LINE
  5
113
100
AcDbEntity
  8
0
  6
ByLayer
 62
  256
370
   -1
100
AcDbLine
 10
198.605
 20
30.0522
 11
198.686
 21
30.2226
  0
LINE
  5
114
100
AcDbEntity
  8
0
  6
ByLayer
 62
  256
370
   -1
100
AcDbLine
 10
198.686
 20
30.2226
 11
198.786
 21
30.3817
  0
LINE
  5
115
100
AcDbEntity
  8
0
  6
ByLayer
 62
  256
370
   -1
100
AcDbLine
 10
198.786
 20
30.3817
 11
198.907
 21
30.5268
  0
LINE
  5
116
100
AcDbEntity
  8
0
  6
ByLayer
 62
  256
370
   -1
100
AcDbLine
 10
198.907
 20
30.5268
 11
199.044
 21
30.6558
  0
LINE
  5
117
100
AcDbEntity
  8
0
  6
ByLayer
 62
  256
370
   -1
100
AcDbLine
 10
199.044
 20
30.6558
 11
199.196
 21
30.7665
  0
LINE
  5
118
100
AcDbEntity
  8
0
  6
ByLayer
 62
  256
370
   -1
100
AcDbLine
 10
199.196
 20
30.7665
 11
199.361
 21
30.8572
  0
LINE
  5
119
100
AcDbEntity
  8
0
  6
ByLayer
 62
  256
370
   -1
100
AcDbLine
 10
199.361
 20
30.8572
 11
199.536
 21
30.9266
  0
LINE
  5
11A
100
AcDbEntity
  8
0
  6
ByLayer
 62
  256
370
   -1
100
AcDbLine
 10
199.536
 20
30.9266
 11
199.719
 21
30.9734
  0
LINE
  5
11B
100
AcDbEntity
  8
0
  6
ByLayer
 62
  256
370
   -1
100
AcDbLine
 10
199.719
 20
30.9734
 11
199.906
 21
30.997
  0
LINE
  5
11C
100
AcDbEntity
  8
0
  6
ByLayer
 62
  256
370
   -1
100
AcDbLine
 10
199.906
 20
30.997
 11
200.094
 21
30.997
  0
LINE
  5
11D
100
AcDbEntity
  8
0
  6
ByLayer
 62
  256
370
   -1
100
AcDbLine
 10
200.094
 20
30.997
 11
200.281
 21
30.9734
  0
LINE
  5
11E
100
AcDbEntity
  8
0
  6
ByLayer
 62
  256
370
   -1
100
AcDbLine
 10
200.281
 20
30.9734
 11
200.464
 21
30.9266
  0
LINE
  5
11F
100
AcDbEntity
  8
0
  6
ByLayer
 62
  256
370
   -1
100
AcDbLine
 10
200.464
 20
30.9266
 11
200.639
 21
30.8572
  0
LINE
  5
120
100
AcDbEntity
  8
0
  6
ByLayer
 62
  256
370
   -1
100
AcDbLine
 10
200.639
 20
30.8572
 11
200.804
 21
30.7665
  0
LINE
  5
121
100
AcDbEntity
  8
0
  6
ByLayer
 62
  256
370
   -1
100
AcDbLine
 10
200.804
 20
30.7665
 11
200.956
 21
30.6558
  0
LINE
  5
122
100
AcDbEntity
  8
0
  6
ByLayer
 62
  256
370
   -1
100
AcDbLine
 10
200.956
 20
30.6558
 11
201.093
 21
30.5268
  0
LINE
  5
123
100
AcDbEntity
  8
0
  6
ByLayer
 62
  256
370
   -1
100
AcDbLine
 10
201.093
 20
30.5268
 11
201.214
 21
30.3817
  0
LINE
  5
124
100
AcDbEntity
  8
0
  6
ByLayer
 62
  256
370
   -1
100
AcDbLine
 10
201.214
 20
30.3817
 11
201.314
 21
30.2226
  0
LINE
  5
125
100
AcDbEntity
  8
0
  6
ByLayer
 62
  256
370
   -1
100
AcDbLine
 10
201.314
 20
30.2226
 11
201.395
 21
30.0522
  0
LINE
  5
126
100
AcDbEntity
  8
0
  6
ByLayer
 62
  256
370
   -1
100
AcDbLine
 10
201.395
 20
30.0522
 11
201.453
 21
29.873
  0
LINE
  5
127
100
AcDbEntity
  8
0
  6
ByLayer
 62
  256
370
   -1
100
AcDbLine
 10
201.453
 20
29.873
 11
201.488
 21
29.688
  0
LINE
  5
128
100
AcDbEntity
  8
0
  6
ByLayer
 62
  256
370
   -1
100
AcDbLine
 10
201.488
 20
29.688
 11
201.5
 21
29.5
  0
LINE
  5
129
100
AcDbEntity
  8
0
  6
ByLayer
 62
  256
370
   -1
100
AcDbLine
 10
201.5
 20
29.5
 11
201.488
 21
29.312
  0
LINE
  5
12A
100
AcDbEntity
  8
0
  6
ByLayer
 62
  256
370
   -1
100
AcDbLine
 10
201.488
 20
29.312
 11
201.453
 21
29.127
  0
LINE
  5
12B
100
AcDbEntity
  8
0
  6
ByLayer
 62
  256
370
   -1
100
AcDbLine
 10
201.453
 20
29.127
 11
201.395
 21
28.9478
  0
LINE
  5
12C
100
AcDbEntity
  8
0
  6
ByLayer
 62
  256
370
   -1
100
AcDbLine
 10
201.395
 20
28.9478
 11
201.314
 21
28.7774
  0
LINE
  5
12D
100
AcDbEntity
  8
0
  6
ByLayer
 62
  256
370
   -1
100
AcDbLine
 10
201.314
 20
28.7774
 11
201.214
 21
28.6183
  0
LINE
  5
12E
100
AcDbEntity
  8
0
  6
ByLayer
 62
  256
370
   -1
100
AcDbLine
 10
201.214
 20
28.6183
 11
201.093
 21
28.4732
  0
LINE
  5
12F
100
AcDbEntity
  8
0
  6
ByLayer
 62
  256
370
   -1
100
AcDbLine
 10
201.093
 20
28.4732
 11
200.956
 21
28.3442
  0
LINE
  5
130
100
AcDbEntity
  8
0
  6
ByLayer
 62
  256
370
   -1
100
AcDbLine
 10
200.956
 20
28.3442
 11
200.804
 21
28.2335
  0
LINE
  5
131
100
AcDbEntity
  8
0
  6
ByLayer
 62
  256
370
   -1
100
AcDbLine
 10
200.804
 20
28.2335
 11
200.639
 21
28.1428
  0
LINE
  5
132
100
AcDbEntity
  8
0
  6
ByLayer
 62
  256
370
   -1
100
AcDbLine
 10
200.639
 20
28.1428
 11
200.464
 21
28.0734
  0
LINE
  5
133
100
AcDbEntity
  8
0
  6
ByLayer
 62
  256
370
   -1
100
AcDbLine
 10
200.464
 20
28.0734
 11
200.281
 21
28.0266
  0
LINE
  5
134
100
AcDbEntity
  8
0
  6
ByLayer
 62
  256
370
   -1
100
AcDbLine
 10
200.281
 20
28.0266
 11
200.094
 21
28.003
  0
LINE
  5
135
100
AcDbEntity
  8
0
  6
ByLayer
 62
  256
370
   -1
100
AcDbLine
 10
200.094
 20
28.003
 11
199.906
 21
28.003
  0
LINE
  5
136
100
AcDbEntity
  8
0
  6
ByLayer
 62
  256
370
   -1
100
AcDbLine
 10
199.906
 20
28.003
 11
199.719
 21
28.0266
  0
LINE
  5
137
100
AcDbEntity
  8
0
  6
ByLayer
 62
  256
370
   -1
100
AcDbLine
 10
199.719
 20
28.0266
 11
199.536
 21
28.0734
  0
LINE
  5
138
100
AcDbEntity
  8
0
  6
ByLayer
 62
  256
370
   -1
100
AcDbLine
 10
199.536
 20
28.0734
 11
199.361
 21
28.1428
  0
LINE
  5
139
100
AcDbEntity
  8
0
  6
ByLayer
 62
  256
370
   -1
100
AcDbLine
 10
199.361
 20
28.1428
 11
199.196
 21
28.2335
  0
LINE
  5
13A
100
AcDbEntity
  8
0
  6
ByLayer
 62
  256
370
   -1
100
AcDbLine
 10
199.196
 20
28.2335
 11
199.044
 21
28.3442
  0
LINE
  5
13B
100
AcDbEntity
  8
0
  6
ByLayer
 62
  256
370
   -1
100
AcDbLine
 10
199.044
 20
28.3442
 11
198.907
 21
28.4732
  0
LINE
  5
13C
100
AcDbEntity
  8
0
  6
ByLayer
 62
  256
370
   -1
100
AcDbLine
 10
198.907
 20
28.4732
 11
198.786
 21
28.6183
  0
LINE
  5
13D
100
AcDbEntity
  8
0
  6
ByLayer
 62
  256
370
   -1
100
AcDbLine
 10
198.786
 20
28.6183
 11
198.686
 21
28.7774
  0
LINE
  5
13E
100
AcDbEntity
  8
0
  6
ByLayer
 62
  256
370
   -1
100
AcDbLine
 10
198.686
 20
28.7774
 11
198.605
 21
28.9478
  0
LINE
  5
13F
100
AcDbEntity
  8
0
  6
ByLayer
 62
  256
370
   -1
100
AcDbLine
 10
198.605
 20
28.9478
 11
198.547
 21
29.127
  0
LINE
  5
140
100
AcDbEntity
  8
0
  6
ByLayer
 62
  256
370
   -1
100
AcDbLine
 10
198.547
 20
29.127
 11
198.512
 21
29.312
  0
LINE
  5
141
100
AcDbEntity
  8
0
  6
ByLayer
 62
  256
370
   -1
100
AcDbLine
 10
198.512
 20
29.312
 11
198.5
 21
29.5
  0
LINE
  5
142
100
AcDbEntity
  8
0
  6
ByLayer
 62
  256
370
   -1
100
AcDbLine
 10
203.5
 20
6.5
 11
203.512
 21
6.688
  0
LINE
  5
143
100
AcDbEntity
  8
0
  6
ByLayer
 62
  256
370
   -1
100
AcDbLine
 10
203.512
 20
6.688
 11
203.547
 21
6.87303
  0
LINE
  5
144
100
AcDbEntity
  8
0
  6
ByLayer
 62
  256
370
   -1
100
AcDbLine
 10
203.547
 20
6.87303
 11
203.605
 21
7.05219
  0
LINE
  5
145
100
AcDbEntity
  8
0
  6
ByLayer
 62
  256
370
   -1
100
AcDbLine
 10
203.605
 20
7.05219
 11
203.686
 21
7.22263
  0
LINE
  5
146
100
AcDbEntity
  8
0
  6
ByLayer
 62
  256
370
   -1
100
AcDbLine
 10
203.686
 20
7.22263
 11
203.786
 21
7.38168
  0
LINE
  5
147
100
AcDbEntity
  8
0
  6
ByLayer
 62
  256
370
   -1
100
AcDbLine
 10
203.786
 20
7.38168
 11
203.907
 21
7.52682
  0
LINE
  5
148
100
AcDbEntity
  8
0
  6
ByLayer
 62
  256
370
   -1
100
AcDbLine
 10
203.907
 20
7.52682
 11
204.044
 21
7.65577
  0
LINE
  5
149
100
AcDbEntity
  8
0
  6
ByLayer
 62
  256
370
   -1
100
AcDbLine
 10
204.044
 20
7.65577
 11
204.196
 21
7.76649
  0
LINE
  5
14A
100
AcDbEntity
  8
0
  6
ByLayer
 62
  256
370
   -1
100
AcDbLine
 10
204.196
 20
7.76649
 11
204.361
 21
7.85724
  0
LINE
  5
14B
100
AcDbEntity
  8
0
  6
ByLayer
 62
  256
370
   -1
100
AcDbLine
 10
204.361
 20
7.85724
 11
204.536
 21
7.92658
  0
LINE
  5
14C
100
AcDbEntity
  8
0
  6
ByLayer
 62
  256
370
   -1
100
AcDbLine
 10
204.536
 20
7.92658
 11
204.719
 21
7.97343
  0
LINE
  5
14D
100
AcDbEntity
  8
0
  6
ByLayer
 62
  256
370
   -1
100
AcDbLine
 10
204.719
 20
7.97343
 11
204.906
 21
7.99704
  0
LINE
  5
14E
100
AcDbEntity
  8
0
  6
ByLayer
 62
  256
370
   -1
100
AcDbLine
 10
204.906
 20
7.99704
 11
205.094
 21
7.99704
  0
LINE
  5
14F
100
AcDbEntity
  8
0
  6
ByLayer
 62
  256
370
   -1
100
AcDbLine
 10
205.094
 20
7.99704
 11
205.281
 21
7.97343
  0
LINE
  5
150
100
AcDbEntity
  8
0
  6
ByLayer
 62
  256
370
   -1
100
AcDbLine
 10
205.281
 20
7.97343
 11
205.464
 21
7.92658
  0
LINE
  5
151
100
AcDbEntity
  8
0
  6
ByLayer
 62
  256
370
   -1
100
AcDbLine
 10
205.464
 20
7.92658
 11
205.639
 21
7.85724
  0
LINE
  5
152
100
AcDbEntity
  8
0
  6
ByLayer
 62
  256
370
   -1
100
AcDbLine
 10
205.639
 20
7.85724
 11
205.804
 21
7.76649
  0
LINE
  5
153
100
AcDbEntity
  8
0
  6
ByLayer
 62
  256
370
   -1
100
AcDbLine
 10
205.804
 20
7.76649
 11
205.956
 21
7.65577
  0
LINE
  5
154
100
AcDbEntity
  8
0
  6
ByLayer
 62
  256
370
   -1
100
AcDbLine
 10
205.956
 20
7.65577
 11
206.093
 21
7.52682
  0
LINE
  5
155
100
AcDbEntity
  8
0
  6
ByLayer
 62
  256
370
   -1
100
AcDbLine
 10
206.093
 20
7.52682
 11
206.214
 21
7.38168
  0
LINE
  5
156
100
AcDbEntity
  8
0
  6
ByLayer
 62
  256
370
   -1
100
AcDbLine
 10
206.214
 20
7.38168
 11
206.314
 21
7.22263
  0
LINE
  5
157
100
AcDbEntity
  8
0
  6
ByLayer
 62
  256
370
   -1
100
AcDbLine
 10
206.314
 20
7.22263
 11
206.395
 21
7.05219
  0
LINE
  5
158
100
AcDbEntity
  8
0
  6
ByLayer
 62
  256
370
   -1
100
AcDbLine
 10
206.395
 20
7.05219
 11
206.453
 21
6.87303
  0
LINE
  5
159
100
AcDbEntity
  8
0
  6
ByLayer
 62
  256
370
   -1
100
AcDbLine
 10
206.453
 20
6.87303
 11
206.488
 21
6.688
  0
LINE
  5
15A
100
AcDbEntity
  8
0
  6
ByLayer
 62
  256
370
   -1
100
AcDbLine
 10
206.488
 20
6.688
 11
206.5
 21
6.5
  0
LINE
  5
15B
100
AcDbEntity
  8
0
  6
ByLayer
 62
  256
370
   -1
100
AcDbLine
 10
206.5
 20
6.5
 11
206.488
 21
6.312
  0
LINE
  5
15C
100
AcDbEntity
  8
0
  6
ByLayer
 62
  256
370
   -1
100
AcDbLine
 10
206.488
 20
6.312
 11
206.453
 21
6.12696
  0
LINE
  5
15D
100
AcDbEntity
  8
0
  6
ByLayer
 62
  256
370
   -1
100
AcDbLine
 10
206.453
 20
6.12696
 11
206.395
 21
5.94781
  0
LINE
  5
15E
100
AcDbEntity
  8
0
  6
ByLayer
 62
  256
370
   -1
100
AcDbLine
 10
206.395
 20
5.94781
 11
206.314
 21
5.77737
  0
LINE
  5
15F
100
AcDbEntity
  8
0
  6
ByLayer
 62
  256
370
   -1
100
AcDbLine
 10
206.314
 20
5.77737
 11
206.214
 21
5.61832
  0
LINE
  5
160
100
AcDbEntity
  8
0
  6
ByLayer
 62
  256
370
   -1
100
AcDbLine
 10
206.214
 20
5.61832
 11
206.093
 21
5.47318
  0
LINE
  5
161
100
AcDbEntity
  8
0
  6
ByLayer
 62
  256
370
   -1
100
AcDbLine
 10
206.093
 20
5.47318
 11
205.956
 21
5.34423
  0
LINE
  5
162
100
AcDbEntity
  8
0
  6
ByLayer
 62
  256
370
   -1
100
AcDbLine
 10
205.956
 20
5.34423
 11
205.804
 21
5.23351
  0
LINE
  5
163
100
AcDbEntity
  8
0
  6
ByLayer
 62
  256
370
   -1
100
AcDbLine
 10
205.804
 20
5.23351
 11
205.639
 21
5.14276
  0
LINE
  5
164
100
AcDbEntity
  8
0
  6
ByLayer
 62
  256
370
   -1
100
AcDbLine
 10
205.639
 20
5.14276
 11
205.464
 21
5.07341
  0
LINE
  5
165
100
AcDbEntity
  8
0
  6
ByLayer
 62
  256
370
   -1
100
AcDbLine
 10
205.464
 20
5.07341
 11
205.281
 21
5.02657
  0
LINE
  5
166
100
AcDbEntity
  8
0
  6
ByLayer
 62
  256
370
   -1
100
AcDbLine
 10
205.281
 20
5.02657
 11
205.094
 21
5.00296
  0
LINE
  5
167
100
AcDbEntity
  8
0
  6
ByLayer
 62
  256
370
   -1
100
AcDbLine
 10
205.094
 20
5.00296
 11
204.906
 21
5.00296
  0
LINE
  5
168
100
AcDbEntity
  8
0
  6
ByLayer
 62
  256
370
   -1
100
AcDbLine
 10
204.906
 20
5.00296
 11
204.719
 21
5.02657
  0
LINE
  5
169
100
AcDbEntity
  8
0
  6
ByLayer
 62
  256
370
   -1
100
AcDbLine
 10
204.719
 20
5.02657
 11
204.536
 21
5.07341
  0
LINE
  5
16A
100
AcDbEntity
  8
0
  6
ByLayer
 62
  256
370
   -1
100
AcDbLine
 10
204.536
 20
5.07341
 11
204.361
 21
5.14276
  0
LINE
  5
16B
100
AcDbEntity
  8
0
  6
ByLayer
 62
  256
370
   -1
100
AcDbLine
 10
204.361
 20
5.14276
 11
204.196
 21
5.23351
  0
LINE
  5
16C
100
AcDbEntity
  8
0
  6
ByLayer
 62
  256
370
   -1
100
AcDbLine
 10
204.196
 20
5.23351
 11
204.044
 21
5.34423
  0
LINE
  5
16D
100
AcDbEntity
  8
0
  6
ByLayer
 62
  256
370
   -1
100
AcDbLine
 10
204.044
 20
5.34423
 11
203.907
 21
5.47318
  0
LINE
  5
16E
100
AcDbEntity
  8
0
  6
ByLayer
 62
  256
370
   -1
100
AcDbLine
 10
203.907
 20
5.47318
 11
203.786
 21
5.61832
  0
LINE
  5
16F
100
AcDbEntity
  8
0
  6
ByLayer
 62
  256
370
   -1
100
AcDbLine
 10
203.786
 20
5.61832
 11
203.686
 21
5.77737
  0
LINE
  5
170
100
AcDbEntity
  8
0
  6
ByLayer
 62
  256
370
   -1
100
AcDbLine
 10
203.686
 20
5.77737
 11
203.605
 21
5.94781
  0
LINE
  5
171
100
AcDbEntity
  8
0
  6
ByLayer
 62
  256
370
   -1
100
AcDbLine
 10
203.605
 20
5.94781
 11
203.547
 21
6.12696
  0
LINE
  5
172
100
AcDbEntity
  8
0
  6
ByLayer
 62
  256
370
   -1
100
AcDbLine
 10
203.547
 20
6.12696
 11
203.512
 21
6.312
  0
LINE
  5
173
100
AcDbEntity
  8
0
  6
ByLayer
 62
  256
370
   -1
100
AcDbLine
 10
203.512
 20
6.312
 11
203.5
 21
6.5
  0
LINE
  5
174
100
AcDbEntity
  8
0
  6
ByLayer
 62
  256
370
   -1
100
AcDbLine
 10
203.5
 20
36.5
 11
203.512
 21
36.688
  0
LINE
  5
175
100
AcDbEntity
  8
0
  6
ByLayer
 62
  256
370
   -1
100
AcDbLine
 10
203.512
 20
36.688
 11
203.547
 21
36.873
  0
LINE
  5
176
100
AcDbEntity
  8
0
  6
ByLayer
 62
  256
370
   -1
100
AcDbLine
 10
203.547
 20
36.873
 11
203.605
 21
37.0522
  0
LINE
  5
177
100
AcDbEntity
  8
0
  6
ByLayer
 62
  256
370
   -1
100
AcDbLine
 10
203.605
 20
37.0522
 11
203.686
 21
37.2226
  0
LINE
  5
178
100
AcDbEntity
  8
0
  6
ByLayer
 62
  256
370
   -1
100
AcDbLine
 10
203.686
 20
37.2226
 11
203.786
 21
37.3817
  0
LINE
  5
179
100
AcDbEntity
  8
0
  6
ByLayer
 62
  256
370
   -1
100
AcDbLine
 10
203.786
 20
37.3817
 11
203.907
 21
37.5268
  0
LINE
  5
17A
100
AcDbEntity
  8
0
  6
ByLayer
 62
  256
370
   -1
100
AcDbLine
 10
203.907
 20
37.5268
 11
204.044
 21
37.6558
  0
LINE
  5
17B
100
AcDbEntity
  8
0
  6
ByLayer
 62
  256
370
   -1
100
AcDbLine
 10
204.044
 20
37.6558
 11
204.196
 21
37.7665
  0
LINE
  5
17C
100
AcDbEntity
  8
0
  6
ByLayer
 62
  256
370
   -1
100
AcDbLine
 10
204.196
 20
37.7665
 11
204.361
 21
37.8572
  0
LINE
  5
17D
100
AcDbEntity
  8
0
  6
ByLayer
 62
  256
370
   -1
100
AcDbLine
 10
204.361
 20
37.8572
 11
204.536
 21
37.9266
  0
LINE
  5
17E
100
AcDbEntity
  8
0
  6
ByLayer
 62
  256
370
   -1
100
AcDbLine
 10
204.536
 20
37.9266
 11
204.719
 21
37.9734
  0
LINE
  5
17F
100
AcDbEntity
  8
0
  6
ByLayer
 62
  256
370
   -1
100
AcDbLine
 10
204.719
 20
37.9734
 11
204.906
 21
37.997
  0
LINE
  5
180
100
AcDbEntity
  8
0
  6
ByLayer
 62
  256
370
   -1
100
AcDbLine
 10
204.906
 20
37.997
 11
205.094
 21
37.997
  0
LINE
  5
181
100
AcDbEntity
  8
0
  6
ByLayer
 62
  256
370
   -1
100
AcDbLine
 10
205.094
 20
37.997
 11
205.281
 21
37.9734
  0
LINE
  5
182
100
AcDbEntity
  8
0
  6
ByLayer
 62
  256
370
   -1
100
AcDbLine
 10
205.281
 20
37.9734
 11
205.464
 21
37.9266
  0
LINE
  5
183
100
AcDbEntity
  8
0
  6
ByLayer
 62
  256
370
   -1
100
AcDbLine
 10
205.464
 20
37.9266
 11
205.639
 21
37.8572
  0
LINE
  5
184
100
AcDbEntity
  8
0
  6
ByLayer
 62
  256
370
   -1
100
AcDbLine
 10
205.639
 20
37.8572
 11
205.804
 21
37.7665
  0
LINE
  5
185
100
AcDbEntity
  8
0
  6
ByLayer
 62
  256
370
   -1
100
AcDbLine
 10
205.804
 20
37.7665
 11
205.956
 21
37.6558
  0
LINE
  5
186
100
AcDbEntity
  8
0
  6
ByLayer
 62
  256
370
   -1
100
AcDbLine
 10
205.956
 20
37.6558
 11
206.093
 21
37.5268
  0
LINE
  5
187
100
AcDbEntity
  8
0
  6
ByLayer
 62
  256
370
   -1
100
AcDbLine
 10
206.093
 20
37.5268
 11
206.214
 21
37.3817
  0
LINE
  5
188
100
AcDbEntity
  8
0
  6
ByLayer
 62
  256
370
   -1
100
AcDbLine
 10
206.214
 20
37.3817
 11
206.314
 21
37.2226
  0
LINE
  5
189
100
AcDbEntity
  8
0
  6
ByLayer
 62
  256
370
   -1
100
AcDbLine
 10
206.314
 20
37.2226
 11
206.395
 21
37.0522
  0
LINE
  5
18A
100
AcDbEntity
  8
0
  6
ByLayer
 62
  256
370
   -1
100
AcDbLine
 10
206.395
 20
37.0522
 11
206.453
 21
36.873
  0
LINE
  5
18B
100
AcDbEntity
  8
0
  6
ByLayer
 62
  256
370
   -1
100
AcDbLine
 10
206.453
 20
36.873
 11
206.488
 21
36.688
  0
LINE
  5
18C
100
AcDbEntity
  8
0
  6
ByLayer
 62
  256
370
   -1
100
AcDbLine
 10
206.488
 20
36.688
 11
206.5
 21
36.5
  0
LINE
  5
18D
100
AcDbEntity
  8
0
  6
ByLayer
 62
  256
370
   -1
100
AcDbLine
 10
206.5
 20
36.5
 11
206.488
 21
36.312
  0
LINE
  5
18E
100
AcDbEntity
  8
0
  6
ByLayer
 62
  256
370
   -1
100
AcDbLine
 10
206.488
 20
36.312
 11
206.453
 21
36.127
  0
LINE
  5
18F
100
AcDbEntity
  8
0
  6
ByLayer
 62
  256
370
   -1
100
AcDbLine
 10
206.453
 20
36.127
 11
206.395
 21
35.9478
  0
LINE
  5
190
100
AcDbEntity
  8
0
  6
ByLayer
 62
  256
370
   -1
100
AcDbLine
 10
206.395
 20
35.9478
 11
206.314
 21
35.7774
  0
LINE
  5
191
100
AcDbEntity
  8
0
  6
ByLayer
 62
  256
370
   -1
100
AcDbLine
 10
206.314
 20
35.7774
 11
206.214
 21
35.6183
  0
LINE
  5
192
100
AcDbEntity
  8
0
  6
ByLayer
 62
  256
370
   -1
100
AcDbLine
 10
206.214
 20
35.6183
 11
206.093
 21
35.4732
  0
LINE
  5
193
100
AcDbEntity
  8
0
  6
ByLayer
 62
  256
370
   -1
100
AcDbLine
 10
206.093
 20
35.4732
 11
205.956
 21
35.3442
  0
LINE
  5
194
100
AcDbEntity
  8
0
  6
ByLayer
 62
  256
370
   -1
100
AcDbLine
 10
205.956
 20
35.3442
 11
205.804
 21
35.2335
  0
LINE
  5
195
100
AcDbEntity
  8
0
  6
ByLayer
 62
  256
370
   -1
100
AcDbLine
 10
205.804
 20
35.2335
 11
205.639
 21
35.1428
  0
LINE
  5
196
100
AcDbEntity
  8
0
  6
ByLayer
 62
  256
370
   -1
100
AcDbLine
 10
205.639
 20
35.1428
 11
205.464
 21
35.0734
  0
LINE
  5
197
100
AcDbEntity
  8
0
  6
ByLayer
 62
  256
370
   -1
100
AcDbLine
 10
205.464
 20
35.0734
 11
205.281
 21
35.0266
  0
LINE
  5
198
100
AcDbEntity
  8
0
  6
ByLayer
 62
  256
370
   -1
100
AcDbLine
 10
205.281
 20
35.0266
 11
205.094
 21
35.003
  0
LINE
  5
199
100
AcDbEntity
  8
0
  6
ByLayer
 62
  256
370
   -1
100
AcDbLine
 10
205.094
 20
35.003
 11
204.906
 21
35.003
  0
LINE
  5
19A
100
AcDbEntity
  8
0
  6
ByLayer
 62
  256
370
   -1
100
AcDbLine
 10
204.906
 20
35.003
 11
204.719
 21
35.0266
  0
LINE
  5
19B
100
AcDbEntity
  8
0
  6
ByLayer
 62
  256
370
   -1
100
AcDbLine
 10
204.719
 20
35.0266
 11
204.536
 21
35.0734
  0
LINE
  5
19C
100
AcDbEntity
  8
0
  6
ByLayer
 62
  256
370
   -1
100
AcDbLine
 10
204.536
 20
35.0734
 11
204.361
 21
35.1428
  0
LINE
  5
19D
100
AcDbEntity
  8
0
  6
ByLayer
 62
  256
370
   -1
100
AcDbLine
 10
204.361
 20
35.1428
 11
204.196
 21
35.2335
  0
LINE
  5
19E
100
AcDbEntity
  8
0
  6
ByLayer
 62
  256
370
   -1
100
AcDbLine
 10
204.196
 20
35.2335
 11
204.044
 21
35.3442
  0
LINE
  5
19F
100
AcDbEntity
  8
0
  6
ByLayer
 62
  256
370
   -1
100
AcDbLine
 10
204.044
 20
35.3442
 11
203.907
 21
35.4732
  0
LINE
  5
1A0
100
AcDbEntity
  8
0
  6
ByLayer
 62
  256
370
   -1
100
AcDbLine
 10
203.907
 20
35.4732
 11
203.786
 21
35.6183
  0
LINE
  5
1A1
100
AcDbEntity
  8
0
  6
ByLayer
 62
  256
370
   -1
100
AcDbLine
 10
203.786
 20
35.6183
 11
203.686
 21
35.7774
  0
LINE
  5
1A2
100
AcDbEntity
  8
0
  6
ByLayer
 62
  256
370
   -1
100
AcDbLine
 10
203.686
 20
35.7774
 11
203.605
 21
35.9478
  0
LINE
  5
1A3
100
AcDbEntity
  8
0
  6
ByLayer
 62
  256
370
   -1
100
AcDbLine
 10
203.605
 20
35.9478
 11
203.547
 21
36.127
  0
LINE
  5
1A4
100
AcDbEntity
  8
0
  6
ByLayer
 62
  256
370
   -1
100
AcDbLine
 10
203.547
 20
36.127
 11
203.512
 21
36.312
  0
LINE
  5
1A5
100
AcDbEntity
  8
0
  6
ByLayer
 62
  256
370
   -1
100
AcDbLine
 10
203.512
 20
36.312
 11
203.5
 21
36.5
  0
LINE
  5
1A6
100
AcDbEntity
  8
0
  6
ByLayer
 62
  256
370
   -1
100
AcDbLine
 10
272
 20
0
 11
250
 21
0
  0
LINE
  5
1A7
100
AcDbEntity
  8
0
  6
ByLayer
 62
  256
370
   -1
100
AcDbLine
 10
250
 20
0
 11
250
 21
40
  0
LINE
  5
1A8
100
AcDbEntity
  8
0
  6
ByLayer
 62
  256
370
   -1
100
AcDbLine
 10
250
 20
40
 11
272
 21
40
  0
LINE
  5
1A9
100
AcDbEntity
  8
0
  6
ByLayer
 62
  256
370
   -1
100
AcDbLine
 10
272
 20
40
 11
272
 21
0
  0
LINE
  5
1AA
100
AcDbEntity
  8
0
  6
ByLayer
 62
  256
370
   -1
100
AcDbLine
 10
263
 20
12.5
 11
263
 21
27.5
  0
LINE
  5
1AB
100
AcDbEntity
  8
0
  6
ByLayer
 62
  256
370
   -1
100
AcDbLine
 10
263
 20
27.5
 11
253
 21
27.5
  0
LINE
  5
1AC
100
AcDbEntity
  8
0
  6
ByLayer
 62
  256
370
   -1
100
AcDbLine
 10
253
 20
27.5
 11
253
 21
12.5
  0
LINE
  5
1AD
100
AcDbEntity
  8
0
  6
ByLayer
 62
  256
370
   -1
100
AcDbLine
 10
253
 20
12.5
 11
263
 21
12.5
  0
LINE
  5
1AE
100
AcDbEntity
  8
0
  6
ByLayer
 62
  256
370
   -1
100
AcDbLine
 10
253
 20
40
 11
253
 21
0
  0
DIMENSION
  5
1AF
100
AcDbEntity
  8
dimensioning
  6
ByLayer
 62
  256
370
   -1
100
AcDbDimension
  2
*D1
 10
210
 20
-10
 30
0
 11
207.5
 21
-8.125
 31
0
 70
   32
 71
    5
 72
    0
  3
Standard
 53
0
210
0
220
0
230
1
100
AcDbAlignedDimension
 13
205
 23
6.500000000000001
 33
0
 14
210
 24
6.500000000000001
 34
0
100
AcDbRotatedDimension
  0
DIMENSION
  5
1B0
100
AcDbEntity
  8
dimensioning
  6
ByLayer
 62
  256
370
   -1
100
AcDbDimension
  2
*D2
 10
222
 20
6.499999999999998
 30
0
 11
220.125
 21
4
 31
0
 70
   32
 71
    5
 72
    0
  3
Standard
 53
0
210
0
220
0
230
1
100
AcDbAlignedDimension
 13
205
 23
1.5
 33
0
 14
205
 24
6.5
 34
0
 50
90
100
AcDbRotatedDimension
  0
DIMENSION
  5
1B1
100
AcDbEntity
  8
dimensioning
  6
ByLayer
 62
  256
370
   -1
100
AcDbDimension
  2
*D3
 10
-9
 20
41.5
 30
0
 11
-10.875
 21
21.5
 31
0
 70
   32
 71
    5
 72
    0
  3
Standard
 53
0
210
0
220
0
230
1
100
AcDbAlignedDimension
 13
0.2
 23
1.5
 33
0
 14
0.4000000000000007
 24
41.5
 34
0
 50
90
100
AcDbRotatedDimension
  0
DIMENSION
  5
1B2
100
AcDbEntity
  8
dimensioning
  6
ByLayer
 62
  256
370
   -1
100
AcDbDimension
  2
*D4
 10
210
 20
50
 30
0
 11
105
 21
51.875
 31
0
 70
   32
 71
    5
 72
    0
  3
Standard
 53
0
210
0
220
0
230
1
100
AcDbAlignedDimension
 13
0
 23
41
 33
0
 14
210
 24
41
 34
0
100
AcDbRotatedDimension
  0
DIMENSION
  5
1B3
100
AcDbEntity
  8
dimensioning
  6
ByLayer
 62
  256
370
   -1
100
AcDbDimension
  2
*D5
 10
196.3
 20
41.5
 30
0
 11
194.425
 21
35.5
 31
0
 70
   32
 71
    5
 72
    0
  3
Standard
 53
0
210
0
220
0
230
1
100
AcDbAlignedDimension
 13
200
 23
29.5
 33
0
 14
200
 24
41.5
 34
0
 50
90
100
AcDbRotatedDimension
  0
DIMENSION
  5
1B4
100
AcDbEntity
  8
dimensioning
  6
ByLayer
 62
  256
370
   -1
100
AcDbDimension
  2
*D6
 10
210
 20
23
 30
0
 11
205
 21
24.875
 31
0
 70
   32
 71
    5
 72
    0
  3
Standard
 53
0
210
0
220
0
230
1
100
AcDbAlignedDimension
 13
200
 23
29.5
 33
0
 14
210
 24
30
 34
0
100
AcDbRotatedDimension
  0
DIMENSION
  5
1B5
100
AcDbEntity
  8
dimensioning
  6
ByLayer
 62
  256
370
   -1
100
AcDbDimension
  2
*D7
 10
253
 20
50
 30
0
 11
251.5
 21
51.875
 31
0
 70
   32
 71
    5
 72
    0
  3
Standard
 53
0
210
0
220
0
230
1
100
AcDbAlignedDimension
 13
250
 23
40
 33
0
 14
253
 24
40
 34
0
100
AcDbRotatedDimension
  0
DIMENSION
  5
1B6
100
AcDbEntity
  8
dimensioning
  6
ByLayer
 62
  256
370
   -1
100
AcDbDimension
  2
*D8
 10
253
 20
33
 30
0
 11
258
 21
34.875
 31
0
 70
   32
 71
    5
 72
    0
  3
Standard
 53
0
210
0
220
0
230
1
100
AcDbAlignedDimension
 13
263
 23
27
 33
0
 14
253
 24
27
 34
0
100
AcDbRotatedDimension
  0
DIMENSION
  5
1B7
100
AcDbEntity
  8
dimensioning
  6
ByLayer
 62
  256
370
   -1
100
AcDbDimension
  2
*D9
 10
269
 20
12.5
 30
0
 11
267.125
 21
20
 31
0
 70
   32
 71
    5
 72
    0
  3
Standard
 53
0
210
0
220
0
230
1
100
AcDbAlignedDimension
 13
262.3
 23
27.5
 33
0
 14
262.3
 24
12.5
 34
0
 50
90
100
AcDbRotatedDimension
  0
DIMENSION
  5
1B8
100
AcDbEntity
  8
dimensioning
  6
ByLayer
 62
  256
370
   -1
100
AcDbDimension
  2
*D10
 10
272
 20
-10
 30
0
 11
262.5
 21
-8.125
 31
0
 70
   32
 71
    5
 72
    0
  3
Standard
 53
0
210
0
220
0
230
1
100
AcDbAlignedDimension
 13
253
 23
0
 33
0
 14
272
 24
0
 34
0
100
AcDbRotatedDimension
  0
LINE
  5
1B9
100
AcDbEntity
  8
0
  6
ByLayer
 62
  256
370
   -1
100
AcDbLine
 10
0
 20
-62
 11
3
 21
-62
  0
LINE
  5
1BA
100
AcDbEntity
  8
0
  6
ByLayer
 62
  256
370
   -1
100
AcDbLine
 10
3
 20
-62
 11
3
 21
-43
  0
LINE
  5
1BB
100
AcDbEntity
  8
0
  6
ByLayer
 62
  256
370
   -1
100
AcDbLine
 10
3
 20
-43
 11
207
 21
-43
  0
LINE
  5
1BC
100
AcDbEntity
  8
0
  6
ByLayer
 62
  256
370
   -1
100
AcDbLine
 10
207
 20
-43
 11
207
 21
-62
  0
LINE
  5
1BD
100
AcDbEntity
  8
0
  6
ByLayer
 62
  256
370
   -1
100
AcDbLine
 10
207
 20
-62
 11
210
 21
-62
  0
LINE
  5
1BE
100
AcDbEntity
  8
0
  6
ByLayer
 62
  256
370
   -1
100
AcDbLine
 10
210
 20
-62
 11
210
 21
-40
  0
LINE
  5
1BF
100
AcDbEntity
  8
0
  6
ByLayer
 62
  256
370
   -1
100
AcDbLine
 10
210
 20
-40
 11
0
 21
-40
  0
LINE
  5
1C0
100
AcDbEntity
  8
0
  6
ByLayer
 62
  256
370
   -1
100
AcDbLine
 10
0
 20
-40
 11
0
 21
-62
  0
LINE
  5
1C1
100
AcDbEntity
  8
0
  6
ByLayer
 62
  256
370
   -1
100
AcDbLine
 10
3
 20
-43
 11
0
 21
-43
  0
LINE
  5
1C2
100
AcDbEntity
  8
0
  6
ByLayer
 62
  256
370
   -1
100
AcDbLine
 10
207
 20
-43
 11
210
 21
-43
  0
ENDSEC
  0
SECTION
  2
OBJECTS
  0
DICTIONARY
  5
C
330
0
100
AcDbDictionary
281
    1
  3
ACAD_GROUP
350
D
  0
DICTIONARY
  5
D
330
C
100
AcDbDictionary
281
    1
  0
PLOTSETTINGS
  5
1C3
100
AcDbPlotSettings
  6
1x1
 40
0
 41
0
 42
0
 43
0
  0
ENDSEC
  0
EOF
